<svg xmlns="http://www.w3.org/2000/svg" xmlns:xlink="http://www.w3.org/1999/xlink" contentStyleType="text/css" data-diagram-type="CLASS" height="286px" preserveAspectRatio="none" style="width:3203px;height:286px;background:#FFFFFF;" version="1.1" viewBox="0 0 3203 286" width="3203px" zoomAndPan="magnify"><?plantuml 1.2026.3?><defs/><g><!--class Property--><g class="entity" data-qualified-name="Property" data-source-line="1" id="ent0002"><rect fill="#F1F1F1" height="48" rx="2.5" ry="2.5" style="stroke:#181818;stroke-width:0.5;" width="91.7939" x="525" y="7"/><ellipse cx="540" cy="23" fill="#ADD1B2" rx="11" ry="11" style="stroke:#181818;stroke-width:1;"/><path d="M542.9688,28.6406 Q542.3906,28.9375 541.75,29.0781 Q541.1094,29.2344 540.4063,29.2344 Q537.9063,29.2344 536.5781,27.5938 Q535.2656,25.9375 535.2656,22.8125 Q535.2656,19.6875 536.5781,18.0313 Q537.9063,16.375 540.4063,16.375 Q541.1094,16.375 541.75,16.5313 Q542.4063,16.6875 542.9688,16.9844 L542.9688,19.7031 Q542.3438,19.125 541.75,18.8594 Q541.1563,18.5781 540.5313,18.5781 Q539.1875,18.5781 538.5,19.6563 Q537.8125,20.7188 537.8125,22.8125 Q537.8125,24.9063 538.5,25.9844 Q539.1875,27.0469 540.5313,27.0469 Q541.1563,27.0469 541.75,26.7813 Q542.3438,26.5 542.9688,25.9219 L542.9688,28.6406 Z " fill="#000000"/><text fill="#000000" font-family="sans-serif" font-size="14" lengthAdjust="spacing" textLength="59.7939" x="554" y="27.8467">Property</text><line style="stroke:#181818;stroke-width:0.5;" x1="526" x2="615.7939" y1="39" y2="39"/><line style="stroke:#181818;stroke-width:0.5;" x1="526" x2="615.7939" y1="47" y2="47"/></g><!--class ActuatableProperty--><g class="entity" data-qualified-name="ActuatableProperty" data-source-line="1" id="ent0003"><rect fill="#F1F1F1" height="48" rx="2.5" ry="2.5" style="stroke:#181818;stroke-width:0.5;" width="167.4678" x="368.5" y="115"/><ellipse cx="383.5" cy="131" fill="#ADD1B2" rx="11" ry="11" style="stroke:#181818;stroke-width:1;"/><path d="M386.4688,136.6406 Q385.8906,136.9375 385.25,137.0781 Q384.6094,137.2344 383.9063,137.2344 Q381.4063,137.2344 380.0781,135.5938 Q378.7656,133.9375 378.7656,130.8125 Q378.7656,127.6875 380.0781,126.0313 Q381.4063,124.375 383.9063,124.375 Q384.6094,124.375 385.25,124.5313 Q385.9063,124.6875 386.4688,124.9844 L386.4688,127.7031 Q385.8438,127.125 385.25,126.8594 Q384.6563,126.5781 384.0313,126.5781 Q382.6875,126.5781 382,127.6563 Q381.3125,128.7188 381.3125,130.8125 Q381.3125,132.9063 382,133.9844 Q382.6875,135.0469 384.0313,135.0469 Q384.6563,135.0469 385.25,134.7813 Q385.8438,134.5 386.4688,133.9219 L386.4688,136.6406 Z " fill="#000000"/><text fill="#000000" font-family="sans-serif" font-size="14" lengthAdjust="spacing" textLength="135.4678" x="397.5" y="135.8467">ActuatableProperty</text><line style="stroke:#181818;stroke-width:0.5;" x1="369.5" x2="534.9678" y1="147" y2="147"/><line style="stroke:#181818;stroke-width:0.5;" x1="369.5" x2="534.9678" y1="155" y2="155"/></g><!--class Sample--><g class="entity" data-qualified-name="Sample" data-source-line="2" id="ent0005"><rect fill="#F1F1F1" height="48" rx="2.5" ry="2.5" style="stroke:#181818;stroke-width:0.5;" width="84.4932" x="979" y="7"/><ellipse cx="994" cy="23" fill="#ADD1B2" rx="11" ry="11" style="stroke:#181818;stroke-width:1;"/><path d="M996.9688,28.6406 Q996.3906,28.9375 995.75,29.0781 Q995.1094,29.2344 994.4063,29.2344 Q991.9063,29.2344 990.5781,27.5938 Q989.2656,25.9375 989.2656,22.8125 Q989.2656,19.6875 990.5781,18.0313 Q991.9063,16.375 994.4063,16.375 Q995.1094,16.375 995.75,16.5313 Q996.4063,16.6875 996.9688,16.9844 L996.9688,19.7031 Q996.3438,19.125 995.75,18.8594 Q995.1563,18.5781 994.5313,18.5781 Q993.1875,18.5781 992.5,19.6563 Q991.8125,20.7188 991.8125,22.8125 Q991.8125,24.9063 992.5,25.9844 Q993.1875,27.0469 994.5313,27.0469 Q995.1563,27.0469 995.75,26.7813 Q996.3438,26.5 996.9688,25.9219 L996.9688,28.6406 Z " fill="#000000"/><text fill="#000000" font-family="sans-serif" font-size="14" lengthAdjust="spacing" textLength="52.4932" x="1008" y="27.8467">Sample</text><line style="stroke:#181818;stroke-width:0.5;" x1="980" x2="1062.4932" y1="39" y2="39"/><line style="stroke:#181818;stroke-width:0.5;" x1="980" x2="1062.4932" y1="47" y2="47"/></g><!--class MaterialSample--><g class="entity" data-qualified-name="MaterialSample" data-source-line="2" id="ent0006"><rect fill="#F1F1F1" height="48" rx="2.5" ry="2.5" style="stroke:#181818;stroke-width:0.5;" width="141.3682" x="778.5" y="115"/><ellipse cx="793.5" cy="131" fill="#ADD1B2" rx="11" ry="11" style="stroke:#181818;stroke-width:1;"/><path d="M796.4688,136.6406 Q795.8906,136.9375 795.25,137.0781 Q794.6094,137.2344 793.9063,137.2344 Q791.4063,137.2344 790.0781,135.5938 Q788.7656,133.9375 788.7656,130.8125 Q788.7656,127.6875 790.0781,126.0313 Q791.4063,124.375 793.9063,124.375 Q794.6094,124.375 795.25,124.5313 Q795.9063,124.6875 796.4688,124.9844 L796.4688,127.7031 Q795.8438,127.125 795.25,126.8594 Q794.6563,126.5781 794.0313,126.5781 Q792.6875,126.5781 792,127.6563 Q791.3125,128.7188 791.3125,130.8125 Q791.3125,132.9063 792,133.9844 Q792.6875,135.0469 794.0313,135.0469 Q794.6563,135.0469 795.25,134.7813 Q795.8438,134.5 796.4688,133.9219 L796.4688,136.6406 Z " fill="#000000"/><text fill="#000000" font-family="sans-serif" font-size="14" lengthAdjust="spacing" textLength="109.3682" x="807.5" y="135.8467">MaterialSample</text><line style="stroke:#181818;stroke-width:0.5;" x1="779.5" x2="918.8682" y1="147" y2="147"/><line style="stroke:#181818;stroke-width:0.5;" x1="779.5" x2="918.8682" y1="155" y2="155"/></g><!--class ObservableProperty--><g class="entity" data-qualified-name="ObservableProperty" data-source-line="3" id="ent0008"><rect fill="#F1F1F1" height="48" rx="2.5" ry="2.5" style="stroke:#181818;stroke-width:0.5;" width="171.6172" x="571" y="115"/><ellipse cx="586" cy="131" fill="#ADD1B2" rx="11" ry="11" style="stroke:#181818;stroke-width:1;"/><path d="M588.9688,136.6406 Q588.3906,136.9375 587.75,137.0781 Q587.1094,137.2344 586.4063,137.2344 Q583.9063,137.2344 582.5781,135.5938 Q581.2656,133.9375 581.2656,130.8125 Q581.2656,127.6875 582.5781,126.0313 Q583.9063,124.375 586.4063,124.375 Q587.1094,124.375 587.75,124.5313 Q588.4063,124.6875 588.9688,124.9844 L588.9688,127.7031 Q588.3438,127.125 587.75,126.8594 Q587.1563,126.5781 586.5313,126.5781 Q585.1875,126.5781 584.5,127.6563 Q583.8125,128.7188 583.8125,130.8125 Q583.8125,132.9063 584.5,133.9844 Q585.1875,135.0469 586.5313,135.0469 Q587.1563,135.0469 587.75,134.7813 Q588.3438,134.5 588.9688,133.9219 L588.9688,136.6406 Z " fill="#000000"/><text fill="#000000" font-family="sans-serif" font-size="14" lengthAdjust="spacing" textLength="139.6172" x="600" y="135.8467">ObservableProperty</text><line style="stroke:#181818;stroke-width:0.5;" x1="572" x2="741.6172" y1="147" y2="147"/><line style="stroke:#181818;stroke-width:0.5;" x1="572" x2="741.6172" y1="155" y2="155"/></g><!--class SpatialSample--><g class="entity" data-qualified-name="SpatialSample" data-source-line="4" id="ent0010"><rect fill="#F1F1F1" height="48" rx="2.5" ry="2.5" style="stroke:#181818;stroke-width:0.5;" width="132.6934" x="954.5" y="115"/><ellipse cx="969.5" cy="131" fill="#ADD1B2" rx="11" ry="11" style="stroke:#181818;stroke-width:1;"/><path d="M972.4688,136.6406 Q971.8906,136.9375 971.25,137.0781 Q970.6094,137.2344 969.9063,137.2344 Q967.4063,137.2344 966.0781,135.5938 Q964.7656,133.9375 964.7656,130.8125 Q964.7656,127.6875 966.0781,126.0313 Q967.4063,124.375 969.9063,124.375 Q970.6094,124.375 971.25,124.5313 Q971.9063,124.6875 972.4688,124.9844 L972.4688,127.7031 Q971.8438,127.125 971.25,126.8594 Q970.6563,126.5781 970.0313,126.5781 Q968.6875,126.5781 968,127.6563 Q967.3125,128.7188 967.3125,130.8125 Q967.3125,132.9063 968,133.9844 Q968.6875,135.0469 970.0313,135.0469 Q970.6563,135.0469 971.25,134.7813 Q971.8438,134.5 972.4688,133.9219 L972.4688,136.6406 Z " fill="#000000"/><text fill="#000000" font-family="sans-serif" font-size="14" lengthAdjust="spacing" textLength="100.6934" x="983.5" y="135.8467">SpatialSample</text><line style="stroke:#181818;stroke-width:0.5;" x1="955.5" x2="1086.1934" y1="147" y2="147"/><line style="stroke:#181818;stroke-width:0.5;" x1="955.5" x2="1086.1934" y1="155" y2="155"/></g><!--class StatisticalSample--><g class="entity" data-qualified-name="StatisticalSample" data-source-line="5" id="ent0012"><rect fill="#F1F1F1" height="48" rx="2.5" ry="2.5" style="stroke:#181818;stroke-width:0.5;" width="153.666" x="1123" y="115"/><ellipse cx="1138" cy="131" fill="#ADD1B2" rx="11" ry="11" style="stroke:#181818;stroke-width:1;"/><path d="M1140.9688,136.6406 Q1140.3906,136.9375 1139.75,137.0781 Q1139.1094,137.2344 1138.4063,137.2344 Q1135.9063,137.2344 1134.5781,135.5938 Q1133.2656,133.9375 1133.2656,130.8125 Q1133.2656,127.6875 1134.5781,126.0313 Q1135.9063,124.375 1138.4063,124.375 Q1139.1094,124.375 1139.75,124.5313 Q1140.4063,124.6875 1140.9688,124.9844 L1140.9688,127.7031 Q1140.3438,127.125 1139.75,126.8594 Q1139.1563,126.5781 1138.5313,126.5781 Q1137.1875,126.5781 1136.5,127.6563 Q1135.8125,128.7188 1135.8125,130.8125 Q1135.8125,132.9063 1136.5,133.9844 Q1137.1875,135.0469 1138.5313,135.0469 Q1139.1563,135.0469 1139.75,134.7813 Q1140.3438,134.5 1140.9688,133.9219 L1140.9688,136.6406 Z " fill="#000000"/><text fill="#000000" font-family="sans-serif" font-size="14" lengthAdjust="spacing" textLength="121.666" x="1152" y="135.8467">StatisticalSample</text><line style="stroke:#181818;stroke-width:0.5;" x1="1124" x2="1275.666" y1="147" y2="147"/><line style="stroke:#181818;stroke-width:0.5;" x1="1124" x2="1275.666" y1="155" y2="155"/></g><!--class Procedure--><g class="entity" data-qualified-name="Procedure" data-source-line="6" id="ent0014"><rect fill="#F1F1F1" height="48" rx="2.5" ry="2.5" style="stroke:#181818;stroke-width:0.5;" width="103.2031" x="1554.5" y="7"/><ellipse cx="1569.5" cy="23" fill="#ADD1B2" rx="11" ry="11" style="stroke:#181818;stroke-width:1;"/><path d="M1572.4688,28.6406 Q1571.8906,28.9375 1571.25,29.0781 Q1570.6094,29.2344 1569.9063,29.2344 Q1567.4063,29.2344 1566.0781,27.5938 Q1564.7656,25.9375 1564.7656,22.8125 Q1564.7656,19.6875 1566.0781,18.0313 Q1567.4063,16.375 1569.9063,16.375 Q1570.6094,16.375 1571.25,16.5313 Q1571.9063,16.6875 1572.4688,16.9844 L1572.4688,19.7031 Q1571.8438,19.125 1571.25,18.8594 Q1570.6563,18.5781 1570.0313,18.5781 Q1568.6875,18.5781 1568,19.6563 Q1567.3125,20.7188 1567.3125,22.8125 Q1567.3125,24.9063 1568,25.9844 Q1568.6875,27.0469 1570.0313,27.0469 Q1570.6563,27.0469 1571.25,26.7813 Q1571.8438,26.5 1572.4688,25.9219 L1572.4688,28.6406 Z " fill="#000000"/><text fill="#000000" font-family="sans-serif" font-size="14" lengthAdjust="spacing" textLength="71.2031" x="1583.5" y="27.8467">Procedure</text><line style="stroke:#181818;stroke-width:0.5;" x1="1555.5" x2="1656.7031" y1="39" y2="39"/><line style="stroke:#181818;stroke-width:0.5;" x1="1555.5" x2="1656.7031" y1="47" y2="47"/></g><!--class ActuatingProcedure--><g class="entity" data-qualified-name="ActuatingProcedure" data-source-line="6" id="ent0015"><rect fill="#F1F1F1" height="48" rx="2.5" ry="2.5" style="stroke:#181818;stroke-width:0.5;" width="170.5576" x="1312.5" y="115"/><ellipse cx="1327.5" cy="131" fill="#ADD1B2" rx="11" ry="11" style="stroke:#181818;stroke-width:1;"/><path d="M1330.4688,136.6406 Q1329.8906,136.9375 1329.25,137.0781 Q1328.6094,137.2344 1327.9063,137.2344 Q1325.4063,137.2344 1324.0781,135.5938 Q1322.7656,133.9375 1322.7656,130.8125 Q1322.7656,127.6875 1324.0781,126.0313 Q1325.4063,124.375 1327.9063,124.375 Q1328.6094,124.375 1329.25,124.5313 Q1329.9063,124.6875 1330.4688,124.9844 L1330.4688,127.7031 Q1329.8438,127.125 1329.25,126.8594 Q1328.6563,126.5781 1328.0313,126.5781 Q1326.6875,126.5781 1326,127.6563 Q1325.3125,128.7188 1325.3125,130.8125 Q1325.3125,132.9063 1326,133.9844 Q1326.6875,135.0469 1328.0313,135.0469 Q1328.6563,135.0469 1329.25,134.7813 Q1329.8438,134.5 1330.4688,133.9219 L1330.4688,136.6406 Z " fill="#000000"/><text fill="#000000" font-family="sans-serif" font-size="14" lengthAdjust="spacing" textLength="138.5576" x="1341.5" y="135.8467">ActuatingProcedure</text><line style="stroke:#181818;stroke-width:0.5;" x1="1313.5" x2="1482.0576" y1="147" y2="147"/><line style="stroke:#181818;stroke-width:0.5;" x1="1313.5" x2="1482.0576" y1="155" y2="155"/></g><!--class ObservingProcedure--><g class="entity" data-qualified-name="ObservingProcedure" data-source-line="7" id="ent0017"><rect fill="#F1F1F1" height="48" rx="2.5" ry="2.5" style="stroke:#181818;stroke-width:0.5;" width="174.707" x="1518.5" y="115"/><ellipse cx="1533.5" cy="131" fill="#ADD1B2" rx="11" ry="11" style="stroke:#181818;stroke-width:1;"/><path d="M1536.4688,136.6406 Q1535.8906,136.9375 1535.25,137.0781 Q1534.6094,137.2344 1533.9063,137.2344 Q1531.4063,137.2344 1530.0781,135.5938 Q1528.7656,133.9375 1528.7656,130.8125 Q1528.7656,127.6875 1530.0781,126.0313 Q1531.4063,124.375 1533.9063,124.375 Q1534.6094,124.375 1535.25,124.5313 Q1535.9063,124.6875 1536.4688,124.9844 L1536.4688,127.7031 Q1535.8438,127.125 1535.25,126.8594 Q1534.6563,126.5781 1534.0313,126.5781 Q1532.6875,126.5781 1532,127.6563 Q1531.3125,128.7188 1531.3125,130.8125 Q1531.3125,132.9063 1532,133.9844 Q1532.6875,135.0469 1534.0313,135.0469 Q1534.6563,135.0469 1535.25,134.7813 Q1535.8438,134.5 1536.4688,133.9219 L1536.4688,136.6406 Z " fill="#000000"/><text fill="#000000" font-family="sans-serif" font-size="14" lengthAdjust="spacing" textLength="142.707" x="1547.5" y="135.8467">ObservingProcedure</text><line style="stroke:#181818;stroke-width:0.5;" x1="1519.5" x2="1692.207" y1="147" y2="147"/><line style="stroke:#181818;stroke-width:0.5;" x1="1519.5" x2="1692.207" y1="155" y2="155"/></g><!--class SamplingProcedure--><g class="entity" data-qualified-name="SamplingProcedure" data-source-line="8" id="ent0019"><rect fill="#F1F1F1" height="48" rx="2.5" ry="2.5" style="stroke:#181818;stroke-width:0.5;" width="168.7324" x="1728.5" y="115"/><ellipse cx="1743.5" cy="131" fill="#ADD1B2" rx="11" ry="11" style="stroke:#181818;stroke-width:1;"/><path d="M1746.4688,136.6406 Q1745.8906,136.9375 1745.25,137.0781 Q1744.6094,137.2344 1743.9063,137.2344 Q1741.4063,137.2344 1740.0781,135.5938 Q1738.7656,133.9375 1738.7656,130.8125 Q1738.7656,127.6875 1740.0781,126.0313 Q1741.4063,124.375 1743.9063,124.375 Q1744.6094,124.375 1745.25,124.5313 Q1745.9063,124.6875 1746.4688,124.9844 L1746.4688,127.7031 Q1745.8438,127.125 1745.25,126.8594 Q1744.6563,126.5781 1744.0313,126.5781 Q1742.6875,126.5781 1742,127.6563 Q1741.3125,128.7188 1741.3125,130.8125 Q1741.3125,132.9063 1742,133.9844 Q1742.6875,135.0469 1744.0313,135.0469 Q1744.6563,135.0469 1745.25,134.7813 Q1745.8438,134.5 1746.4688,133.9219 L1746.4688,136.6406 Z " fill="#000000"/><text fill="#000000" font-family="sans-serif" font-size="14" lengthAdjust="spacing" textLength="136.7324" x="1757.5" y="135.8467">SamplingProcedure</text><line style="stroke:#181818;stroke-width:0.5;" x1="1729.5" x2="1896.2324" y1="147" y2="147"/><line style="stroke:#181818;stroke-width:0.5;" x1="1729.5" x2="1896.2324" y1="155" y2="155"/></g><!--class Asset--><g class="entity" data-qualified-name="Asset" data-source-line="9" id="ent0021"><rect fill="#F1F1F1" height="48" rx="2.5" ry="2.5" style="stroke:#181818;stroke-width:0.5;" width="70.2676" x="2004" y="7"/><ellipse cx="2019" cy="23" fill="#ADD1B2" rx="11" ry="11" style="stroke:#181818;stroke-width:1;"/><path d="M2021.9688,28.6406 Q2021.3906,28.9375 2020.75,29.0781 Q2020.1094,29.2344 2019.4063,29.2344 Q2016.9063,29.2344 2015.5781,27.5938 Q2014.2656,25.9375 2014.2656,22.8125 Q2014.2656,19.6875 2015.5781,18.0313 Q2016.9063,16.375 2019.4063,16.375 Q2020.1094,16.375 2020.75,16.5313 Q2021.4063,16.6875 2021.9688,16.9844 L2021.9688,19.7031 Q2021.3438,19.125 2020.75,18.8594 Q2020.1563,18.5781 2019.5313,18.5781 Q2018.1875,18.5781 2017.5,19.6563 Q2016.8125,20.7188 2016.8125,22.8125 Q2016.8125,24.9063 2017.5,25.9844 Q2018.1875,27.0469 2019.5313,27.0469 Q2020.1563,27.0469 2020.75,26.7813 Q2021.3438,26.5 2021.9688,25.9219 L2021.9688,28.6406 Z " fill="#000000"/><text fill="#000000" font-family="sans-serif" font-size="14" lengthAdjust="spacing" textLength="38.2676" x="2033" y="27.8467">Asset</text><line style="stroke:#181818;stroke-width:0.5;" x1="2005" x2="2073.2676" y1="39" y2="39"/><line style="stroke:#181818;stroke-width:0.5;" x1="2005" x2="2073.2676" y1="47" y2="47"/></g><!--class Platform--><g class="entity" data-qualified-name="Platform" data-source-line="9" id="ent0022"><rect fill="#F1F1F1" height="48" rx="2.5" ry="2.5" style="stroke:#181818;stroke-width:0.5;" width="91.2881" x="1932.5" y="115"/><ellipse cx="1947.5" cy="131" fill="#ADD1B2" rx="11" ry="11" style="stroke:#181818;stroke-width:1;"/><path d="M1950.4688,136.6406 Q1949.8906,136.9375 1949.25,137.0781 Q1948.6094,137.2344 1947.9063,137.2344 Q1945.4063,137.2344 1944.0781,135.5938 Q1942.7656,133.9375 1942.7656,130.8125 Q1942.7656,127.6875 1944.0781,126.0313 Q1945.4063,124.375 1947.9063,124.375 Q1948.6094,124.375 1949.25,124.5313 Q1949.9063,124.6875 1950.4688,124.9844 L1950.4688,127.7031 Q1949.8438,127.125 1949.25,126.8594 Q1948.6563,126.5781 1948.0313,126.5781 Q1946.6875,126.5781 1946,127.6563 Q1945.3125,128.7188 1945.3125,130.8125 Q1945.3125,132.9063 1946,133.9844 Q1946.6875,135.0469 1948.0313,135.0469 Q1948.6563,135.0469 1949.25,134.7813 Q1949.8438,134.5 1950.4688,133.9219 L1950.4688,136.6406 Z " fill="#000000"/><text fill="#000000" font-family="sans-serif" font-size="14" lengthAdjust="spacing" textLength="59.2881" x="1961.5" y="135.8467">Platform</text><line style="stroke:#181818;stroke-width:0.5;" x1="1933.5" x2="2022.7881" y1="147" y2="147"/><line style="stroke:#181818;stroke-width:0.5;" x1="1933.5" x2="2022.7881" y1="155" y2="155"/></g><!--class System--><g class="entity" data-qualified-name="System" data-source-line="10" id="ent0024"><rect fill="#F1F1F1" height="48" rx="2.5" ry="2.5" style="stroke:#181818;stroke-width:0.5;" width="84.2061" x="2059" y="115"/><ellipse cx="2074" cy="131" fill="#ADD1B2" rx="11" ry="11" style="stroke:#181818;stroke-width:1;"/><path d="M2076.9688,136.6406 Q2076.3906,136.9375 2075.75,137.0781 Q2075.1094,137.2344 2074.4063,137.2344 Q2071.9063,137.2344 2070.5781,135.5938 Q2069.2656,133.9375 2069.2656,130.8125 Q2069.2656,127.6875 2070.5781,126.0313 Q2071.9063,124.375 2074.4063,124.375 Q2075.1094,124.375 2075.75,124.5313 Q2076.4063,124.6875 2076.9688,124.9844 L2076.9688,127.7031 Q2076.3438,127.125 2075.75,126.8594 Q2075.1563,126.5781 2074.5313,126.5781 Q2073.1875,126.5781 2072.5,127.6563 Q2071.8125,128.7188 2071.8125,130.8125 Q2071.8125,132.9063 2072.5,133.9844 Q2073.1875,135.0469 2074.5313,135.0469 Q2075.1563,135.0469 2075.75,134.7813 Q2076.3438,134.5 2076.9688,133.9219 L2076.9688,136.6406 Z " fill="#000000"/><text fill="#000000" font-family="sans-serif" font-size="14" lengthAdjust="spacing" textLength="52.2061" x="2088" y="135.8467">System</text><line style="stroke:#181818;stroke-width:0.5;" x1="2060" x2="2142.2061" y1="147" y2="147"/><line style="stroke:#181818;stroke-width:0.5;" x1="2060" x2="2142.2061" y1="155" y2="155"/></g><!--class Sampler--><g class="entity" data-qualified-name="Sampler" data-source-line="10" id="ent0025"><rect fill="#F1F1F1" height="48" rx="2.5" ry="2.5" style="stroke:#181818;stroke-width:0.5;" width="90.249" x="1930" y="223"/><ellipse cx="1945" cy="239" fill="#ADD1B2" rx="11" ry="11" style="stroke:#181818;stroke-width:1;"/><path d="M1947.9688,244.6406 Q1947.3906,244.9375 1946.75,245.0781 Q1946.1094,245.2344 1945.4063,245.2344 Q1942.9063,245.2344 1941.5781,243.5938 Q1940.2656,241.9375 1940.2656,238.8125 Q1940.2656,235.6875 1941.5781,234.0313 Q1942.9063,232.375 1945.4063,232.375 Q1946.1094,232.375 1946.75,232.5313 Q1947.4063,232.6875 1947.9688,232.9844 L1947.9688,235.7031 Q1947.3438,235.125 1946.75,234.8594 Q1946.1563,234.5781 1945.5313,234.5781 Q1944.1875,234.5781 1943.5,235.6563 Q1942.8125,236.7188 1942.8125,238.8125 Q1942.8125,240.9063 1943.5,241.9844 Q1944.1875,243.0469 1945.5313,243.0469 Q1946.1563,243.0469 1946.75,242.7813 Q1947.3438,242.5 1947.9688,241.9219 L1947.9688,244.6406 Z " fill="#000000"/><text fill="#000000" font-family="sans-serif" font-size="14" lengthAdjust="spacing" textLength="58.249" x="1959" y="243.8467">Sampler</text><line style="stroke:#181818;stroke-width:0.5;" x1="1931" x2="2019.249" y1="255" y2="255"/><line style="stroke:#181818;stroke-width:0.5;" x1="1931" x2="2019.249" y1="263" y2="263"/></g><!--class Actuator--><g class="entity" data-qualified-name="Actuator" data-source-line="11" id="ent0027"><rect fill="#F1F1F1" height="48" rx="2.5" ry="2.5" style="stroke:#181818;stroke-width:0.5;" width="92.0264" x="2055" y="223"/><ellipse cx="2070" cy="239" fill="#ADD1B2" rx="11" ry="11" style="stroke:#181818;stroke-width:1;"/><path d="M2072.9688,244.6406 Q2072.3906,244.9375 2071.75,245.0781 Q2071.1094,245.2344 2070.4063,245.2344 Q2067.9063,245.2344 2066.5781,243.5938 Q2065.2656,241.9375 2065.2656,238.8125 Q2065.2656,235.6875 2066.5781,234.0313 Q2067.9063,232.375 2070.4063,232.375 Q2071.1094,232.375 2071.75,232.5313 Q2072.4063,232.6875 2072.9688,232.9844 L2072.9688,235.7031 Q2072.3438,235.125 2071.75,234.8594 Q2071.1563,234.5781 2070.5313,234.5781 Q2069.1875,234.5781 2068.5,235.6563 Q2067.8125,236.7188 2067.8125,238.8125 Q2067.8125,240.9063 2068.5,241.9844 Q2069.1875,243.0469 2070.5313,243.0469 Q2071.1563,243.0469 2071.75,242.7813 Q2072.3438,242.5 2072.9688,241.9219 L2072.9688,244.6406 Z " fill="#000000"/><text fill="#000000" font-family="sans-serif" font-size="14" lengthAdjust="spacing" textLength="60.0264" x="2084" y="243.8467">Actuator</text><line style="stroke:#181818;stroke-width:0.5;" x1="2056" x2="2146.0264" y1="255" y2="255"/><line style="stroke:#181818;stroke-width:0.5;" x1="2056" x2="2146.0264" y1="263" y2="263"/></g><!--class ExecutionCollection--><g class="entity" data-qualified-name="ExecutionCollection" data-source-line="12" id="ent0029"><rect fill="#F1F1F1" height="48" rx="2.5" ry="2.5" style="stroke:#181818;stroke-width:0.5;" width="170.3799" x="2379" y="7"/><ellipse cx="2394" cy="23" fill="#ADD1B2" rx="11" ry="11" style="stroke:#181818;stroke-width:1;"/><path d="M2396.9688,28.6406 Q2396.3906,28.9375 2395.75,29.0781 Q2395.1094,29.2344 2394.4063,29.2344 Q2391.9063,29.2344 2390.5781,27.5938 Q2389.2656,25.9375 2389.2656,22.8125 Q2389.2656,19.6875 2390.5781,18.0313 Q2391.9063,16.375 2394.4063,16.375 Q2395.1094,16.375 2395.75,16.5313 Q2396.4063,16.6875 2396.9688,16.9844 L2396.9688,19.7031 Q2396.3438,19.125 2395.75,18.8594 Q2395.1563,18.5781 2394.5313,18.5781 Q2393.1875,18.5781 2392.5,19.6563 Q2391.8125,20.7188 2391.8125,22.8125 Q2391.8125,24.9063 2392.5,25.9844 Q2393.1875,27.0469 2394.5313,27.0469 Q2395.1563,27.0469 2395.75,26.7813 Q2396.3438,26.5 2396.9688,25.9219 L2396.9688,28.6406 Z " fill="#000000"/><text fill="#000000" font-family="sans-serif" font-size="14" lengthAdjust="spacing" textLength="138.3799" x="2408" y="27.8467">ExecutionCollection</text><line style="stroke:#181818;stroke-width:0.5;" x1="2380" x2="2548.3799" y1="39" y2="39"/><line style="stroke:#181818;stroke-width:0.5;" x1="2380" x2="2548.3799" y1="47" y2="47"/></g><!--class SamplingCollection--><g class="entity" data-qualified-name="SamplingCollection" data-source-line="12" id="ent0030"><rect fill="#F1F1F1" height="48" rx="2.5" ry="2.5" style="stroke:#181818;stroke-width:0.5;" width="166.7773" x="2178.5" y="115"/><ellipse cx="2193.5" cy="131" fill="#ADD1B2" rx="11" ry="11" style="stroke:#181818;stroke-width:1;"/><path d="M2196.4688,136.6406 Q2195.8906,136.9375 2195.25,137.0781 Q2194.6094,137.2344 2193.9063,137.2344 Q2191.4063,137.2344 2190.0781,135.5938 Q2188.7656,133.9375 2188.7656,130.8125 Q2188.7656,127.6875 2190.0781,126.0313 Q2191.4063,124.375 2193.9063,124.375 Q2194.6094,124.375 2195.25,124.5313 Q2195.9063,124.6875 2196.4688,124.9844 L2196.4688,127.7031 Q2195.8438,127.125 2195.25,126.8594 Q2194.6563,126.5781 2194.0313,126.5781 Q2192.6875,126.5781 2192,127.6563 Q2191.3125,128.7188 2191.3125,130.8125 Q2191.3125,132.9063 2192,133.9844 Q2192.6875,135.0469 2194.0313,135.0469 Q2194.6563,135.0469 2195.25,134.7813 Q2195.8438,134.5 2196.4688,133.9219 L2196.4688,136.6406 Z " fill="#000000"/><text fill="#000000" font-family="sans-serif" font-size="14" lengthAdjust="spacing" textLength="134.7773" x="2207.5" y="135.8467">SamplingCollection</text><line style="stroke:#181818;stroke-width:0.5;" x1="2179.5" x2="2344.2773" y1="147" y2="147"/><line style="stroke:#181818;stroke-width:0.5;" x1="2179.5" x2="2344.2773" y1="155" y2="155"/></g><!--class Sensor--><g class="entity" data-qualified-name="Sensor" data-source-line="14" id="ent0033"><rect fill="#F1F1F1" height="48" rx="2.5" ry="2.5" style="stroke:#181818;stroke-width:0.5;" width="79.9883" x="2182" y="223"/><ellipse cx="2197" cy="239" fill="#ADD1B2" rx="11" ry="11" style="stroke:#181818;stroke-width:1;"/><path d="M2199.9688,244.6406 Q2199.3906,244.9375 2198.75,245.0781 Q2198.1094,245.2344 2197.4063,245.2344 Q2194.9063,245.2344 2193.5781,243.5938 Q2192.2656,241.9375 2192.2656,238.8125 Q2192.2656,235.6875 2193.5781,234.0313 Q2194.9063,232.375 2197.4063,232.375 Q2198.1094,232.375 2198.75,232.5313 Q2199.4063,232.6875 2199.9688,232.9844 L2199.9688,235.7031 Q2199.3438,235.125 2198.75,234.8594 Q2198.1563,234.5781 2197.5313,234.5781 Q2196.1875,234.5781 2195.5,235.6563 Q2194.8125,236.7188 2194.8125,238.8125 Q2194.8125,240.9063 2195.5,241.9844 Q2196.1875,243.0469 2197.5313,243.0469 Q2198.1563,243.0469 2198.75,242.7813 Q2199.3438,242.5 2199.9688,241.9219 L2199.9688,244.6406 Z " fill="#000000"/><text fill="#000000" font-family="sans-serif" font-size="14" lengthAdjust="spacing" textLength="47.9883" x="2211" y="243.8467">Sensor</text><line style="stroke:#181818;stroke-width:0.5;" x1="2183" x2="2260.9883" y1="255" y2="255"/><line style="stroke:#181818;stroke-width:0.5;" x1="2183" x2="2260.9883" y1="263" y2="263"/></g><!--class Execution--><g class="entity" data-qualified-name="Execution" data-source-line="15" id="ent0035"><rect fill="#F1F1F1" height="48" rx="2.5" ry="2.5" style="stroke:#181818;stroke-width:0.5;" width="101.1318" x="2936.5" y="7"/><ellipse cx="2951.5" cy="23" fill="#ADD1B2" rx="11" ry="11" style="stroke:#181818;stroke-width:1;"/><path d="M2954.4688,28.6406 Q2953.8906,28.9375 2953.25,29.0781 Q2952.6094,29.2344 2951.9063,29.2344 Q2949.4063,29.2344 2948.0781,27.5938 Q2946.7656,25.9375 2946.7656,22.8125 Q2946.7656,19.6875 2948.0781,18.0313 Q2949.4063,16.375 2951.9063,16.375 Q2952.6094,16.375 2953.25,16.5313 Q2953.9063,16.6875 2954.4688,16.9844 L2954.4688,19.7031 Q2953.8438,19.125 2953.25,18.8594 Q2952.6563,18.5781 2952.0313,18.5781 Q2950.6875,18.5781 2950,19.6563 Q2949.3125,20.7188 2949.3125,22.8125 Q2949.3125,24.9063 2950,25.9844 Q2950.6875,27.0469 2952.0313,27.0469 Q2952.6563,27.0469 2953.25,26.7813 Q2953.8438,26.5 2954.4688,25.9219 L2954.4688,28.6406 Z " fill="#000000"/><text fill="#000000" font-family="sans-serif" font-size="14" lengthAdjust="spacing" textLength="69.1318" x="2965.5" y="27.8467">Execution</text><line style="stroke:#181818;stroke-width:0.5;" x1="2937.5" x2="3036.6318" y1="39" y2="39"/><line style="stroke:#181818;stroke-width:0.5;" x1="2937.5" x2="3036.6318" y1="47" y2="47"/></g><!--class Sampling--><g class="entity" data-qualified-name="Sampling" data-source-line="15" id="ent0036"><rect fill="#F1F1F1" height="48" rx="2.5" ry="2.5" style="stroke:#181818;stroke-width:0.5;" width="97.5293" x="2804" y="115"/><ellipse cx="2819" cy="131" fill="#ADD1B2" rx="11" ry="11" style="stroke:#181818;stroke-width:1;"/><path d="M2821.9688,136.6406 Q2821.3906,136.9375 2820.75,137.0781 Q2820.1094,137.2344 2819.4063,137.2344 Q2816.9063,137.2344 2815.5781,135.5938 Q2814.2656,133.9375 2814.2656,130.8125 Q2814.2656,127.6875 2815.5781,126.0313 Q2816.9063,124.375 2819.4063,124.375 Q2820.1094,124.375 2820.75,124.5313 Q2821.4063,124.6875 2821.9688,124.9844 L2821.9688,127.7031 Q2821.3438,127.125 2820.75,126.8594 Q2820.1563,126.5781 2819.5313,126.5781 Q2818.1875,126.5781 2817.5,127.6563 Q2816.8125,128.7188 2816.8125,130.8125 Q2816.8125,132.9063 2817.5,133.9844 Q2818.1875,135.0469 2819.5313,135.0469 Q2820.1563,135.0469 2820.75,134.7813 Q2821.3438,134.5 2821.9688,133.9219 L2821.9688,136.6406 Z " fill="#000000"/><text fill="#000000" font-family="sans-serif" font-size="14" lengthAdjust="spacing" textLength="65.5293" x="2833" y="135.8467">Sampling</text><line style="stroke:#181818;stroke-width:0.5;" x1="2805" x2="2900.5293" y1="147" y2="147"/><line style="stroke:#181818;stroke-width:0.5;" x1="2805" x2="2900.5293" y1="155" y2="155"/></g><!--class Actuation--><g class="entity" data-qualified-name="Actuation" data-source-line="16" id="ent0038"><rect fill="#F1F1F1" height="48" rx="2.5" ry="2.5" style="stroke:#181818;stroke-width:0.5;" width="99.0332" x="2937.5" y="115"/><ellipse cx="2952.5" cy="131" fill="#ADD1B2" rx="11" ry="11" style="stroke:#181818;stroke-width:1;"/><path d="M2955.4688,136.6406 Q2954.8906,136.9375 2954.25,137.0781 Q2953.6094,137.2344 2952.9063,137.2344 Q2950.4063,137.2344 2949.0781,135.5938 Q2947.7656,133.9375 2947.7656,130.8125 Q2947.7656,127.6875 2949.0781,126.0313 Q2950.4063,124.375 2952.9063,124.375 Q2953.6094,124.375 2954.25,124.5313 Q2954.9063,124.6875 2955.4688,124.9844 L2955.4688,127.7031 Q2954.8438,127.125 2954.25,126.8594 Q2953.6563,126.5781 2953.0313,126.5781 Q2951.6875,126.5781 2951,127.6563 Q2950.3125,128.7188 2950.3125,130.8125 Q2950.3125,132.9063 2951,133.9844 Q2951.6875,135.0469 2953.0313,135.0469 Q2953.6563,135.0469 2954.25,134.7813 Q2954.8438,134.5 2955.4688,133.9219 L2955.4688,136.6406 Z " fill="#000000"/><text fill="#000000" font-family="sans-serif" font-size="14" lengthAdjust="spacing" textLength="67.0332" x="2966.5" y="135.8467">Actuation</text><line style="stroke:#181818;stroke-width:0.5;" x1="2938.5" x2="3035.5332" y1="147" y2="147"/><line style="stroke:#181818;stroke-width:0.5;" x1="2938.5" x2="3035.5332" y1="155" y2="155"/></g><!--class ActuationCollection--><g class="entity" data-qualified-name="ActuationCollection" data-source-line="17" id="ent0040"><rect fill="#F1F1F1" height="48" rx="2.5" ry="2.5" style="stroke:#181818;stroke-width:0.5;" width="168.2813" x="2380" y="115"/><ellipse cx="2395" cy="131" fill="#ADD1B2" rx="11" ry="11" style="stroke:#181818;stroke-width:1;"/><path d="M2397.9688,136.6406 Q2397.3906,136.9375 2396.75,137.0781 Q2396.1094,137.2344 2395.4063,137.2344 Q2392.9063,137.2344 2391.5781,135.5938 Q2390.2656,133.9375 2390.2656,130.8125 Q2390.2656,127.6875 2391.5781,126.0313 Q2392.9063,124.375 2395.4063,124.375 Q2396.1094,124.375 2396.75,124.5313 Q2397.4063,124.6875 2397.9688,124.9844 L2397.9688,127.7031 Q2397.3438,127.125 2396.75,126.8594 Q2396.1563,126.5781 2395.5313,126.5781 Q2394.1875,126.5781 2393.5,127.6563 Q2392.8125,128.7188 2392.8125,130.8125 Q2392.8125,132.9063 2393.5,133.9844 Q2394.1875,135.0469 2395.5313,135.0469 Q2396.1563,135.0469 2396.75,134.7813 Q2397.3438,134.5 2397.9688,133.9219 L2397.9688,136.6406 Z " fill="#000000"/><text fill="#000000" font-family="sans-serif" font-size="14" lengthAdjust="spacing" textLength="136.2813" x="2409" y="135.8467">ActuationCollection</text><line style="stroke:#181818;stroke-width:0.5;" x1="2381" x2="2547.2813" y1="147" y2="147"/><line style="stroke:#181818;stroke-width:0.5;" x1="2381" x2="2547.2813" y1="155" y2="155"/></g><!--class ObservationCollection--><g class="entity" data-qualified-name="ObservationCollection" data-source-line="18" id="ent0042"><rect fill="#F1F1F1" height="48" rx="2.5" ry="2.5" style="stroke:#181818;stroke-width:0.5;" width="186.499" x="2583" y="115"/><ellipse cx="2598" cy="131" fill="#ADD1B2" rx="11" ry="11" style="stroke:#181818;stroke-width:1;"/><path d="M2600.9688,136.6406 Q2600.3906,136.9375 2599.75,137.0781 Q2599.1094,137.2344 2598.4063,137.2344 Q2595.9063,137.2344 2594.5781,135.5938 Q2593.2656,133.9375 2593.2656,130.8125 Q2593.2656,127.6875 2594.5781,126.0313 Q2595.9063,124.375 2598.4063,124.375 Q2599.1094,124.375 2599.75,124.5313 Q2600.4063,124.6875 2600.9688,124.9844 L2600.9688,127.7031 Q2600.3438,127.125 2599.75,126.8594 Q2599.1563,126.5781 2598.5313,126.5781 Q2597.1875,126.5781 2596.5,127.6563 Q2595.8125,128.7188 2595.8125,130.8125 Q2595.8125,132.9063 2596.5,133.9844 Q2597.1875,135.0469 2598.5313,135.0469 Q2599.1563,135.0469 2599.75,134.7813 Q2600.3438,134.5 2600.9688,133.9219 L2600.9688,136.6406 Z " fill="#000000"/><text fill="#000000" font-family="sans-serif" font-size="14" lengthAdjust="spacing" textLength="154.499" x="2612" y="135.8467">ObservationCollection</text><line style="stroke:#181818;stroke-width:0.5;" x1="2584" x2="2768.499" y1="147" y2="147"/><line style="stroke:#181818;stroke-width:0.5;" x1="2584" x2="2768.499" y1="155" y2="155"/></g><!--class Observation--><g class="entity" data-qualified-name="Observation" data-source-line="19" id="ent0044"><rect fill="#F1F1F1" height="48" rx="2.5" ry="2.5" style="stroke:#181818;stroke-width:0.5;" width="117.251" x="3071.5" y="115"/><ellipse cx="3086.5" cy="131" fill="#ADD1B2" rx="11" ry="11" style="stroke:#181818;stroke-width:1;"/><path d="M3089.4688,136.6406 Q3088.8906,136.9375 3088.25,137.0781 Q3087.6094,137.2344 3086.9063,137.2344 Q3084.4063,137.2344 3083.0781,135.5938 Q3081.7656,133.9375 3081.7656,130.8125 Q3081.7656,127.6875 3083.0781,126.0313 Q3084.4063,124.375 3086.9063,124.375 Q3087.6094,124.375 3088.25,124.5313 Q3088.9063,124.6875 3089.4688,124.9844 L3089.4688,127.7031 Q3088.8438,127.125 3088.25,126.8594 Q3087.6563,126.5781 3087.0313,126.5781 Q3085.6875,126.5781 3085,127.6563 Q3084.3125,128.7188 3084.3125,130.8125 Q3084.3125,132.9063 3085,133.9844 Q3085.6875,135.0469 3087.0313,135.0469 Q3087.6563,135.0469 3088.25,134.7813 Q3088.8438,134.5 3089.4688,133.9219 L3089.4688,136.6406 Z " fill="#000000"/><text fill="#000000" font-family="sans-serif" font-size="14" lengthAdjust="spacing" textLength="85.251" x="3100.5" y="135.8467">Observation</text><line style="stroke:#181818;stroke-width:0.5;" x1="3072.5" x2="3187.751" y1="147" y2="147"/><line style="stroke:#181818;stroke-width:0.5;" x1="3072.5" x2="3187.751" y1="155" y2="155"/></g><!--class FeatureOfInterest--><g class="entity" data-qualified-name="FeatureOfInterest" data-source-line="20" id="ent0046"><rect fill="#F1F1F1" height="48" rx="2.5" ry="2.5" style="stroke:#181818;stroke-width:0.5;" width="156.1816" x="7" y="7"/><ellipse cx="22" cy="23" fill="#ADD1B2" rx="11" ry="11" style="stroke:#181818;stroke-width:1;"/><path d="M24.9688,28.6406 Q24.3906,28.9375 23.75,29.0781 Q23.1094,29.2344 22.4063,29.2344 Q19.9063,29.2344 18.5781,27.5938 Q17.2656,25.9375 17.2656,22.8125 Q17.2656,19.6875 18.5781,18.0313 Q19.9063,16.375 22.4063,16.375 Q23.1094,16.375 23.75,16.5313 Q24.4063,16.6875 24.9688,16.9844 L24.9688,19.7031 Q24.3438,19.125 23.75,18.8594 Q23.1563,18.5781 22.5313,18.5781 Q21.1875,18.5781 20.5,19.6563 Q19.8125,20.7188 19.8125,22.8125 Q19.8125,24.9063 20.5,25.9844 Q21.1875,27.0469 22.5313,27.0469 Q23.1563,27.0469 23.75,26.7813 Q24.3438,26.5 24.9688,25.9219 L24.9688,28.6406 Z " fill="#000000"/><text fill="#000000" font-family="sans-serif" font-size="14" lengthAdjust="spacing" textLength="124.1816" x="36" y="27.8467">FeatureOfInterest</text><line style="stroke:#181818;stroke-width:0.5;" x1="8" x2="162.1816" y1="39" y2="39"/><line style="stroke:#181818;stroke-width:0.5;" x1="8" x2="162.1816" y1="47" y2="47"/></g><!--class Result--><g class="entity" data-qualified-name="Result" data-source-line="21" id="ent0047"><rect fill="#F1F1F1" height="48" rx="2.5" ry="2.5" style="stroke:#181818;stroke-width:0.5;" width="75.8867" x="198" y="7"/><ellipse cx="213" cy="23" fill="#ADD1B2" rx="11" ry="11" style="stroke:#181818;stroke-width:1;"/><path d="M215.9688,28.6406 Q215.3906,28.9375 214.75,29.0781 Q214.1094,29.2344 213.4063,29.2344 Q210.9063,29.2344 209.5781,27.5938 Q208.2656,25.9375 208.2656,22.8125 Q208.2656,19.6875 209.5781,18.0313 Q210.9063,16.375 213.4063,16.375 Q214.1094,16.375 214.75,16.5313 Q215.4063,16.6875 215.9688,16.9844 L215.9688,19.7031 Q215.3438,19.125 214.75,18.8594 Q214.1563,18.5781 213.5313,18.5781 Q212.1875,18.5781 211.5,19.6563 Q210.8125,20.7188 210.8125,22.8125 Q210.8125,24.9063 211.5,25.9844 Q212.1875,27.0469 213.5313,27.0469 Q214.1563,27.0469 214.75,26.7813 Q215.3438,26.5 215.9688,25.9219 L215.9688,28.6406 Z " fill="#000000"/><text fill="#000000" font-family="sans-serif" font-size="14" lengthAdjust="spacing" textLength="43.8867" x="227" y="27.8467">Result</text><line style="stroke:#181818;stroke-width:0.5;" x1="199" x2="272.8867" y1="39" y2="39"/><line style="stroke:#181818;stroke-width:0.5;" x1="199" x2="272.8867" y1="47" y2="47"/></g><!--class Stimulus--><g class="entity" data-qualified-name="Stimulus" data-source-line="22" id="ent0048"><rect fill="#F1F1F1" height="48" rx="2.5" ry="2.5" style="stroke:#181818;stroke-width:0.5;" width="92.833" x="309.5" y="7"/><ellipse cx="324.5" cy="23" fill="#ADD1B2" rx="11" ry="11" style="stroke:#181818;stroke-width:1;"/><path d="M327.4688,28.6406 Q326.8906,28.9375 326.25,29.0781 Q325.6094,29.2344 324.9063,29.2344 Q322.4063,29.2344 321.0781,27.5938 Q319.7656,25.9375 319.7656,22.8125 Q319.7656,19.6875 321.0781,18.0313 Q322.4063,16.375 324.9063,16.375 Q325.6094,16.375 326.25,16.5313 Q326.9063,16.6875 327.4688,16.9844 L327.4688,19.7031 Q326.8438,19.125 326.25,18.8594 Q325.6563,18.5781 325.0313,18.5781 Q323.6875,18.5781 323,19.6563 Q322.3125,20.7188 322.3125,22.8125 Q322.3125,24.9063 323,25.9844 Q323.6875,27.0469 325.0313,27.0469 Q325.6563,27.0469 326.25,26.7813 Q326.8438,26.5 327.4688,25.9219 L327.4688,28.6406 Z " fill="#000000"/><text fill="#000000" font-family="sans-serif" font-size="14" lengthAdjust="spacing" textLength="60.833" x="338.5" y="27.8467">Stimulus</text><line style="stroke:#181818;stroke-width:0.5;" x1="310.5" x2="401.333" y1="39" y2="39"/><line style="stroke:#181818;stroke-width:0.5;" x1="310.5" x2="401.333" y1="47" y2="47"/></g><!--class Deployment--><g class="entity" data-qualified-name="Deployment" data-source-line="23" id="ent0049"><rect fill="#F1F1F1" height="48" rx="2.5" ry="2.5" style="stroke:#181818;stroke-width:0.5;" width="117.6338" x="26" y="115"/><ellipse cx="41" cy="131" fill="#ADD1B2" rx="11" ry="11" style="stroke:#181818;stroke-width:1;"/><path d="M43.9688,136.6406 Q43.3906,136.9375 42.75,137.0781 Q42.1094,137.2344 41.4063,137.2344 Q38.9063,137.2344 37.5781,135.5938 Q36.2656,133.9375 36.2656,130.8125 Q36.2656,127.6875 37.5781,126.0313 Q38.9063,124.375 41.4063,124.375 Q42.1094,124.375 42.75,124.5313 Q43.4063,124.6875 43.9688,124.9844 L43.9688,127.7031 Q43.3438,127.125 42.75,126.8594 Q42.1563,126.5781 41.5313,126.5781 Q40.1875,126.5781 39.5,127.6563 Q38.8125,128.7188 38.8125,130.8125 Q38.8125,132.9063 39.5,133.9844 Q40.1875,135.0469 41.5313,135.0469 Q42.1563,135.0469 42.75,134.7813 Q43.3438,134.5 43.9688,133.9219 L43.9688,136.6406 Z " fill="#000000"/><text fill="#000000" font-family="sans-serif" font-size="14" lengthAdjust="spacing" textLength="85.6338" x="55" y="135.8467">Deployment</text><line style="stroke:#181818;stroke-width:0.5;" x1="27" x2="142.6338" y1="147" y2="147"/><line style="stroke:#181818;stroke-width:0.5;" x1="27" x2="142.6338" y1="155" y2="155"/></g><!--class SampleCollection--><g class="entity" data-qualified-name="SampleCollection" data-source-line="24" id="ent0050"><rect fill="#F1F1F1" height="48" rx="2.5" ry="2.5" style="stroke:#181818;stroke-width:0.5;" width="153.7412" x="179" y="115"/><ellipse cx="194" cy="131" fill="#ADD1B2" rx="11" ry="11" style="stroke:#181818;stroke-width:1;"/><path d="M196.9688,136.6406 Q196.3906,136.9375 195.75,137.0781 Q195.1094,137.2344 194.4063,137.2344 Q191.9063,137.2344 190.5781,135.5938 Q189.2656,133.9375 189.2656,130.8125 Q189.2656,127.6875 190.5781,126.0313 Q191.9063,124.375 194.4063,124.375 Q195.1094,124.375 195.75,124.5313 Q196.4063,124.6875 196.9688,124.9844 L196.9688,127.7031 Q196.3438,127.125 195.75,126.8594 Q195.1563,126.5781 194.5313,126.5781 Q193.1875,126.5781 192.5,127.6563 Q191.8125,128.7188 191.8125,130.8125 Q191.8125,132.9063 192.5,133.9844 Q193.1875,135.0469 194.5313,135.0469 Q195.1563,135.0469 195.75,134.7813 Q196.3438,134.5 196.9688,133.9219 L196.9688,136.6406 Z " fill="#000000"/><text fill="#000000" font-family="sans-serif" font-size="14" lengthAdjust="spacing" textLength="121.7412" x="208" y="135.8467">SampleCollection</text><line style="stroke:#181818;stroke-width:0.5;" x1="180" x2="331.7412" y1="147" y2="147"/><line style="stroke:#181818;stroke-width:0.5;" x1="180" x2="331.7412" y1="155" y2="155"/></g><!--reverse link Property to ActuatableProperty--><g class="link" data-entity-1="ent0002" data-entity-2="ent0003" data-link-type="extension" data-source-line="1" id="lnk4"><path codeLine="1" d="M531.7409,66.9745 C511.9209,84.6345 498.09,96.94 478.18,114.68" fill="none" id="Property-backto-ActuatableProperty" style="stroke:#181818;stroke-width:1;"/><polygon fill="none" points="545.18,55,527.7493,62.4948,535.7324,71.4542,545.18,55" style="stroke:#181818;stroke-width:1;"/></g><!--reverse link Sample to MaterialSample--><g class="link" data-entity-1="ent0005" data-entity-2="ent0006" data-link-type="extension" data-source-line="2" id="lnk7"><path codeLine="2" d="M968.3567,64.4445 C939.6067,82.1645 915.35,97.11 886.55,114.86" fill="none" id="Sample-backto-MaterialSample" style="stroke:#181818;stroke-width:1;"/><polygon fill="none" points="983.68,55,965.2086,59.3367,971.5049,69.5522,983.68,55" style="stroke:#181818;stroke-width:1;"/></g><!--reverse link Property to ObservableProperty--><g class="link" data-entity-1="ent0002" data-entity-2="ent0008" data-link-type="extension" data-source-line="3" id="lnk9"><path codeLine="3" d="M601.0017,68.9773 C615.3317,86.6373 623.69,96.94 638.08,114.68" fill="none" id="Property-backto-ObservableProperty" style="stroke:#181818;stroke-width:1;"/><polygon fill="none" points="589.66,55,596.3426,72.7579,605.6608,65.1967,589.66,55" style="stroke:#181818;stroke-width:1;"/></g><!--reverse link Sample to SpatialSample--><g class="link" data-entity-1="ent0005" data-entity-2="ent0010" data-link-type="extension" data-source-line="4" id="lnk11"><path codeLine="4" d="M1021,73 C1021,90.66 1021,96.94 1021,114.68" fill="none" id="Sample-backto-SpatialSample" style="stroke:#181818;stroke-width:1;"/><polygon fill="none" points="1021,55,1015,73,1027,73,1021,55" style="stroke:#181818;stroke-width:1;"/></g><!--reverse link Sample to StatisticalSample--><g class="link" data-entity-1="ent0005" data-entity-2="ent0012" data-link-type="extension" data-source-line="5" id="lnk13"><path codeLine="5" d="M1075.3276,64.1725 C1105.2476,81.8925 1130.95,97.11 1160.93,114.86" fill="none" id="Sample-backto-StatisticalSample" style="stroke:#181818;stroke-width:1;"/><polygon fill="none" points="1059.84,55,1072.2701,69.335,1078.3851,59.0099,1059.84,55" style="stroke:#181818;stroke-width:1;"/></g><!--reverse link Procedure to ActuatingProcedure--><g class="link" data-entity-1="ent0014" data-entity-2="ent0015" data-link-type="extension" data-source-line="6" id="lnk16"><path codeLine="6" d="M1544.8326,63.1732 C1510.0626,80.8932 1478.24,97.11 1443.4,114.86" fill="none" id="Procedure-backto-ActuatingProcedure" style="stroke:#181818;stroke-width:1;"/><polygon fill="none" points="1560.87,55,1542.1082,57.8274,1547.557,68.519,1560.87,55" style="stroke:#181818;stroke-width:1;"/></g><!--reverse link Procedure to ObservingProcedure--><g class="link" data-entity-1="ent0014" data-entity-2="ent0017" data-link-type="extension" data-source-line="7" id="lnk18"><path codeLine="7" d="M1606,73 C1606,90.66 1606,96.94 1606,114.68" fill="none" id="Procedure-backto-ObservingProcedure" style="stroke:#181818;stroke-width:1;"/><polygon fill="none" points="1606,55,1600,73,1612,73,1606,55" style="stroke:#181818;stroke-width:1;"/></g><!--reverse link Procedure to SamplingProcedure--><g class="link" data-entity-1="ent0014" data-entity-2="ent0019" data-link-type="extension" data-source-line="8" id="lnk20"><path codeLine="8" d="M1666.9411,63.205 C1701.5411,80.925 1733.15,97.11 1767.81,114.86" fill="none" id="Procedure-backto-SamplingProcedure" style="stroke:#181818;stroke-width:1;"/><polygon fill="none" points="1650.92,55,1664.2061,68.5454,1669.6762,57.8647,1650.92,55" style="stroke:#181818;stroke-width:1;"/></g><!--reverse link Asset to Platform--><g class="link" data-entity-1="ent0021" data-entity-2="ent0022" data-link-type="extension" data-source-line="9" id="lnk23"><path codeLine="9" d="M2016.7839,70.6022 C2006.6239,88.2622 2001.63,96.94 1991.42,114.68" fill="none" id="Asset-backto-Platform" style="stroke:#181818;stroke-width:1;"/><polygon fill="none" points="2025.76,55,2011.5831,67.6102,2021.9846,73.5943,2025.76,55" style="stroke:#181818;stroke-width:1;"/></g><!--reverse link System to Sampler--><g class="link" data-entity-1="ent0024" data-entity-2="ent0025" data-link-type="extension" data-source-line="10" id="lnk26"><path codeLine="10" d="M2059.8865,174.5884 C2038.8965,192.2484 2023.81,204.94 2002.72,222.68" fill="none" id="System-backto-Sampler" style="stroke:#181818;stroke-width:1;"/><polygon fill="none" points="2073.66,163,2056.0237,169.9972,2063.7493,179.1795,2073.66,163" style="stroke:#181818;stroke-width:1;"/></g><!--reverse link System to Actuator--><g class="link" data-entity-1="ent0024" data-entity-2="ent0027" data-link-type="extension" data-source-line="11" id="lnk28"><path codeLine="11" d="M2101,181 C2101,198.66 2101,204.94 2101,222.68" fill="none" id="System-backto-Actuator" style="stroke:#181818;stroke-width:1;"/><polygon fill="none" points="2101,163,2095,181,2107,181,2101,163" style="stroke:#181818;stroke-width:1;"/></g><!--reverse link ExecutionCollection to SamplingCollection--><g class="link" data-entity-1="ent0029" data-entity-2="ent0030" data-link-type="extension" data-source-line="12" id="lnk31"><path codeLine="12" d="M2404.231,63.3636 C2370.461,81.0836 2339.93,97.11 2306.09,114.86" fill="none" id="ExecutionCollection-backto-SamplingCollection" style="stroke:#181818;stroke-width:1;"/><polygon fill="none" points="2420.17,55,2401.4432,58.0506,2407.0189,68.6766,2420.17,55" style="stroke:#181818;stroke-width:1;"/></g><!--reverse link Asset to System--><g class="link" data-entity-1="ent0021" data-entity-2="ent0024" data-link-type="extension" data-source-line="13" id="lnk32"><path codeLine="13" d="M2061.5383,70.5372 C2071.8683,88.1972 2076.98,96.94 2087.36,114.68" fill="none" id="Asset-backto-System" style="stroke:#181818;stroke-width:1;"/><polygon fill="none" points="2052.45,55,2056.3592,73.5666,2066.7173,67.5077,2052.45,55" style="stroke:#181818;stroke-width:1;"/></g><!--reverse link System to Sensor--><g class="link" data-entity-1="ent0024" data-entity-2="ent0033" data-link-type="extension" data-source-line="14" id="lnk34"><path codeLine="14" d="M2140.7968,174.864 C2160.9468,192.524 2175.13,204.94 2195.38,222.68" fill="none" id="System-backto-Sensor" style="stroke:#181818;stroke-width:1;"/><polygon fill="none" points="2127.26,163,2136.8421,179.3763,2144.7515,170.3518,2127.26,163" style="stroke:#181818;stroke-width:1;"/></g><!--reverse link Execution to Sampling--><g class="link" data-entity-1="ent0035" data-entity-2="ent0036" data-link-type="extension" data-source-line="15" id="lnk37"><path codeLine="15" d="M2943.8041,66.1688 C2921.4841,83.8288 2904.91,96.94 2882.48,114.68" fill="none" id="Execution-backto-Sampling" style="stroke:#181818;stroke-width:1;"/><polygon fill="none" points="2957.92,55,2940.0812,61.4635,2947.527,70.8741,2957.92,55" style="stroke:#181818;stroke-width:1;"/></g><!--reverse link Execution to Actuation--><g class="link" data-entity-1="ent0035" data-entity-2="ent0038" data-link-type="extension" data-source-line="16" id="lnk39"><path codeLine="16" d="M2987,73 C2987,90.66 2987,96.94 2987,114.68" fill="none" id="Execution-backto-Actuation" style="stroke:#181818;stroke-width:1;"/><polygon fill="none" points="2987,55,2981,73,2993,73,2987,55" style="stroke:#181818;stroke-width:1;"/></g><!--reverse link ExecutionCollection to ActuationCollection--><g class="link" data-entity-1="ent0029" data-entity-2="ent0040" data-link-type="extension" data-source-line="17" id="lnk41"><path codeLine="17" d="M2464,73 C2464,90.66 2464,96.94 2464,114.68" fill="none" id="ExecutionCollection-backto-ActuationCollection" style="stroke:#181818;stroke-width:1;"/><polygon fill="none" points="2464,55,2458,73,2470,73,2464,55" style="stroke:#181818;stroke-width:1;"/></g><!--reverse link ExecutionCollection to ObservationCollection--><g class="link" data-entity-1="ent0029" data-entity-2="ent0042" data-link-type="extension" data-source-line="18" id="lnk43"><path codeLine="18" d="M2526.0997,63.0498 C2561.5397,80.7698 2594.22,97.11 2629.72,114.86" fill="none" id="ExecutionCollection-backto-ObservationCollection" style="stroke:#181818;stroke-width:1;"/><polygon fill="none" points="2510,55,2523.4164,68.4164,2528.783,57.6833,2510,55" style="stroke:#181818;stroke-width:1;"/></g><!--reverse link Execution to Observation--><g class="link" data-entity-1="ent0035" data-entity-2="ent0044" data-link-type="extension" data-source-line="19" id="lnk45"><path codeLine="19" d="M3032.4895,65.7202 C3056.3095,83.3802 3074.61,96.94 3098.54,114.68" fill="none" id="Execution-backto-Observation" style="stroke:#181818;stroke-width:1;"/><polygon fill="none" points="3018.03,55,3028.9161,70.54,3036.0629,60.9004,3018.03,55" style="stroke:#181818;stroke-width:1;"/></g><?plantuml-src VL91RiCW4Bpp2dyWF-WbQXkfXoXM_G929XNI0XQxLBNKnzSDr8P4xWrcPcT62tqC8w9CtTFtRjVjZIGj-ape2wu6xKP2fezQ4AscZAc-cJsT6V5pStOOjQoZ3ICpms9DRMnmIH5rA-i_5lnUaRF_KzoS6y6U6PB9dhHSGtHgc5ZWgWd41ijDGbIlNp19RF3FWGZczzJch7WTbBtQ67Yk3LkRUxoiOdRTRB18gWgRul9eM_87aJAacRi3jCmxF5tV_FmZm5BmTt2YlyiWrYLANAul62bC3dxXRmjUOty0?></g></svg>