<svg xmlns="http://www.w3.org/2000/svg" xmlns:xlink="http://www.w3.org/1999/xlink" contentStyleType="text/css" data-diagram-type="CLASS" height="286px" preserveAspectRatio="none" style="width:3295px;height:286px;background:#FFFFFF;" version="1.1" viewBox="0 0 3295 286" width="3295px" zoomAndPan="magnify"><?plantuml 1.2026.3?><defs/><g><!--class Property--><g class="entity" data-qualified-name="Property" data-source-line="1" id="ent0002"><rect fill="#F1F1F1" height="48" rx="2.5" ry="2.5" style="stroke:#181818;stroke-width:0.5;" width="91.7939" x="600" y="7"/><ellipse cx="615" cy="23" fill="#ADD1B2" rx="11" ry="11" style="stroke:#181818;stroke-width:1;"/><path d="M617.9688,28.6406 Q617.3906,28.9375 616.75,29.0781 Q616.1094,29.2344 615.4063,29.2344 Q612.9063,29.2344 611.5781,27.5938 Q610.2656,25.9375 610.2656,22.8125 Q610.2656,19.6875 611.5781,18.0313 Q612.9063,16.375 615.4063,16.375 Q616.1094,16.375 616.75,16.5313 Q617.4063,16.6875 617.9688,16.9844 L617.9688,19.7031 Q617.3438,19.125 616.75,18.8594 Q616.1563,18.5781 615.5313,18.5781 Q614.1875,18.5781 613.5,19.6563 Q612.8125,20.7188 612.8125,22.8125 Q612.8125,24.9063 613.5,25.9844 Q614.1875,27.0469 615.5313,27.0469 Q616.1563,27.0469 616.75,26.7813 Q617.3438,26.5 617.9688,25.9219 L617.9688,28.6406 Z " fill="#000000"/><text fill="#000000" font-family="sans-serif" font-size="14" lengthAdjust="spacing" textLength="59.7939" x="629" y="27.8467">Property</text><line style="stroke:#181818;stroke-width:0.5;" x1="601" x2="690.7939" y1="39" y2="39"/><line style="stroke:#181818;stroke-width:0.5;" x1="601" x2="690.7939" y1="47" y2="47"/></g><!--class ActuatableProperty--><g class="entity" data-qualified-name="ActuatableProperty" data-source-line="1" id="ent0003"><rect fill="#F1F1F1" height="48" rx="2.5" ry="2.5" style="stroke:#181818;stroke-width:0.5;" width="167.4678" x="460.5" y="115"/><ellipse cx="475.5" cy="131" fill="#ADD1B2" rx="11" ry="11" style="stroke:#181818;stroke-width:1;"/><path d="M478.4688,136.6406 Q477.8906,136.9375 477.25,137.0781 Q476.6094,137.2344 475.9063,137.2344 Q473.4063,137.2344 472.0781,135.5938 Q470.7656,133.9375 470.7656,130.8125 Q470.7656,127.6875 472.0781,126.0313 Q473.4063,124.375 475.9063,124.375 Q476.6094,124.375 477.25,124.5313 Q477.9063,124.6875 478.4688,124.9844 L478.4688,127.7031 Q477.8438,127.125 477.25,126.8594 Q476.6563,126.5781 476.0313,126.5781 Q474.6875,126.5781 474,127.6563 Q473.3125,128.7188 473.3125,130.8125 Q473.3125,132.9063 474,133.9844 Q474.6875,135.0469 476.0313,135.0469 Q476.6563,135.0469 477.25,134.7813 Q477.8438,134.5 478.4688,133.9219 L478.4688,136.6406 Z " fill="#000000"/><text fill="#000000" font-family="sans-serif" font-size="14" lengthAdjust="spacing" textLength="135.4678" x="489.5" y="135.8467">ActuatableProperty</text><line style="stroke:#181818;stroke-width:0.5;" x1="461.5" x2="626.9678" y1="147" y2="147"/><line style="stroke:#181818;stroke-width:0.5;" x1="461.5" x2="626.9678" y1="155" y2="155"/></g><!--class Sample--><g class="entity" data-qualified-name="Sample" data-source-line="2" id="ent0005"><rect fill="#F1F1F1" height="48" rx="2.5" ry="2.5" style="stroke:#181818;stroke-width:0.5;" width="84.4932" x="1071" y="7"/><ellipse cx="1086" cy="23" fill="#ADD1B2" rx="11" ry="11" style="stroke:#181818;stroke-width:1;"/><path d="M1088.9688,28.6406 Q1088.3906,28.9375 1087.75,29.0781 Q1087.1094,29.2344 1086.4063,29.2344 Q1083.9063,29.2344 1082.5781,27.5938 Q1081.2656,25.9375 1081.2656,22.8125 Q1081.2656,19.6875 1082.5781,18.0313 Q1083.9063,16.375 1086.4063,16.375 Q1087.1094,16.375 1087.75,16.5313 Q1088.4063,16.6875 1088.9688,16.9844 L1088.9688,19.7031 Q1088.3438,19.125 1087.75,18.8594 Q1087.1563,18.5781 1086.5313,18.5781 Q1085.1875,18.5781 1084.5,19.6563 Q1083.8125,20.7188 1083.8125,22.8125 Q1083.8125,24.9063 1084.5,25.9844 Q1085.1875,27.0469 1086.5313,27.0469 Q1087.1563,27.0469 1087.75,26.7813 Q1088.3438,26.5 1088.9688,25.9219 L1088.9688,28.6406 Z " fill="#000000"/><text fill="#000000" font-family="sans-serif" font-size="14" lengthAdjust="spacing" textLength="52.4932" x="1100" y="27.8467">Sample</text><line style="stroke:#181818;stroke-width:0.5;" x1="1072" x2="1154.4932" y1="39" y2="39"/><line style="stroke:#181818;stroke-width:0.5;" x1="1072" x2="1154.4932" y1="47" y2="47"/></g><!--class MaterialSample--><g class="entity" data-qualified-name="MaterialSample" data-source-line="2" id="ent0006"><rect fill="#F1F1F1" height="48" rx="2.5" ry="2.5" style="stroke:#181818;stroke-width:0.5;" width="141.3682" x="870.5" y="115"/><ellipse cx="885.5" cy="131" fill="#ADD1B2" rx="11" ry="11" style="stroke:#181818;stroke-width:1;"/><path d="M888.4688,136.6406 Q887.8906,136.9375 887.25,137.0781 Q886.6094,137.2344 885.9063,137.2344 Q883.4063,137.2344 882.0781,135.5938 Q880.7656,133.9375 880.7656,130.8125 Q880.7656,127.6875 882.0781,126.0313 Q883.4063,124.375 885.9063,124.375 Q886.6094,124.375 887.25,124.5313 Q887.9063,124.6875 888.4688,124.9844 L888.4688,127.7031 Q887.8438,127.125 887.25,126.8594 Q886.6563,126.5781 886.0313,126.5781 Q884.6875,126.5781 884,127.6563 Q883.3125,128.7188 883.3125,130.8125 Q883.3125,132.9063 884,133.9844 Q884.6875,135.0469 886.0313,135.0469 Q886.6563,135.0469 887.25,134.7813 Q887.8438,134.5 888.4688,133.9219 L888.4688,136.6406 Z " fill="#000000"/><text fill="#000000" font-family="sans-serif" font-size="14" lengthAdjust="spacing" textLength="109.3682" x="899.5" y="135.8467">MaterialSample</text><line style="stroke:#181818;stroke-width:0.5;" x1="871.5" x2="1010.8682" y1="147" y2="147"/><line style="stroke:#181818;stroke-width:0.5;" x1="871.5" x2="1010.8682" y1="155" y2="155"/></g><!--class SpatialSample--><g class="entity" data-qualified-name="SpatialSample" data-source-line="3" id="ent0008"><rect fill="#F1F1F1" height="48" rx="2.5" ry="2.5" style="stroke:#181818;stroke-width:0.5;" width="132.6934" x="1046.5" y="115"/><ellipse cx="1061.5" cy="131" fill="#ADD1B2" rx="11" ry="11" style="stroke:#181818;stroke-width:1;"/><path d="M1064.4688,136.6406 Q1063.8906,136.9375 1063.25,137.0781 Q1062.6094,137.2344 1061.9063,137.2344 Q1059.4063,137.2344 1058.0781,135.5938 Q1056.7656,133.9375 1056.7656,130.8125 Q1056.7656,127.6875 1058.0781,126.0313 Q1059.4063,124.375 1061.9063,124.375 Q1062.6094,124.375 1063.25,124.5313 Q1063.9063,124.6875 1064.4688,124.9844 L1064.4688,127.7031 Q1063.8438,127.125 1063.25,126.8594 Q1062.6563,126.5781 1062.0313,126.5781 Q1060.6875,126.5781 1060,127.6563 Q1059.3125,128.7188 1059.3125,130.8125 Q1059.3125,132.9063 1060,133.9844 Q1060.6875,135.0469 1062.0313,135.0469 Q1062.6563,135.0469 1063.25,134.7813 Q1063.8438,134.5 1064.4688,133.9219 L1064.4688,136.6406 Z " fill="#000000"/><text fill="#000000" font-family="sans-serif" font-size="14" lengthAdjust="spacing" textLength="100.6934" x="1075.5" y="135.8467">SpatialSample</text><line style="stroke:#181818;stroke-width:0.5;" x1="1047.5" x2="1178.1934" y1="147" y2="147"/><line style="stroke:#181818;stroke-width:0.5;" x1="1047.5" x2="1178.1934" y1="155" y2="155"/></g><!--class StatisticalSample--><g class="entity" data-qualified-name="StatisticalSample" data-source-line="4" id="ent0010"><rect fill="#F1F1F1" height="48" rx="2.5" ry="2.5" style="stroke:#181818;stroke-width:0.5;" width="153.666" x="1215" y="115"/><ellipse cx="1230" cy="131" fill="#ADD1B2" rx="11" ry="11" style="stroke:#181818;stroke-width:1;"/><path d="M1232.9688,136.6406 Q1232.3906,136.9375 1231.75,137.0781 Q1231.1094,137.2344 1230.4063,137.2344 Q1227.9063,137.2344 1226.5781,135.5938 Q1225.2656,133.9375 1225.2656,130.8125 Q1225.2656,127.6875 1226.5781,126.0313 Q1227.9063,124.375 1230.4063,124.375 Q1231.1094,124.375 1231.75,124.5313 Q1232.4063,124.6875 1232.9688,124.9844 L1232.9688,127.7031 Q1232.3438,127.125 1231.75,126.8594 Q1231.1563,126.5781 1230.5313,126.5781 Q1229.1875,126.5781 1228.5,127.6563 Q1227.8125,128.7188 1227.8125,130.8125 Q1227.8125,132.9063 1228.5,133.9844 Q1229.1875,135.0469 1230.5313,135.0469 Q1231.1563,135.0469 1231.75,134.7813 Q1232.3438,134.5 1232.9688,133.9219 L1232.9688,136.6406 Z " fill="#000000"/><text fill="#000000" font-family="sans-serif" font-size="14" lengthAdjust="spacing" textLength="121.666" x="1244" y="135.8467">StatisticalSample</text><line style="stroke:#181818;stroke-width:0.5;" x1="1216" x2="1367.666" y1="147" y2="147"/><line style="stroke:#181818;stroke-width:0.5;" x1="1216" x2="1367.666" y1="155" y2="155"/></g><!--class ObservableProperty--><g class="entity" data-qualified-name="ObservableProperty" data-source-line="5" id="ent0012"><rect fill="#F1F1F1" height="48" rx="2.5" ry="2.5" style="stroke:#181818;stroke-width:0.5;" width="171.6172" x="663" y="115"/><ellipse cx="678" cy="131" fill="#ADD1B2" rx="11" ry="11" style="stroke:#181818;stroke-width:1;"/><path d="M680.9688,136.6406 Q680.3906,136.9375 679.75,137.0781 Q679.1094,137.2344 678.4063,137.2344 Q675.9063,137.2344 674.5781,135.5938 Q673.2656,133.9375 673.2656,130.8125 Q673.2656,127.6875 674.5781,126.0313 Q675.9063,124.375 678.4063,124.375 Q679.1094,124.375 679.75,124.5313 Q680.4063,124.6875 680.9688,124.9844 L680.9688,127.7031 Q680.3438,127.125 679.75,126.8594 Q679.1563,126.5781 678.5313,126.5781 Q677.1875,126.5781 676.5,127.6563 Q675.8125,128.7188 675.8125,130.8125 Q675.8125,132.9063 676.5,133.9844 Q677.1875,135.0469 678.5313,135.0469 Q679.1563,135.0469 679.75,134.7813 Q680.3438,134.5 680.9688,133.9219 L680.9688,136.6406 Z " fill="#000000"/><text fill="#000000" font-family="sans-serif" font-size="14" lengthAdjust="spacing" textLength="139.6172" x="692" y="135.8467">ObservableProperty</text><line style="stroke:#181818;stroke-width:0.5;" x1="664" x2="833.6172" y1="147" y2="147"/><line style="stroke:#181818;stroke-width:0.5;" x1="664" x2="833.6172" y1="155" y2="155"/></g><!--class Procedure--><g class="entity" data-qualified-name="Procedure" data-source-line="6" id="ent0014"><rect fill="#F1F1F1" height="48" rx="2.5" ry="2.5" style="stroke:#181818;stroke-width:0.5;" width="103.2031" x="1646.5" y="7"/><ellipse cx="1661.5" cy="23" fill="#ADD1B2" rx="11" ry="11" style="stroke:#181818;stroke-width:1;"/><path d="M1664.4688,28.6406 Q1663.8906,28.9375 1663.25,29.0781 Q1662.6094,29.2344 1661.9063,29.2344 Q1659.4063,29.2344 1658.0781,27.5938 Q1656.7656,25.9375 1656.7656,22.8125 Q1656.7656,19.6875 1658.0781,18.0313 Q1659.4063,16.375 1661.9063,16.375 Q1662.6094,16.375 1663.25,16.5313 Q1663.9063,16.6875 1664.4688,16.9844 L1664.4688,19.7031 Q1663.8438,19.125 1663.25,18.8594 Q1662.6563,18.5781 1662.0313,18.5781 Q1660.6875,18.5781 1660,19.6563 Q1659.3125,20.7188 1659.3125,22.8125 Q1659.3125,24.9063 1660,25.9844 Q1660.6875,27.0469 1662.0313,27.0469 Q1662.6563,27.0469 1663.25,26.7813 Q1663.8438,26.5 1664.4688,25.9219 L1664.4688,28.6406 Z " fill="#000000"/><text fill="#000000" font-family="sans-serif" font-size="14" lengthAdjust="spacing" textLength="71.2031" x="1675.5" y="27.8467">Procedure</text><line style="stroke:#181818;stroke-width:0.5;" x1="1647.5" x2="1748.7031" y1="39" y2="39"/><line style="stroke:#181818;stroke-width:0.5;" x1="1647.5" x2="1748.7031" y1="47" y2="47"/></g><!--class ActuatingProcedure--><g class="entity" data-qualified-name="ActuatingProcedure" data-source-line="6" id="ent0015"><rect fill="#F1F1F1" height="48" rx="2.5" ry="2.5" style="stroke:#181818;stroke-width:0.5;" width="170.5576" x="1404.5" y="115"/><ellipse cx="1419.5" cy="131" fill="#ADD1B2" rx="11" ry="11" style="stroke:#181818;stroke-width:1;"/><path d="M1422.4688,136.6406 Q1421.8906,136.9375 1421.25,137.0781 Q1420.6094,137.2344 1419.9063,137.2344 Q1417.4063,137.2344 1416.0781,135.5938 Q1414.7656,133.9375 1414.7656,130.8125 Q1414.7656,127.6875 1416.0781,126.0313 Q1417.4063,124.375 1419.9063,124.375 Q1420.6094,124.375 1421.25,124.5313 Q1421.9063,124.6875 1422.4688,124.9844 L1422.4688,127.7031 Q1421.8438,127.125 1421.25,126.8594 Q1420.6563,126.5781 1420.0313,126.5781 Q1418.6875,126.5781 1418,127.6563 Q1417.3125,128.7188 1417.3125,130.8125 Q1417.3125,132.9063 1418,133.9844 Q1418.6875,135.0469 1420.0313,135.0469 Q1420.6563,135.0469 1421.25,134.7813 Q1421.8438,134.5 1422.4688,133.9219 L1422.4688,136.6406 Z " fill="#000000"/><text fill="#000000" font-family="sans-serif" font-size="14" lengthAdjust="spacing" textLength="138.5576" x="1433.5" y="135.8467">ActuatingProcedure</text><line style="stroke:#181818;stroke-width:0.5;" x1="1405.5" x2="1574.0576" y1="147" y2="147"/><line style="stroke:#181818;stroke-width:0.5;" x1="1405.5" x2="1574.0576" y1="155" y2="155"/></g><!--class ObservingProcedure--><g class="entity" data-qualified-name="ObservingProcedure" data-source-line="7" id="ent0017"><rect fill="#F1F1F1" height="48" rx="2.5" ry="2.5" style="stroke:#181818;stroke-width:0.5;" width="174.707" x="1610.5" y="115"/><ellipse cx="1625.5" cy="131" fill="#ADD1B2" rx="11" ry="11" style="stroke:#181818;stroke-width:1;"/><path d="M1628.4688,136.6406 Q1627.8906,136.9375 1627.25,137.0781 Q1626.6094,137.2344 1625.9063,137.2344 Q1623.4063,137.2344 1622.0781,135.5938 Q1620.7656,133.9375 1620.7656,130.8125 Q1620.7656,127.6875 1622.0781,126.0313 Q1623.4063,124.375 1625.9063,124.375 Q1626.6094,124.375 1627.25,124.5313 Q1627.9063,124.6875 1628.4688,124.9844 L1628.4688,127.7031 Q1627.8438,127.125 1627.25,126.8594 Q1626.6563,126.5781 1626.0313,126.5781 Q1624.6875,126.5781 1624,127.6563 Q1623.3125,128.7188 1623.3125,130.8125 Q1623.3125,132.9063 1624,133.9844 Q1624.6875,135.0469 1626.0313,135.0469 Q1626.6563,135.0469 1627.25,134.7813 Q1627.8438,134.5 1628.4688,133.9219 L1628.4688,136.6406 Z " fill="#000000"/><text fill="#000000" font-family="sans-serif" font-size="14" lengthAdjust="spacing" textLength="142.707" x="1639.5" y="135.8467">ObservingProcedure</text><line style="stroke:#181818;stroke-width:0.5;" x1="1611.5" x2="1784.207" y1="147" y2="147"/><line style="stroke:#181818;stroke-width:0.5;" x1="1611.5" x2="1784.207" y1="155" y2="155"/></g><!--class SamplingProcedure--><g class="entity" data-qualified-name="SamplingProcedure" data-source-line="8" id="ent0019"><rect fill="#F1F1F1" height="48" rx="2.5" ry="2.5" style="stroke:#181818;stroke-width:0.5;" width="168.7324" x="1820.5" y="115"/><ellipse cx="1835.5" cy="131" fill="#ADD1B2" rx="11" ry="11" style="stroke:#181818;stroke-width:1;"/><path d="M1838.4688,136.6406 Q1837.8906,136.9375 1837.25,137.0781 Q1836.6094,137.2344 1835.9063,137.2344 Q1833.4063,137.2344 1832.0781,135.5938 Q1830.7656,133.9375 1830.7656,130.8125 Q1830.7656,127.6875 1832.0781,126.0313 Q1833.4063,124.375 1835.9063,124.375 Q1836.6094,124.375 1837.25,124.5313 Q1837.9063,124.6875 1838.4688,124.9844 L1838.4688,127.7031 Q1837.8438,127.125 1837.25,126.8594 Q1836.6563,126.5781 1836.0313,126.5781 Q1834.6875,126.5781 1834,127.6563 Q1833.3125,128.7188 1833.3125,130.8125 Q1833.3125,132.9063 1834,133.9844 Q1834.6875,135.0469 1836.0313,135.0469 Q1836.6563,135.0469 1837.25,134.7813 Q1837.8438,134.5 1838.4688,133.9219 L1838.4688,136.6406 Z " fill="#000000"/><text fill="#000000" font-family="sans-serif" font-size="14" lengthAdjust="spacing" textLength="136.7324" x="1849.5" y="135.8467">SamplingProcedure</text><line style="stroke:#181818;stroke-width:0.5;" x1="1821.5" x2="1988.2324" y1="147" y2="147"/><line style="stroke:#181818;stroke-width:0.5;" x1="1821.5" x2="1988.2324" y1="155" y2="155"/></g><!--class Asset--><g class="entity" data-qualified-name="Asset" data-source-line="9" id="ent0021"><rect fill="#F1F1F1" height="48" rx="2.5" ry="2.5" style="stroke:#181818;stroke-width:0.5;" width="70.2676" x="2096" y="7"/><ellipse cx="2111" cy="23" fill="#ADD1B2" rx="11" ry="11" style="stroke:#181818;stroke-width:1;"/><path d="M2113.9688,28.6406 Q2113.3906,28.9375 2112.75,29.0781 Q2112.1094,29.2344 2111.4063,29.2344 Q2108.9063,29.2344 2107.5781,27.5938 Q2106.2656,25.9375 2106.2656,22.8125 Q2106.2656,19.6875 2107.5781,18.0313 Q2108.9063,16.375 2111.4063,16.375 Q2112.1094,16.375 2112.75,16.5313 Q2113.4063,16.6875 2113.9688,16.9844 L2113.9688,19.7031 Q2113.3438,19.125 2112.75,18.8594 Q2112.1563,18.5781 2111.5313,18.5781 Q2110.1875,18.5781 2109.5,19.6563 Q2108.8125,20.7188 2108.8125,22.8125 Q2108.8125,24.9063 2109.5,25.9844 Q2110.1875,27.0469 2111.5313,27.0469 Q2112.1563,27.0469 2112.75,26.7813 Q2113.3438,26.5 2113.9688,25.9219 L2113.9688,28.6406 Z " fill="#000000"/><text fill="#000000" font-family="sans-serif" font-size="14" lengthAdjust="spacing" textLength="38.2676" x="2125" y="27.8467">Asset</text><line style="stroke:#181818;stroke-width:0.5;" x1="2097" x2="2165.2676" y1="39" y2="39"/><line style="stroke:#181818;stroke-width:0.5;" x1="2097" x2="2165.2676" y1="47" y2="47"/></g><!--class Platform--><g class="entity" data-qualified-name="Platform" data-source-line="9" id="ent0022"><rect fill="#F1F1F1" height="48" rx="2.5" ry="2.5" style="stroke:#181818;stroke-width:0.5;" width="91.2881" x="2024.5" y="115"/><ellipse cx="2039.5" cy="131" fill="#ADD1B2" rx="11" ry="11" style="stroke:#181818;stroke-width:1;"/><path d="M2042.4688,136.6406 Q2041.8906,136.9375 2041.25,137.0781 Q2040.6094,137.2344 2039.9063,137.2344 Q2037.4063,137.2344 2036.0781,135.5938 Q2034.7656,133.9375 2034.7656,130.8125 Q2034.7656,127.6875 2036.0781,126.0313 Q2037.4063,124.375 2039.9063,124.375 Q2040.6094,124.375 2041.25,124.5313 Q2041.9063,124.6875 2042.4688,124.9844 L2042.4688,127.7031 Q2041.8438,127.125 2041.25,126.8594 Q2040.6563,126.5781 2040.0313,126.5781 Q2038.6875,126.5781 2038,127.6563 Q2037.3125,128.7188 2037.3125,130.8125 Q2037.3125,132.9063 2038,133.9844 Q2038.6875,135.0469 2040.0313,135.0469 Q2040.6563,135.0469 2041.25,134.7813 Q2041.8438,134.5 2042.4688,133.9219 L2042.4688,136.6406 Z " fill="#000000"/><text fill="#000000" font-family="sans-serif" font-size="14" lengthAdjust="spacing" textLength="59.2881" x="2053.5" y="135.8467">Platform</text><line style="stroke:#181818;stroke-width:0.5;" x1="2025.5" x2="2114.7881" y1="147" y2="147"/><line style="stroke:#181818;stroke-width:0.5;" x1="2025.5" x2="2114.7881" y1="155" y2="155"/></g><!--class System--><g class="entity" data-qualified-name="System" data-source-line="10" id="ent0024"><rect fill="#F1F1F1" height="48" rx="2.5" ry="2.5" style="stroke:#181818;stroke-width:0.5;" width="84.2061" x="2151" y="115"/><ellipse cx="2166" cy="131" fill="#ADD1B2" rx="11" ry="11" style="stroke:#181818;stroke-width:1;"/><path d="M2168.9688,136.6406 Q2168.3906,136.9375 2167.75,137.0781 Q2167.1094,137.2344 2166.4063,137.2344 Q2163.9063,137.2344 2162.5781,135.5938 Q2161.2656,133.9375 2161.2656,130.8125 Q2161.2656,127.6875 2162.5781,126.0313 Q2163.9063,124.375 2166.4063,124.375 Q2167.1094,124.375 2167.75,124.5313 Q2168.4063,124.6875 2168.9688,124.9844 L2168.9688,127.7031 Q2168.3438,127.125 2167.75,126.8594 Q2167.1563,126.5781 2166.5313,126.5781 Q2165.1875,126.5781 2164.5,127.6563 Q2163.8125,128.7188 2163.8125,130.8125 Q2163.8125,132.9063 2164.5,133.9844 Q2165.1875,135.0469 2166.5313,135.0469 Q2167.1563,135.0469 2167.75,134.7813 Q2168.3438,134.5 2168.9688,133.9219 L2168.9688,136.6406 Z " fill="#000000"/><text fill="#000000" font-family="sans-serif" font-size="14" lengthAdjust="spacing" textLength="52.2061" x="2180" y="135.8467">System</text><line style="stroke:#181818;stroke-width:0.5;" x1="2152" x2="2234.2061" y1="147" y2="147"/><line style="stroke:#181818;stroke-width:0.5;" x1="2152" x2="2234.2061" y1="155" y2="155"/></g><!--class Sampler--><g class="entity" data-qualified-name="Sampler" data-source-line="10" id="ent0025"><rect fill="#F1F1F1" height="48" rx="2.5" ry="2.5" style="stroke:#181818;stroke-width:0.5;" width="90.249" x="2022" y="223"/><ellipse cx="2037" cy="239" fill="#ADD1B2" rx="11" ry="11" style="stroke:#181818;stroke-width:1;"/><path d="M2039.9688,244.6406 Q2039.3906,244.9375 2038.75,245.0781 Q2038.1094,245.2344 2037.4063,245.2344 Q2034.9063,245.2344 2033.5781,243.5938 Q2032.2656,241.9375 2032.2656,238.8125 Q2032.2656,235.6875 2033.5781,234.0313 Q2034.9063,232.375 2037.4063,232.375 Q2038.1094,232.375 2038.75,232.5313 Q2039.4063,232.6875 2039.9688,232.9844 L2039.9688,235.7031 Q2039.3438,235.125 2038.75,234.8594 Q2038.1563,234.5781 2037.5313,234.5781 Q2036.1875,234.5781 2035.5,235.6563 Q2034.8125,236.7188 2034.8125,238.8125 Q2034.8125,240.9063 2035.5,241.9844 Q2036.1875,243.0469 2037.5313,243.0469 Q2038.1563,243.0469 2038.75,242.7813 Q2039.3438,242.5 2039.9688,241.9219 L2039.9688,244.6406 Z " fill="#000000"/><text fill="#000000" font-family="sans-serif" font-size="14" lengthAdjust="spacing" textLength="58.249" x="2051" y="243.8467">Sampler</text><line style="stroke:#181818;stroke-width:0.5;" x1="2023" x2="2111.249" y1="255" y2="255"/><line style="stroke:#181818;stroke-width:0.5;" x1="2023" x2="2111.249" y1="263" y2="263"/></g><!--class Actuator--><g class="entity" data-qualified-name="Actuator" data-source-line="11" id="ent0027"><rect fill="#F1F1F1" height="48" rx="2.5" ry="2.5" style="stroke:#181818;stroke-width:0.5;" width="92.0264" x="2147" y="223"/><ellipse cx="2162" cy="239" fill="#ADD1B2" rx="11" ry="11" style="stroke:#181818;stroke-width:1;"/><path d="M2164.9688,244.6406 Q2164.3906,244.9375 2163.75,245.0781 Q2163.1094,245.2344 2162.4063,245.2344 Q2159.9063,245.2344 2158.5781,243.5938 Q2157.2656,241.9375 2157.2656,238.8125 Q2157.2656,235.6875 2158.5781,234.0313 Q2159.9063,232.375 2162.4063,232.375 Q2163.1094,232.375 2163.75,232.5313 Q2164.4063,232.6875 2164.9688,232.9844 L2164.9688,235.7031 Q2164.3438,235.125 2163.75,234.8594 Q2163.1563,234.5781 2162.5313,234.5781 Q2161.1875,234.5781 2160.5,235.6563 Q2159.8125,236.7188 2159.8125,238.8125 Q2159.8125,240.9063 2160.5,241.9844 Q2161.1875,243.0469 2162.5313,243.0469 Q2163.1563,243.0469 2163.75,242.7813 Q2164.3438,242.5 2164.9688,241.9219 L2164.9688,244.6406 Z " fill="#000000"/><text fill="#000000" font-family="sans-serif" font-size="14" lengthAdjust="spacing" textLength="60.0264" x="2176" y="243.8467">Actuator</text><line style="stroke:#181818;stroke-width:0.5;" x1="2148" x2="2238.0264" y1="255" y2="255"/><line style="stroke:#181818;stroke-width:0.5;" x1="2148" x2="2238.0264" y1="263" y2="263"/></g><!--class Execution--><g class="entity" data-qualified-name="Execution" data-source-line="13" id="ent0030"><rect fill="#F1F1F1" height="48" rx="2.5" ry="2.5" style="stroke:#181818;stroke-width:0.5;" width="101.1318" x="2402.5" y="7"/><ellipse cx="2417.5" cy="23" fill="#ADD1B2" rx="11" ry="11" style="stroke:#181818;stroke-width:1;"/><path d="M2420.4688,28.6406 Q2419.8906,28.9375 2419.25,29.0781 Q2418.6094,29.2344 2417.9063,29.2344 Q2415.4063,29.2344 2414.0781,27.5938 Q2412.7656,25.9375 2412.7656,22.8125 Q2412.7656,19.6875 2414.0781,18.0313 Q2415.4063,16.375 2417.9063,16.375 Q2418.6094,16.375 2419.25,16.5313 Q2419.9063,16.6875 2420.4688,16.9844 L2420.4688,19.7031 Q2419.8438,19.125 2419.25,18.8594 Q2418.6563,18.5781 2418.0313,18.5781 Q2416.6875,18.5781 2416,19.6563 Q2415.3125,20.7188 2415.3125,22.8125 Q2415.3125,24.9063 2416,25.9844 Q2416.6875,27.0469 2418.0313,27.0469 Q2418.6563,27.0469 2419.25,26.7813 Q2419.8438,26.5 2420.4688,25.9219 L2420.4688,28.6406 Z " fill="#000000"/><text fill="#000000" font-family="sans-serif" font-size="14" lengthAdjust="spacing" textLength="69.1318" x="2431.5" y="27.8467">Execution</text><line style="stroke:#181818;stroke-width:0.5;" x1="2403.5" x2="2502.6318" y1="39" y2="39"/><line style="stroke:#181818;stroke-width:0.5;" x1="2403.5" x2="2502.6318" y1="47" y2="47"/></g><!--class Sampling--><g class="entity" data-qualified-name="Sampling" data-source-line="13" id="ent0031"><rect fill="#F1F1F1" height="48" rx="2.5" ry="2.5" style="stroke:#181818;stroke-width:0.5;" width="97.5293" x="2270" y="115"/><ellipse cx="2285" cy="131" fill="#ADD1B2" rx="11" ry="11" style="stroke:#181818;stroke-width:1;"/><path d="M2287.9688,136.6406 Q2287.3906,136.9375 2286.75,137.0781 Q2286.1094,137.2344 2285.4063,137.2344 Q2282.9063,137.2344 2281.5781,135.5938 Q2280.2656,133.9375 2280.2656,130.8125 Q2280.2656,127.6875 2281.5781,126.0313 Q2282.9063,124.375 2285.4063,124.375 Q2286.1094,124.375 2286.75,124.5313 Q2287.4063,124.6875 2287.9688,124.9844 L2287.9688,127.7031 Q2287.3438,127.125 2286.75,126.8594 Q2286.1563,126.5781 2285.5313,126.5781 Q2284.1875,126.5781 2283.5,127.6563 Q2282.8125,128.7188 2282.8125,130.8125 Q2282.8125,132.9063 2283.5,133.9844 Q2284.1875,135.0469 2285.5313,135.0469 Q2286.1563,135.0469 2286.75,134.7813 Q2287.3438,134.5 2287.9688,133.9219 L2287.9688,136.6406 Z " fill="#000000"/><text fill="#000000" font-family="sans-serif" font-size="14" lengthAdjust="spacing" textLength="65.5293" x="2299" y="135.8467">Sampling</text><line style="stroke:#181818;stroke-width:0.5;" x1="2271" x2="2366.5293" y1="147" y2="147"/><line style="stroke:#181818;stroke-width:0.5;" x1="2271" x2="2366.5293" y1="155" y2="155"/></g><!--class ExecutionCollection--><g class="entity" data-qualified-name="ExecutionCollection" data-source-line="14" id="ent0033"><rect fill="#F1F1F1" height="48" rx="2.5" ry="2.5" style="stroke:#181818;stroke-width:0.5;" width="170.3799" x="2890" y="7"/><ellipse cx="2905" cy="23" fill="#ADD1B2" rx="11" ry="11" style="stroke:#181818;stroke-width:1;"/><path d="M2907.9688,28.6406 Q2907.3906,28.9375 2906.75,29.0781 Q2906.1094,29.2344 2905.4063,29.2344 Q2902.9063,29.2344 2901.5781,27.5938 Q2900.2656,25.9375 2900.2656,22.8125 Q2900.2656,19.6875 2901.5781,18.0313 Q2902.9063,16.375 2905.4063,16.375 Q2906.1094,16.375 2906.75,16.5313 Q2907.4063,16.6875 2907.9688,16.9844 L2907.9688,19.7031 Q2907.3438,19.125 2906.75,18.8594 Q2906.1563,18.5781 2905.5313,18.5781 Q2904.1875,18.5781 2903.5,19.6563 Q2902.8125,20.7188 2902.8125,22.8125 Q2902.8125,24.9063 2903.5,25.9844 Q2904.1875,27.0469 2905.5313,27.0469 Q2906.1563,27.0469 2906.75,26.7813 Q2907.3438,26.5 2907.9688,25.9219 L2907.9688,28.6406 Z " fill="#000000"/><text fill="#000000" font-family="sans-serif" font-size="14" lengthAdjust="spacing" textLength="138.3799" x="2919" y="27.8467">ExecutionCollection</text><line style="stroke:#181818;stroke-width:0.5;" x1="2891" x2="3059.3799" y1="39" y2="39"/><line style="stroke:#181818;stroke-width:0.5;" x1="2891" x2="3059.3799" y1="47" y2="47"/></g><!--class SamplingCollection--><g class="entity" data-qualified-name="SamplingCollection" data-source-line="14" id="ent0034"><rect fill="#F1F1F1" height="48" rx="2.5" ry="2.5" style="stroke:#181818;stroke-width:0.5;" width="166.7773" x="2689.5" y="115"/><ellipse cx="2704.5" cy="131" fill="#ADD1B2" rx="11" ry="11" style="stroke:#181818;stroke-width:1;"/><path d="M2707.4688,136.6406 Q2706.8906,136.9375 2706.25,137.0781 Q2705.6094,137.2344 2704.9063,137.2344 Q2702.4063,137.2344 2701.0781,135.5938 Q2699.7656,133.9375 2699.7656,130.8125 Q2699.7656,127.6875 2701.0781,126.0313 Q2702.4063,124.375 2704.9063,124.375 Q2705.6094,124.375 2706.25,124.5313 Q2706.9063,124.6875 2707.4688,124.9844 L2707.4688,127.7031 Q2706.8438,127.125 2706.25,126.8594 Q2705.6563,126.5781 2705.0313,126.5781 Q2703.6875,126.5781 2703,127.6563 Q2702.3125,128.7188 2702.3125,130.8125 Q2702.3125,132.9063 2703,133.9844 Q2703.6875,135.0469 2705.0313,135.0469 Q2705.6563,135.0469 2706.25,134.7813 Q2706.8438,134.5 2707.4688,133.9219 L2707.4688,136.6406 Z " fill="#000000"/><text fill="#000000" font-family="sans-serif" font-size="14" lengthAdjust="spacing" textLength="134.7773" x="2718.5" y="135.8467">SamplingCollection</text><line style="stroke:#181818;stroke-width:0.5;" x1="2690.5" x2="2855.2773" y1="147" y2="147"/><line style="stroke:#181818;stroke-width:0.5;" x1="2690.5" x2="2855.2773" y1="155" y2="155"/></g><!--class Actuation--><g class="entity" data-qualified-name="Actuation" data-source-line="15" id="ent0036"><rect fill="#F1F1F1" height="48" rx="2.5" ry="2.5" style="stroke:#181818;stroke-width:0.5;" width="99.0332" x="2403.5" y="115"/><ellipse cx="2418.5" cy="131" fill="#ADD1B2" rx="11" ry="11" style="stroke:#181818;stroke-width:1;"/><path d="M2421.4688,136.6406 Q2420.8906,136.9375 2420.25,137.0781 Q2419.6094,137.2344 2418.9063,137.2344 Q2416.4063,137.2344 2415.0781,135.5938 Q2413.7656,133.9375 2413.7656,130.8125 Q2413.7656,127.6875 2415.0781,126.0313 Q2416.4063,124.375 2418.9063,124.375 Q2419.6094,124.375 2420.25,124.5313 Q2420.9063,124.6875 2421.4688,124.9844 L2421.4688,127.7031 Q2420.8438,127.125 2420.25,126.8594 Q2419.6563,126.5781 2419.0313,126.5781 Q2417.6875,126.5781 2417,127.6563 Q2416.3125,128.7188 2416.3125,130.8125 Q2416.3125,132.9063 2417,133.9844 Q2417.6875,135.0469 2419.0313,135.0469 Q2419.6563,135.0469 2420.25,134.7813 Q2420.8438,134.5 2421.4688,133.9219 L2421.4688,136.6406 Z " fill="#000000"/><text fill="#000000" font-family="sans-serif" font-size="14" lengthAdjust="spacing" textLength="67.0332" x="2432.5" y="135.8467">Actuation</text><line style="stroke:#181818;stroke-width:0.5;" x1="2404.5" x2="2501.5332" y1="147" y2="147"/><line style="stroke:#181818;stroke-width:0.5;" x1="2404.5" x2="2501.5332" y1="155" y2="155"/></g><!--class Sensor--><g class="entity" data-qualified-name="Sensor" data-source-line="16" id="ent0038"><rect fill="#F1F1F1" height="48" rx="2.5" ry="2.5" style="stroke:#181818;stroke-width:0.5;" width="79.9883" x="2274" y="223"/><ellipse cx="2289" cy="239" fill="#ADD1B2" rx="11" ry="11" style="stroke:#181818;stroke-width:1;"/><path d="M2291.9688,244.6406 Q2291.3906,244.9375 2290.75,245.0781 Q2290.1094,245.2344 2289.4063,245.2344 Q2286.9063,245.2344 2285.5781,243.5938 Q2284.2656,241.9375 2284.2656,238.8125 Q2284.2656,235.6875 2285.5781,234.0313 Q2286.9063,232.375 2289.4063,232.375 Q2290.1094,232.375 2290.75,232.5313 Q2291.4063,232.6875 2291.9688,232.9844 L2291.9688,235.7031 Q2291.3438,235.125 2290.75,234.8594 Q2290.1563,234.5781 2289.5313,234.5781 Q2288.1875,234.5781 2287.5,235.6563 Q2286.8125,236.7188 2286.8125,238.8125 Q2286.8125,240.9063 2287.5,241.9844 Q2288.1875,243.0469 2289.5313,243.0469 Q2290.1563,243.0469 2290.75,242.7813 Q2291.3438,242.5 2291.9688,241.9219 L2291.9688,244.6406 Z " fill="#000000"/><text fill="#000000" font-family="sans-serif" font-size="14" lengthAdjust="spacing" textLength="47.9883" x="2303" y="243.8467">Sensor</text><line style="stroke:#181818;stroke-width:0.5;" x1="2275" x2="2352.9883" y1="255" y2="255"/><line style="stroke:#181818;stroke-width:0.5;" x1="2275" x2="2352.9883" y1="263" y2="263"/></g><!--class ActuationCollection--><g class="entity" data-qualified-name="ActuationCollection" data-source-line="17" id="ent0040"><rect fill="#F1F1F1" height="48" rx="2.5" ry="2.5" style="stroke:#181818;stroke-width:0.5;" width="168.2813" x="2891" y="115"/><ellipse cx="2906" cy="131" fill="#ADD1B2" rx="11" ry="11" style="stroke:#181818;stroke-width:1;"/><path d="M2908.9688,136.6406 Q2908.3906,136.9375 2907.75,137.0781 Q2907.1094,137.2344 2906.4063,137.2344 Q2903.9063,137.2344 2902.5781,135.5938 Q2901.2656,133.9375 2901.2656,130.8125 Q2901.2656,127.6875 2902.5781,126.0313 Q2903.9063,124.375 2906.4063,124.375 Q2907.1094,124.375 2907.75,124.5313 Q2908.4063,124.6875 2908.9688,124.9844 L2908.9688,127.7031 Q2908.3438,127.125 2907.75,126.8594 Q2907.1563,126.5781 2906.5313,126.5781 Q2905.1875,126.5781 2904.5,127.6563 Q2903.8125,128.7188 2903.8125,130.8125 Q2903.8125,132.9063 2904.5,133.9844 Q2905.1875,135.0469 2906.5313,135.0469 Q2907.1563,135.0469 2907.75,134.7813 Q2908.3438,134.5 2908.9688,133.9219 L2908.9688,136.6406 Z " fill="#000000"/><text fill="#000000" font-family="sans-serif" font-size="14" lengthAdjust="spacing" textLength="136.2813" x="2920" y="135.8467">ActuationCollection</text><line style="stroke:#181818;stroke-width:0.5;" x1="2892" x2="3058.2813" y1="147" y2="147"/><line style="stroke:#181818;stroke-width:0.5;" x1="2892" x2="3058.2813" y1="155" y2="155"/></g><!--class ObservationCollection--><g class="entity" data-qualified-name="ObservationCollection" data-source-line="18" id="ent0042"><rect fill="#F1F1F1" height="48" rx="2.5" ry="2.5" style="stroke:#181818;stroke-width:0.5;" width="186.499" x="3094" y="115"/><ellipse cx="3109" cy="131" fill="#ADD1B2" rx="11" ry="11" style="stroke:#181818;stroke-width:1;"/><path d="M3111.9688,136.6406 Q3111.3906,136.9375 3110.75,137.0781 Q3110.1094,137.2344 3109.4063,137.2344 Q3106.9063,137.2344 3105.5781,135.5938 Q3104.2656,133.9375 3104.2656,130.8125 Q3104.2656,127.6875 3105.5781,126.0313 Q3106.9063,124.375 3109.4063,124.375 Q3110.1094,124.375 3110.75,124.5313 Q3111.4063,124.6875 3111.9688,124.9844 L3111.9688,127.7031 Q3111.3438,127.125 3110.75,126.8594 Q3110.1563,126.5781 3109.5313,126.5781 Q3108.1875,126.5781 3107.5,127.6563 Q3106.8125,128.7188 3106.8125,130.8125 Q3106.8125,132.9063 3107.5,133.9844 Q3108.1875,135.0469 3109.5313,135.0469 Q3110.1563,135.0469 3110.75,134.7813 Q3111.3438,134.5 3111.9688,133.9219 L3111.9688,136.6406 Z " fill="#000000"/><text fill="#000000" font-family="sans-serif" font-size="14" lengthAdjust="spacing" textLength="154.499" x="3123" y="135.8467">ObservationCollection</text><line style="stroke:#181818;stroke-width:0.5;" x1="3095" x2="3279.499" y1="147" y2="147"/><line style="stroke:#181818;stroke-width:0.5;" x1="3095" x2="3279.499" y1="155" y2="155"/></g><!--class Observation--><g class="entity" data-qualified-name="Observation" data-source-line="19" id="ent0044"><rect fill="#F1F1F1" height="48" rx="2.5" ry="2.5" style="stroke:#181818;stroke-width:0.5;" width="117.251" x="2537.5" y="115"/><ellipse cx="2552.5" cy="131" fill="#ADD1B2" rx="11" ry="11" style="stroke:#181818;stroke-width:1;"/><path d="M2555.4688,136.6406 Q2554.8906,136.9375 2554.25,137.0781 Q2553.6094,137.2344 2552.9063,137.2344 Q2550.4063,137.2344 2549.0781,135.5938 Q2547.7656,133.9375 2547.7656,130.8125 Q2547.7656,127.6875 2549.0781,126.0313 Q2550.4063,124.375 2552.9063,124.375 Q2553.6094,124.375 2554.25,124.5313 Q2554.9063,124.6875 2555.4688,124.9844 L2555.4688,127.7031 Q2554.8438,127.125 2554.25,126.8594 Q2553.6563,126.5781 2553.0313,126.5781 Q2551.6875,126.5781 2551,127.6563 Q2550.3125,128.7188 2550.3125,130.8125 Q2550.3125,132.9063 2551,133.9844 Q2551.6875,135.0469 2553.0313,135.0469 Q2553.6563,135.0469 2554.25,134.7813 Q2554.8438,134.5 2555.4688,133.9219 L2555.4688,136.6406 Z " fill="#000000"/><text fill="#000000" font-family="sans-serif" font-size="14" lengthAdjust="spacing" textLength="85.251" x="2566.5" y="135.8467">Observation</text><line style="stroke:#181818;stroke-width:0.5;" x1="2538.5" x2="2653.751" y1="147" y2="147"/><line style="stroke:#181818;stroke-width:0.5;" x1="2538.5" x2="2653.751" y1="155" y2="155"/></g><!--class Stimulus--><g class="entity" data-qualified-name="Stimulus" data-source-line="20" id="ent0046"><rect fill="#F1F1F1" height="48" rx="2.5" ry="2.5" style="stroke:#181818;stroke-width:0.5;" width="92.833" x="19.5" y="7"/><ellipse cx="34.5" cy="23" fill="#ADD1B2" rx="11" ry="11" style="stroke:#181818;stroke-width:1;"/><path d="M37.4688,28.6406 Q36.8906,28.9375 36.25,29.0781 Q35.6094,29.2344 34.9063,29.2344 Q32.4063,29.2344 31.0781,27.5938 Q29.7656,25.9375 29.7656,22.8125 Q29.7656,19.6875 31.0781,18.0313 Q32.4063,16.375 34.9063,16.375 Q35.6094,16.375 36.25,16.5313 Q36.9063,16.6875 37.4688,16.9844 L37.4688,19.7031 Q36.8438,19.125 36.25,18.8594 Q35.6563,18.5781 35.0313,18.5781 Q33.6875,18.5781 33,19.6563 Q32.3125,20.7188 32.3125,22.8125 Q32.3125,24.9063 33,25.9844 Q33.6875,27.0469 35.0313,27.0469 Q35.6563,27.0469 36.25,26.7813 Q36.8438,26.5 37.4688,25.9219 L37.4688,28.6406 Z " fill="#000000"/><text fill="#000000" font-family="sans-serif" font-size="14" lengthAdjust="spacing" textLength="60.833" x="48.5" y="27.8467">Stimulus</text><line style="stroke:#181818;stroke-width:0.5;" x1="20.5" x2="111.333" y1="39" y2="39"/><line style="stroke:#181818;stroke-width:0.5;" x1="20.5" x2="111.333" y1="47" y2="47"/></g><!--class Output--><g class="entity" data-qualified-name="Output" data-source-line="21" id="ent0047"><rect fill="#F1F1F1" height="48" rx="2.5" ry="2.5" style="stroke:#181818;stroke-width:0.5;" width="80.6309" x="147.5" y="7"/><ellipse cx="162.5" cy="23" fill="#ADD1B2" rx="11" ry="11" style="stroke:#181818;stroke-width:1;"/><path d="M165.4688,28.6406 Q164.8906,28.9375 164.25,29.0781 Q163.6094,29.2344 162.9063,29.2344 Q160.4063,29.2344 159.0781,27.5938 Q157.7656,25.9375 157.7656,22.8125 Q157.7656,19.6875 159.0781,18.0313 Q160.4063,16.375 162.9063,16.375 Q163.6094,16.375 164.25,16.5313 Q164.9063,16.6875 165.4688,16.9844 L165.4688,19.7031 Q164.8438,19.125 164.25,18.8594 Q163.6563,18.5781 163.0313,18.5781 Q161.6875,18.5781 161,19.6563 Q160.3125,20.7188 160.3125,22.8125 Q160.3125,24.9063 161,25.9844 Q161.6875,27.0469 163.0313,27.0469 Q163.6563,27.0469 164.25,26.7813 Q164.8438,26.5 165.4688,25.9219 L165.4688,28.6406 Z " fill="#000000"/><text fill="#000000" font-family="sans-serif" font-size="14" lengthAdjust="spacing" textLength="48.6309" x="176.5" y="27.8467">Output</text><line style="stroke:#181818;stroke-width:0.5;" x1="148.5" x2="227.1309" y1="39" y2="39"/><line style="stroke:#181818;stroke-width:0.5;" x1="148.5" x2="227.1309" y1="47" y2="47"/></g><!--class FeatureOfInterest--><g class="entity" data-qualified-name="FeatureOfInterest" data-source-line="22" id="ent0048"><rect fill="#F1F1F1" height="48" rx="2.5" ry="2.5" style="stroke:#181818;stroke-width:0.5;" width="156.1816" x="264" y="7"/><ellipse cx="279" cy="23" fill="#ADD1B2" rx="11" ry="11" style="stroke:#181818;stroke-width:1;"/><path d="M281.9688,28.6406 Q281.3906,28.9375 280.75,29.0781 Q280.1094,29.2344 279.4063,29.2344 Q276.9063,29.2344 275.5781,27.5938 Q274.2656,25.9375 274.2656,22.8125 Q274.2656,19.6875 275.5781,18.0313 Q276.9063,16.375 279.4063,16.375 Q280.1094,16.375 280.75,16.5313 Q281.4063,16.6875 281.9688,16.9844 L281.9688,19.7031 Q281.3438,19.125 280.75,18.8594 Q280.1563,18.5781 279.5313,18.5781 Q278.1875,18.5781 277.5,19.6563 Q276.8125,20.7188 276.8125,22.8125 Q276.8125,24.9063 277.5,25.9844 Q278.1875,27.0469 279.5313,27.0469 Q280.1563,27.0469 280.75,26.7813 Q281.3438,26.5 281.9688,25.9219 L281.9688,28.6406 Z " fill="#000000"/><text fill="#000000" font-family="sans-serif" font-size="14" lengthAdjust="spacing" textLength="124.1816" x="293" y="27.8467">FeatureOfInterest</text><line style="stroke:#181818;stroke-width:0.5;" x1="265" x2="419.1816" y1="39" y2="39"/><line style="stroke:#181818;stroke-width:0.5;" x1="265" x2="419.1816" y1="47" y2="47"/></g><!--class Deployment--><g class="entity" data-qualified-name="Deployment" data-source-line="23" id="ent0049"><rect fill="#F1F1F1" height="48" rx="2.5" ry="2.5" style="stroke:#181818;stroke-width:0.5;" width="117.6338" x="7" y="115"/><ellipse cx="22" cy="131" fill="#ADD1B2" rx="11" ry="11" style="stroke:#181818;stroke-width:1;"/><path d="M24.9688,136.6406 Q24.3906,136.9375 23.75,137.0781 Q23.1094,137.2344 22.4063,137.2344 Q19.9063,137.2344 18.5781,135.5938 Q17.2656,133.9375 17.2656,130.8125 Q17.2656,127.6875 18.5781,126.0313 Q19.9063,124.375 22.4063,124.375 Q23.1094,124.375 23.75,124.5313 Q24.4063,124.6875 24.9688,124.9844 L24.9688,127.7031 Q24.3438,127.125 23.75,126.8594 Q23.1563,126.5781 22.5313,126.5781 Q21.1875,126.5781 20.5,127.6563 Q19.8125,128.7188 19.8125,130.8125 Q19.8125,132.9063 20.5,133.9844 Q21.1875,135.0469 22.5313,135.0469 Q23.1563,135.0469 23.75,134.7813 Q24.3438,134.5 24.9688,133.9219 L24.9688,136.6406 Z " fill="#000000"/><text fill="#000000" font-family="sans-serif" font-size="14" lengthAdjust="spacing" textLength="85.6338" x="36" y="135.8467">Deployment</text><line style="stroke:#181818;stroke-width:0.5;" x1="8" x2="123.6338" y1="147" y2="147"/><line style="stroke:#181818;stroke-width:0.5;" x1="8" x2="123.6338" y1="155" y2="155"/></g><!--class Result--><g class="entity" data-qualified-name="Result" data-source-line="24" id="ent0050"><rect fill="#F1F1F1" height="48" rx="2.5" ry="2.5" style="stroke:#181818;stroke-width:0.5;" width="75.8867" x="160" y="115"/><ellipse cx="175" cy="131" fill="#ADD1B2" rx="11" ry="11" style="stroke:#181818;stroke-width:1;"/><path d="M177.9688,136.6406 Q177.3906,136.9375 176.75,137.0781 Q176.1094,137.2344 175.4063,137.2344 Q172.9063,137.2344 171.5781,135.5938 Q170.2656,133.9375 170.2656,130.8125 Q170.2656,127.6875 171.5781,126.0313 Q172.9063,124.375 175.4063,124.375 Q176.1094,124.375 176.75,124.5313 Q177.4063,124.6875 177.9688,124.9844 L177.9688,127.7031 Q177.3438,127.125 176.75,126.8594 Q176.1563,126.5781 175.5313,126.5781 Q174.1875,126.5781 173.5,127.6563 Q172.8125,128.7188 172.8125,130.8125 Q172.8125,132.9063 173.5,133.9844 Q174.1875,135.0469 175.5313,135.0469 Q176.1563,135.0469 176.75,134.7813 Q177.3438,134.5 177.9688,133.9219 L177.9688,136.6406 Z " fill="#000000"/><text fill="#000000" font-family="sans-serif" font-size="14" lengthAdjust="spacing" textLength="43.8867" x="189" y="135.8467">Result</text><line style="stroke:#181818;stroke-width:0.5;" x1="161" x2="234.8867" y1="147" y2="147"/><line style="stroke:#181818;stroke-width:0.5;" x1="161" x2="234.8867" y1="155" y2="155"/></g><!--class SampleCollection--><g class="entity" data-qualified-name="SampleCollection" data-source-line="29" id="ent0051"><rect fill="#F1F1F1" height="48" rx="2.5" ry="2.5" style="stroke:#181818;stroke-width:0.5;" width="153.7412" x="271" y="115"/><ellipse cx="286" cy="131" fill="#ADD1B2" rx="11" ry="11" style="stroke:#181818;stroke-width:1;"/><path d="M288.9688,136.6406 Q288.3906,136.9375 287.75,137.0781 Q287.1094,137.2344 286.4063,137.2344 Q283.9063,137.2344 282.5781,135.5938 Q281.2656,133.9375 281.2656,130.8125 Q281.2656,127.6875 282.5781,126.0313 Q283.9063,124.375 286.4063,124.375 Q287.1094,124.375 287.75,124.5313 Q288.4063,124.6875 288.9688,124.9844 L288.9688,127.7031 Q288.3438,127.125 287.75,126.8594 Q287.1563,126.5781 286.5313,126.5781 Q285.1875,126.5781 284.5,127.6563 Q283.8125,128.7188 283.8125,130.8125 Q283.8125,132.9063 284.5,133.9844 Q285.1875,135.0469 286.5313,135.0469 Q287.1563,135.0469 287.75,134.7813 Q288.3438,134.5 288.9688,133.9219 L288.9688,136.6406 Z " fill="#000000"/><text fill="#000000" font-family="sans-serif" font-size="14" lengthAdjust="spacing" textLength="121.7412" x="300" y="135.8467">SampleCollection</text><line style="stroke:#181818;stroke-width:0.5;" x1="272" x2="423.7412" y1="147" y2="147"/><line style="stroke:#181818;stroke-width:0.5;" x1="272" x2="423.7412" y1="155" y2="155"/></g><!--class Input--><g class="entity" data-qualified-name="Input" data-source-line="30" id="ent0052"><rect fill="#F1F1F1" height="48" rx="2.5" ry="2.5" style="stroke:#181818;stroke-width:0.5;" width="68.251" x="32" y="223"/><ellipse cx="47" cy="239" fill="#ADD1B2" rx="11" ry="11" style="stroke:#181818;stroke-width:1;"/><path d="M49.9688,244.6406 Q49.3906,244.9375 48.75,245.0781 Q48.1094,245.2344 47.4063,245.2344 Q44.9063,245.2344 43.5781,243.5938 Q42.2656,241.9375 42.2656,238.8125 Q42.2656,235.6875 43.5781,234.0313 Q44.9063,232.375 47.4063,232.375 Q48.1094,232.375 48.75,232.5313 Q49.4063,232.6875 49.9688,232.9844 L49.9688,235.7031 Q49.3438,235.125 48.75,234.8594 Q48.1563,234.5781 47.5313,234.5781 Q46.1875,234.5781 45.5,235.6563 Q44.8125,236.7188 44.8125,238.8125 Q44.8125,240.9063 45.5,241.9844 Q46.1875,243.0469 47.5313,243.0469 Q48.1563,243.0469 48.75,242.7813 Q49.3438,242.5 49.9688,241.9219 L49.9688,244.6406 Z " fill="#000000"/><text fill="#000000" font-family="sans-serif" font-size="14" lengthAdjust="spacing" textLength="36.251" x="61" y="243.8467">Input</text><line style="stroke:#181818;stroke-width:0.5;" x1="33" x2="99.251" y1="255" y2="255"/><line style="stroke:#181818;stroke-width:0.5;" x1="33" x2="99.251" y1="263" y2="263"/></g><!--reverse link Property to ActuatableProperty--><g class="link" data-entity-1="ent0002" data-entity-2="ent0003" data-link-type="extension" data-source-line="1" id="lnk4"><path codeLine="1" d="M611.3905,67.9716 C594.4005,85.6316 583.51,96.94 566.44,114.68" fill="none" id="Property-backto-ActuatableProperty" style="stroke:#181818;stroke-width:1;"/><polygon fill="none" points="623.87,55,607.0667,63.8118,615.7144,72.1314,623.87,55" style="stroke:#181818;stroke-width:1;"/></g><!--reverse link Sample to MaterialSample--><g class="link" data-entity-1="ent0005" data-entity-2="ent0006" data-link-type="extension" data-source-line="2" id="lnk7"><path codeLine="2" d="M1060.3567,64.4445 C1031.6067,82.1645 1007.35,97.11 978.55,114.86" fill="none" id="Sample-backto-MaterialSample" style="stroke:#181818;stroke-width:1;"/><polygon fill="none" points="1075.68,55,1057.2086,59.3367,1063.5049,69.5522,1075.68,55" style="stroke:#181818;stroke-width:1;"/></g><!--reverse link Sample to SpatialSample--><g class="link" data-entity-1="ent0005" data-entity-2="ent0008" data-link-type="extension" data-source-line="3" id="lnk9"><path codeLine="3" d="M1113,73 C1113,90.66 1113,96.94 1113,114.68" fill="none" id="Sample-backto-SpatialSample" style="stroke:#181818;stroke-width:1;"/><polygon fill="none" points="1113,55,1107,73,1119,73,1113,55" style="stroke:#181818;stroke-width:1;"/></g><!--reverse link Sample to StatisticalSample--><g class="link" data-entity-1="ent0005" data-entity-2="ent0010" data-link-type="extension" data-source-line="4" id="lnk11"><path codeLine="4" d="M1167.3276,64.1725 C1197.2476,81.8925 1222.95,97.11 1252.93,114.86" fill="none" id="Sample-backto-StatisticalSample" style="stroke:#181818;stroke-width:1;"/><polygon fill="none" points="1151.84,55,1164.2701,69.335,1170.3851,59.0099,1151.84,55" style="stroke:#181818;stroke-width:1;"/></g><!--reverse link Property to ObservableProperty--><g class="link" data-entity-1="ent0002" data-entity-2="ent0012" data-link-type="extension" data-source-line="5" id="lnk13"><path codeLine="5" d="M680.8939,67.9094 C698.0539,85.5694 709.1,96.94 726.34,114.68" fill="none" id="Property-backto-ObservableProperty" style="stroke:#181818;stroke-width:1;"/><polygon fill="none" points="668.35,55,676.5907,72.0906,685.197,63.7281,668.35,55" style="stroke:#181818;stroke-width:1;"/></g><!--reverse link Procedure to ActuatingProcedure--><g class="link" data-entity-1="ent0014" data-entity-2="ent0015" data-link-type="extension" data-source-line="6" id="lnk16"><path codeLine="6" d="M1636.8326,63.1732 C1602.0626,80.8932 1570.24,97.11 1535.4,114.86" fill="none" id="Procedure-backto-ActuatingProcedure" style="stroke:#181818;stroke-width:1;"/><polygon fill="none" points="1652.87,55,1634.1082,57.8274,1639.557,68.519,1652.87,55" style="stroke:#181818;stroke-width:1;"/></g><!--reverse link Procedure to ObservingProcedure--><g class="link" data-entity-1="ent0014" data-entity-2="ent0017" data-link-type="extension" data-source-line="7" id="lnk18"><path codeLine="7" d="M1698,73 C1698,90.66 1698,96.94 1698,114.68" fill="none" id="Procedure-backto-ObservingProcedure" style="stroke:#181818;stroke-width:1;"/><polygon fill="none" points="1698,55,1692,73,1704,73,1698,55" style="stroke:#181818;stroke-width:1;"/></g><!--reverse link Procedure to SamplingProcedure--><g class="link" data-entity-1="ent0014" data-entity-2="ent0019" data-link-type="extension" data-source-line="8" id="lnk20"><path codeLine="8" d="M1758.9411,63.205 C1793.5411,80.925 1825.15,97.11 1859.81,114.86" fill="none" id="Procedure-backto-SamplingProcedure" style="stroke:#181818;stroke-width:1;"/><polygon fill="none" points="1742.92,55,1756.2061,68.5454,1761.6762,57.8647,1742.92,55" style="stroke:#181818;stroke-width:1;"/></g><!--reverse link Asset to Platform--><g class="link" data-entity-1="ent0021" data-entity-2="ent0022" data-link-type="extension" data-source-line="9" id="lnk23"><path codeLine="9" d="M2108.7839,70.6022 C2098.6239,88.2622 2093.63,96.94 2083.42,114.68" fill="none" id="Asset-backto-Platform" style="stroke:#181818;stroke-width:1;"/><polygon fill="none" points="2117.76,55,2103.5831,67.6102,2113.9846,73.5943,2117.76,55" style="stroke:#181818;stroke-width:1;"/></g><!--reverse link System to Sampler--><g class="link" data-entity-1="ent0024" data-entity-2="ent0025" data-link-type="extension" data-source-line="10" id="lnk26"><path codeLine="10" d="M2151.8865,174.5884 C2130.8965,192.2484 2115.81,204.94 2094.72,222.68" fill="none" id="System-backto-Sampler" style="stroke:#181818;stroke-width:1;"/><polygon fill="none" points="2165.66,163,2148.0237,169.9972,2155.7493,179.1795,2165.66,163" style="stroke:#181818;stroke-width:1;"/></g><!--reverse link System to Actuator--><g class="link" data-entity-1="ent0024" data-entity-2="ent0027" data-link-type="extension" data-source-line="11" id="lnk28"><path codeLine="11" d="M2193,181 C2193,198.66 2193,204.94 2193,222.68" fill="none" id="System-backto-Actuator" style="stroke:#181818;stroke-width:1;"/><polygon fill="none" points="2193,163,2187,181,2199,181,2193,163" style="stroke:#181818;stroke-width:1;"/></g><!--reverse link Asset to System--><g class="link" data-entity-1="ent0021" data-entity-2="ent0024" data-link-type="extension" data-source-line="12" id="lnk29"><path codeLine="12" d="M2153.5383,70.5372 C2163.8683,88.1972 2168.98,96.94 2179.36,114.68" fill="none" id="Asset-backto-System" style="stroke:#181818;stroke-width:1;"/><polygon fill="none" points="2144.45,55,2148.3592,73.5666,2158.7173,67.5077,2144.45,55" style="stroke:#181818;stroke-width:1;"/></g><!--reverse link Execution to Sampling--><g class="link" data-entity-1="ent0030" data-entity-2="ent0031" data-link-type="extension" data-source-line="13" id="lnk32"><path codeLine="13" d="M2409.8041,66.1688 C2387.4841,83.8288 2370.91,96.94 2348.48,114.68" fill="none" id="Execution-backto-Sampling" style="stroke:#181818;stroke-width:1;"/><polygon fill="none" points="2423.92,55,2406.0812,61.4635,2413.527,70.8741,2423.92,55" style="stroke:#181818;stroke-width:1;"/></g><!--reverse link ExecutionCollection to SamplingCollection--><g class="link" data-entity-1="ent0033" data-entity-2="ent0034" data-link-type="extension" data-source-line="14" id="lnk35"><path codeLine="14" d="M2915.231,63.3636 C2881.461,81.0836 2850.93,97.11 2817.09,114.86" fill="none" id="ExecutionCollection-backto-SamplingCollection" style="stroke:#181818;stroke-width:1;"/><polygon fill="none" points="2931.17,55,2912.4432,58.0506,2918.0189,68.6766,2931.17,55" style="stroke:#181818;stroke-width:1;"/></g><!--reverse link Execution to Actuation--><g class="link" data-entity-1="ent0030" data-entity-2="ent0036" data-link-type="extension" data-source-line="15" id="lnk37"><path codeLine="15" d="M2453,73 C2453,90.66 2453,96.94 2453,114.68" fill="none" id="Execution-backto-Actuation" style="stroke:#181818;stroke-width:1;"/><polygon fill="none" points="2453,55,2447,73,2459,73,2453,55" style="stroke:#181818;stroke-width:1;"/></g><!--reverse link System to Sensor--><g class="link" data-entity-1="ent0024" data-entity-2="ent0038" data-link-type="extension" data-source-line="16" id="lnk39"><path codeLine="16" d="M2232.7968,174.864 C2252.9468,192.524 2267.13,204.94 2287.38,222.68" fill="none" id="System-backto-Sensor" style="stroke:#181818;stroke-width:1;"/><polygon fill="none" points="2219.26,163,2228.8421,179.3763,2236.7515,170.3518,2219.26,163" style="stroke:#181818;stroke-width:1;"/></g><!--reverse link ExecutionCollection to ActuationCollection--><g class="link" data-entity-1="ent0033" data-entity-2="ent0040" data-link-type="extension" data-source-line="17" id="lnk41"><path codeLine="17" d="M2975,73 C2975,90.66 2975,96.94 2975,114.68" fill="none" id="ExecutionCollection-backto-ActuationCollection" style="stroke:#181818;stroke-width:1;"/><polygon fill="none" points="2975,55,2969,73,2981,73,2975,55" style="stroke:#181818;stroke-width:1;"/></g><!--reverse link ExecutionCollection to ObservationCollection--><g class="link" data-entity-1="ent0033" data-entity-2="ent0042" data-link-type="extension" data-source-line="18" id="lnk43"><path codeLine="18" d="M3037.0997,63.0498 C3072.5397,80.7698 3105.22,97.11 3140.72,114.86" fill="none" id="ExecutionCollection-backto-ObservationCollection" style="stroke:#181818;stroke-width:1;"/><polygon fill="none" points="3021,55,3034.4164,68.4164,3039.783,57.6833,3021,55" style="stroke:#181818;stroke-width:1;"/></g><!--reverse link Execution to Observation--><g class="link" data-entity-1="ent0030" data-entity-2="ent0044" data-link-type="extension" data-source-line="19" id="lnk45"><path codeLine="19" d="M2498.4895,65.7202 C2522.3095,83.3802 2540.61,96.94 2564.54,114.68" fill="none" id="Execution-backto-Observation" style="stroke:#181818;stroke-width:1;"/><polygon fill="none" points="2484.03,55,2494.9161,70.54,2502.0629,60.9004,2484.03,55" style="stroke:#181818;stroke-width:1;"/></g><?plantuml-src VL99RiCm3Bpx5Vb0Vf1Bq3P03e6D-WMAoWG2g0KY5TH07r-Xb1tBZdiJPuQS4QKk-W2HXztXPx_V7JKdnUgAq1MywPKD249V54Cq2WMhg3uetc0uCyH6JsnNURPNWlYeFFD1mrUAC4zbt7t2bmgPyP_YpxeI78c0XUnGySr7s_G3CTXP1yGAaoG-pfk5Rpw-GISstjL-J_pD8u9UAvxuSaQvToQgNE0e9zYSEtMz6hmKb-LloLUYHgCYoczgRC94fMmJXyIbE87YlD_sTdRvjm2D-3i4z8C5DmAVG0d7ecnHYkaZl7HR3PANckKN-Enog5y0?></g></svg>