<svg xmlns="http://www.w3.org/2000/svg" xmlns:xlink="http://www.w3.org/1999/xlink" contentStyleType="text/css" data-diagram-type="CLASS" height="286px" preserveAspectRatio="none" style="width:3260px;height:286px;background:#FFFFFF;" version="1.1" viewBox="0 0 3260 286" width="3260px" zoomAndPan="magnify"><?plantuml 1.2026.3?><defs/><g><!--class Property--><g class="entity" data-qualified-name="Property" data-source-line="1" id="ent0002"><rect fill="#F1F1F1" height="48" rx="2.5" ry="2.5" style="stroke:#181818;stroke-width:0.5;" width="91.7939" x="574" y="7"/><ellipse cx="589" cy="23" fill="#ADD1B2" rx="11" ry="11" style="stroke:#181818;stroke-width:1;"/><path d="M591.9688,28.6406 Q591.3906,28.9375 590.75,29.0781 Q590.1094,29.2344 589.4063,29.2344 Q586.9063,29.2344 585.5781,27.5938 Q584.2656,25.9375 584.2656,22.8125 Q584.2656,19.6875 585.5781,18.0313 Q586.9063,16.375 589.4063,16.375 Q590.1094,16.375 590.75,16.5313 Q591.4063,16.6875 591.9688,16.9844 L591.9688,19.7031 Q591.3438,19.125 590.75,18.8594 Q590.1563,18.5781 589.5313,18.5781 Q588.1875,18.5781 587.5,19.6563 Q586.8125,20.7188 586.8125,22.8125 Q586.8125,24.9063 587.5,25.9844 Q588.1875,27.0469 589.5313,27.0469 Q590.1563,27.0469 590.75,26.7813 Q591.3438,26.5 591.9688,25.9219 L591.9688,28.6406 Z " fill="#000000"/><text fill="#000000" font-family="sans-serif" font-size="14" lengthAdjust="spacing" textLength="59.7939" x="603" y="27.8467">Property</text><line style="stroke:#181818;stroke-width:0.5;" x1="575" x2="664.7939" y1="39" y2="39"/><line style="stroke:#181818;stroke-width:0.5;" x1="575" x2="664.7939" y1="47" y2="47"/></g><!--class ActuatableProperty--><g class="entity" data-qualified-name="ActuatableProperty" data-source-line="1" id="ent0003"><rect fill="#F1F1F1" height="48" rx="2.5" ry="2.5" style="stroke:#181818;stroke-width:0.5;" width="167.4678" x="425.5" y="115"/><ellipse cx="440.5" cy="131" fill="#ADD1B2" rx="11" ry="11" style="stroke:#181818;stroke-width:1;"/><path d="M443.4688,136.6406 Q442.8906,136.9375 442.25,137.0781 Q441.6094,137.2344 440.9063,137.2344 Q438.4063,137.2344 437.0781,135.5938 Q435.7656,133.9375 435.7656,130.8125 Q435.7656,127.6875 437.0781,126.0313 Q438.4063,124.375 440.9063,124.375 Q441.6094,124.375 442.25,124.5313 Q442.9063,124.6875 443.4688,124.9844 L443.4688,127.7031 Q442.8438,127.125 442.25,126.8594 Q441.6563,126.5781 441.0313,126.5781 Q439.6875,126.5781 439,127.6563 Q438.3125,128.7188 438.3125,130.8125 Q438.3125,132.9063 439,133.9844 Q439.6875,135.0469 441.0313,135.0469 Q441.6563,135.0469 442.25,134.7813 Q442.8438,134.5 443.4688,133.9219 L443.4688,136.6406 Z " fill="#000000"/><text fill="#000000" font-family="sans-serif" font-size="14" lengthAdjust="spacing" textLength="135.4678" x="454.5" y="135.8467">ActuatableProperty</text><line style="stroke:#181818;stroke-width:0.5;" x1="426.5" x2="591.9678" y1="147" y2="147"/><line style="stroke:#181818;stroke-width:0.5;" x1="426.5" x2="591.9678" y1="155" y2="155"/></g><!--class Sample--><g class="entity" data-qualified-name="Sample" data-source-line="2" id="ent0005"><rect fill="#F1F1F1" height="48" rx="2.5" ry="2.5" style="stroke:#181818;stroke-width:0.5;" width="84.4932" x="1036" y="7"/><ellipse cx="1051" cy="23" fill="#ADD1B2" rx="11" ry="11" style="stroke:#181818;stroke-width:1;"/><path d="M1053.9688,28.6406 Q1053.3906,28.9375 1052.75,29.0781 Q1052.1094,29.2344 1051.4063,29.2344 Q1048.9063,29.2344 1047.5781,27.5938 Q1046.2656,25.9375 1046.2656,22.8125 Q1046.2656,19.6875 1047.5781,18.0313 Q1048.9063,16.375 1051.4063,16.375 Q1052.1094,16.375 1052.75,16.5313 Q1053.4063,16.6875 1053.9688,16.9844 L1053.9688,19.7031 Q1053.3438,19.125 1052.75,18.8594 Q1052.1563,18.5781 1051.5313,18.5781 Q1050.1875,18.5781 1049.5,19.6563 Q1048.8125,20.7188 1048.8125,22.8125 Q1048.8125,24.9063 1049.5,25.9844 Q1050.1875,27.0469 1051.5313,27.0469 Q1052.1563,27.0469 1052.75,26.7813 Q1053.3438,26.5 1053.9688,25.9219 L1053.9688,28.6406 Z " fill="#000000"/><text fill="#000000" font-family="sans-serif" font-size="14" lengthAdjust="spacing" textLength="52.4932" x="1065" y="27.8467">Sample</text><line style="stroke:#181818;stroke-width:0.5;" x1="1037" x2="1119.4932" y1="39" y2="39"/><line style="stroke:#181818;stroke-width:0.5;" x1="1037" x2="1119.4932" y1="47" y2="47"/></g><!--class MaterialSample--><g class="entity" data-qualified-name="MaterialSample" data-source-line="2" id="ent0006"><rect fill="#F1F1F1" height="48" rx="2.5" ry="2.5" style="stroke:#181818;stroke-width:0.5;" width="141.3682" x="835.5" y="115"/><ellipse cx="850.5" cy="131" fill="#ADD1B2" rx="11" ry="11" style="stroke:#181818;stroke-width:1;"/><path d="M853.4688,136.6406 Q852.8906,136.9375 852.25,137.0781 Q851.6094,137.2344 850.9063,137.2344 Q848.4063,137.2344 847.0781,135.5938 Q845.7656,133.9375 845.7656,130.8125 Q845.7656,127.6875 847.0781,126.0313 Q848.4063,124.375 850.9063,124.375 Q851.6094,124.375 852.25,124.5313 Q852.9063,124.6875 853.4688,124.9844 L853.4688,127.7031 Q852.8438,127.125 852.25,126.8594 Q851.6563,126.5781 851.0313,126.5781 Q849.6875,126.5781 849,127.6563 Q848.3125,128.7188 848.3125,130.8125 Q848.3125,132.9063 849,133.9844 Q849.6875,135.0469 851.0313,135.0469 Q851.6563,135.0469 852.25,134.7813 Q852.8438,134.5 853.4688,133.9219 L853.4688,136.6406 Z " fill="#000000"/><text fill="#000000" font-family="sans-serif" font-size="14" lengthAdjust="spacing" textLength="109.3682" x="864.5" y="135.8467">MaterialSample</text><line style="stroke:#181818;stroke-width:0.5;" x1="836.5" x2="975.8682" y1="147" y2="147"/><line style="stroke:#181818;stroke-width:0.5;" x1="836.5" x2="975.8682" y1="155" y2="155"/></g><!--class SpatialSample--><g class="entity" data-qualified-name="SpatialSample" data-source-line="3" id="ent0008"><rect fill="#F1F1F1" height="48" rx="2.5" ry="2.5" style="stroke:#181818;stroke-width:0.5;" width="132.6934" x="1011.5" y="115"/><ellipse cx="1026.5" cy="131" fill="#ADD1B2" rx="11" ry="11" style="stroke:#181818;stroke-width:1;"/><path d="M1029.4688,136.6406 Q1028.8906,136.9375 1028.25,137.0781 Q1027.6094,137.2344 1026.9063,137.2344 Q1024.4063,137.2344 1023.0781,135.5938 Q1021.7656,133.9375 1021.7656,130.8125 Q1021.7656,127.6875 1023.0781,126.0313 Q1024.4063,124.375 1026.9063,124.375 Q1027.6094,124.375 1028.25,124.5313 Q1028.9063,124.6875 1029.4688,124.9844 L1029.4688,127.7031 Q1028.8438,127.125 1028.25,126.8594 Q1027.6563,126.5781 1027.0313,126.5781 Q1025.6875,126.5781 1025,127.6563 Q1024.3125,128.7188 1024.3125,130.8125 Q1024.3125,132.9063 1025,133.9844 Q1025.6875,135.0469 1027.0313,135.0469 Q1027.6563,135.0469 1028.25,134.7813 Q1028.8438,134.5 1029.4688,133.9219 L1029.4688,136.6406 Z " fill="#000000"/><text fill="#000000" font-family="sans-serif" font-size="14" lengthAdjust="spacing" textLength="100.6934" x="1040.5" y="135.8467">SpatialSample</text><line style="stroke:#181818;stroke-width:0.5;" x1="1012.5" x2="1143.1934" y1="147" y2="147"/><line style="stroke:#181818;stroke-width:0.5;" x1="1012.5" x2="1143.1934" y1="155" y2="155"/></g><!--class StatisticalSample--><g class="entity" data-qualified-name="StatisticalSample" data-source-line="4" id="ent0010"><rect fill="#F1F1F1" height="48" rx="2.5" ry="2.5" style="stroke:#181818;stroke-width:0.5;" width="153.666" x="1180" y="115"/><ellipse cx="1195" cy="131" fill="#ADD1B2" rx="11" ry="11" style="stroke:#181818;stroke-width:1;"/><path d="M1197.9688,136.6406 Q1197.3906,136.9375 1196.75,137.0781 Q1196.1094,137.2344 1195.4063,137.2344 Q1192.9063,137.2344 1191.5781,135.5938 Q1190.2656,133.9375 1190.2656,130.8125 Q1190.2656,127.6875 1191.5781,126.0313 Q1192.9063,124.375 1195.4063,124.375 Q1196.1094,124.375 1196.75,124.5313 Q1197.4063,124.6875 1197.9688,124.9844 L1197.9688,127.7031 Q1197.3438,127.125 1196.75,126.8594 Q1196.1563,126.5781 1195.5313,126.5781 Q1194.1875,126.5781 1193.5,127.6563 Q1192.8125,128.7188 1192.8125,130.8125 Q1192.8125,132.9063 1193.5,133.9844 Q1194.1875,135.0469 1195.5313,135.0469 Q1196.1563,135.0469 1196.75,134.7813 Q1197.3438,134.5 1197.9688,133.9219 L1197.9688,136.6406 Z " fill="#000000"/><text fill="#000000" font-family="sans-serif" font-size="14" lengthAdjust="spacing" textLength="121.666" x="1209" y="135.8467">StatisticalSample</text><line style="stroke:#181818;stroke-width:0.5;" x1="1181" x2="1332.666" y1="147" y2="147"/><line style="stroke:#181818;stroke-width:0.5;" x1="1181" x2="1332.666" y1="155" y2="155"/></g><!--class ObservableProperty--><g class="entity" data-qualified-name="ObservableProperty" data-source-line="5" id="ent0012"><rect fill="#F1F1F1" height="48" rx="2.5" ry="2.5" style="stroke:#181818;stroke-width:0.5;" width="171.6172" x="628" y="115"/><ellipse cx="643" cy="131" fill="#ADD1B2" rx="11" ry="11" style="stroke:#181818;stroke-width:1;"/><path d="M645.9688,136.6406 Q645.3906,136.9375 644.75,137.0781 Q644.1094,137.2344 643.4063,137.2344 Q640.9063,137.2344 639.5781,135.5938 Q638.2656,133.9375 638.2656,130.8125 Q638.2656,127.6875 639.5781,126.0313 Q640.9063,124.375 643.4063,124.375 Q644.1094,124.375 644.75,124.5313 Q645.4063,124.6875 645.9688,124.9844 L645.9688,127.7031 Q645.3438,127.125 644.75,126.8594 Q644.1563,126.5781 643.5313,126.5781 Q642.1875,126.5781 641.5,127.6563 Q640.8125,128.7188 640.8125,130.8125 Q640.8125,132.9063 641.5,133.9844 Q642.1875,135.0469 643.5313,135.0469 Q644.1563,135.0469 644.75,134.7813 Q645.3438,134.5 645.9688,133.9219 L645.9688,136.6406 Z " fill="#000000"/><text fill="#000000" font-family="sans-serif" font-size="14" lengthAdjust="spacing" textLength="139.6172" x="657" y="135.8467">ObservableProperty</text><line style="stroke:#181818;stroke-width:0.5;" x1="629" x2="798.6172" y1="147" y2="147"/><line style="stroke:#181818;stroke-width:0.5;" x1="629" x2="798.6172" y1="155" y2="155"/></g><!--class Procedure--><g class="entity" data-qualified-name="Procedure" data-source-line="6" id="ent0014"><rect fill="#F1F1F1" height="48" rx="2.5" ry="2.5" style="stroke:#181818;stroke-width:0.5;" width="103.2031" x="1611.5" y="7"/><ellipse cx="1626.5" cy="23" fill="#ADD1B2" rx="11" ry="11" style="stroke:#181818;stroke-width:1;"/><path d="M1629.4688,28.6406 Q1628.8906,28.9375 1628.25,29.0781 Q1627.6094,29.2344 1626.9063,29.2344 Q1624.4063,29.2344 1623.0781,27.5938 Q1621.7656,25.9375 1621.7656,22.8125 Q1621.7656,19.6875 1623.0781,18.0313 Q1624.4063,16.375 1626.9063,16.375 Q1627.6094,16.375 1628.25,16.5313 Q1628.9063,16.6875 1629.4688,16.9844 L1629.4688,19.7031 Q1628.8438,19.125 1628.25,18.8594 Q1627.6563,18.5781 1627.0313,18.5781 Q1625.6875,18.5781 1625,19.6563 Q1624.3125,20.7188 1624.3125,22.8125 Q1624.3125,24.9063 1625,25.9844 Q1625.6875,27.0469 1627.0313,27.0469 Q1627.6563,27.0469 1628.25,26.7813 Q1628.8438,26.5 1629.4688,25.9219 L1629.4688,28.6406 Z " fill="#000000"/><text fill="#000000" font-family="sans-serif" font-size="14" lengthAdjust="spacing" textLength="71.2031" x="1640.5" y="27.8467">Procedure</text><line style="stroke:#181818;stroke-width:0.5;" x1="1612.5" x2="1713.7031" y1="39" y2="39"/><line style="stroke:#181818;stroke-width:0.5;" x1="1612.5" x2="1713.7031" y1="47" y2="47"/></g><!--class ActuatingProcedure--><g class="entity" data-qualified-name="ActuatingProcedure" data-source-line="6" id="ent0015"><rect fill="#F1F1F1" height="48" rx="2.5" ry="2.5" style="stroke:#181818;stroke-width:0.5;" width="170.5576" x="1369.5" y="115"/><ellipse cx="1384.5" cy="131" fill="#ADD1B2" rx="11" ry="11" style="stroke:#181818;stroke-width:1;"/><path d="M1387.4688,136.6406 Q1386.8906,136.9375 1386.25,137.0781 Q1385.6094,137.2344 1384.9063,137.2344 Q1382.4063,137.2344 1381.0781,135.5938 Q1379.7656,133.9375 1379.7656,130.8125 Q1379.7656,127.6875 1381.0781,126.0313 Q1382.4063,124.375 1384.9063,124.375 Q1385.6094,124.375 1386.25,124.5313 Q1386.9063,124.6875 1387.4688,124.9844 L1387.4688,127.7031 Q1386.8438,127.125 1386.25,126.8594 Q1385.6563,126.5781 1385.0313,126.5781 Q1383.6875,126.5781 1383,127.6563 Q1382.3125,128.7188 1382.3125,130.8125 Q1382.3125,132.9063 1383,133.9844 Q1383.6875,135.0469 1385.0313,135.0469 Q1385.6563,135.0469 1386.25,134.7813 Q1386.8438,134.5 1387.4688,133.9219 L1387.4688,136.6406 Z " fill="#000000"/><text fill="#000000" font-family="sans-serif" font-size="14" lengthAdjust="spacing" textLength="138.5576" x="1398.5" y="135.8467">ActuatingProcedure</text><line style="stroke:#181818;stroke-width:0.5;" x1="1370.5" x2="1539.0576" y1="147" y2="147"/><line style="stroke:#181818;stroke-width:0.5;" x1="1370.5" x2="1539.0576" y1="155" y2="155"/></g><!--class ObservingProcedure--><g class="entity" data-qualified-name="ObservingProcedure" data-source-line="7" id="ent0017"><rect fill="#F1F1F1" height="48" rx="2.5" ry="2.5" style="stroke:#181818;stroke-width:0.5;" width="174.707" x="1575.5" y="115"/><ellipse cx="1590.5" cy="131" fill="#ADD1B2" rx="11" ry="11" style="stroke:#181818;stroke-width:1;"/><path d="M1593.4688,136.6406 Q1592.8906,136.9375 1592.25,137.0781 Q1591.6094,137.2344 1590.9063,137.2344 Q1588.4063,137.2344 1587.0781,135.5938 Q1585.7656,133.9375 1585.7656,130.8125 Q1585.7656,127.6875 1587.0781,126.0313 Q1588.4063,124.375 1590.9063,124.375 Q1591.6094,124.375 1592.25,124.5313 Q1592.9063,124.6875 1593.4688,124.9844 L1593.4688,127.7031 Q1592.8438,127.125 1592.25,126.8594 Q1591.6563,126.5781 1591.0313,126.5781 Q1589.6875,126.5781 1589,127.6563 Q1588.3125,128.7188 1588.3125,130.8125 Q1588.3125,132.9063 1589,133.9844 Q1589.6875,135.0469 1591.0313,135.0469 Q1591.6563,135.0469 1592.25,134.7813 Q1592.8438,134.5 1593.4688,133.9219 L1593.4688,136.6406 Z " fill="#000000"/><text fill="#000000" font-family="sans-serif" font-size="14" lengthAdjust="spacing" textLength="142.707" x="1604.5" y="135.8467">ObservingProcedure</text><line style="stroke:#181818;stroke-width:0.5;" x1="1576.5" x2="1749.207" y1="147" y2="147"/><line style="stroke:#181818;stroke-width:0.5;" x1="1576.5" x2="1749.207" y1="155" y2="155"/></g><!--class SamplingProcedure--><g class="entity" data-qualified-name="SamplingProcedure" data-source-line="8" id="ent0019"><rect fill="#F1F1F1" height="48" rx="2.5" ry="2.5" style="stroke:#181818;stroke-width:0.5;" width="168.7324" x="1785.5" y="115"/><ellipse cx="1800.5" cy="131" fill="#ADD1B2" rx="11" ry="11" style="stroke:#181818;stroke-width:1;"/><path d="M1803.4688,136.6406 Q1802.8906,136.9375 1802.25,137.0781 Q1801.6094,137.2344 1800.9063,137.2344 Q1798.4063,137.2344 1797.0781,135.5938 Q1795.7656,133.9375 1795.7656,130.8125 Q1795.7656,127.6875 1797.0781,126.0313 Q1798.4063,124.375 1800.9063,124.375 Q1801.6094,124.375 1802.25,124.5313 Q1802.9063,124.6875 1803.4688,124.9844 L1803.4688,127.7031 Q1802.8438,127.125 1802.25,126.8594 Q1801.6563,126.5781 1801.0313,126.5781 Q1799.6875,126.5781 1799,127.6563 Q1798.3125,128.7188 1798.3125,130.8125 Q1798.3125,132.9063 1799,133.9844 Q1799.6875,135.0469 1801.0313,135.0469 Q1801.6563,135.0469 1802.25,134.7813 Q1802.8438,134.5 1803.4688,133.9219 L1803.4688,136.6406 Z " fill="#000000"/><text fill="#000000" font-family="sans-serif" font-size="14" lengthAdjust="spacing" textLength="136.7324" x="1814.5" y="135.8467">SamplingProcedure</text><line style="stroke:#181818;stroke-width:0.5;" x1="1786.5" x2="1953.2324" y1="147" y2="147"/><line style="stroke:#181818;stroke-width:0.5;" x1="1786.5" x2="1953.2324" y1="155" y2="155"/></g><!--class Asset--><g class="entity" data-qualified-name="Asset" data-source-line="9" id="ent0021"><rect fill="#F1F1F1" height="48" rx="2.5" ry="2.5" style="stroke:#181818;stroke-width:0.5;" width="70.2676" x="2061" y="7"/><ellipse cx="2076" cy="23" fill="#ADD1B2" rx="11" ry="11" style="stroke:#181818;stroke-width:1;"/><path d="M2078.9688,28.6406 Q2078.3906,28.9375 2077.75,29.0781 Q2077.1094,29.2344 2076.4063,29.2344 Q2073.9063,29.2344 2072.5781,27.5938 Q2071.2656,25.9375 2071.2656,22.8125 Q2071.2656,19.6875 2072.5781,18.0313 Q2073.9063,16.375 2076.4063,16.375 Q2077.1094,16.375 2077.75,16.5313 Q2078.4063,16.6875 2078.9688,16.9844 L2078.9688,19.7031 Q2078.3438,19.125 2077.75,18.8594 Q2077.1563,18.5781 2076.5313,18.5781 Q2075.1875,18.5781 2074.5,19.6563 Q2073.8125,20.7188 2073.8125,22.8125 Q2073.8125,24.9063 2074.5,25.9844 Q2075.1875,27.0469 2076.5313,27.0469 Q2077.1563,27.0469 2077.75,26.7813 Q2078.3438,26.5 2078.9688,25.9219 L2078.9688,28.6406 Z " fill="#000000"/><text fill="#000000" font-family="sans-serif" font-size="14" lengthAdjust="spacing" textLength="38.2676" x="2090" y="27.8467">Asset</text><line style="stroke:#181818;stroke-width:0.5;" x1="2062" x2="2130.2676" y1="39" y2="39"/><line style="stroke:#181818;stroke-width:0.5;" x1="2062" x2="2130.2676" y1="47" y2="47"/></g><!--class Platform--><g class="entity" data-qualified-name="Platform" data-source-line="9" id="ent0022"><rect fill="#F1F1F1" height="48" rx="2.5" ry="2.5" style="stroke:#181818;stroke-width:0.5;" width="91.2881" x="1989.5" y="115"/><ellipse cx="2004.5" cy="131" fill="#ADD1B2" rx="11" ry="11" style="stroke:#181818;stroke-width:1;"/><path d="M2007.4688,136.6406 Q2006.8906,136.9375 2006.25,137.0781 Q2005.6094,137.2344 2004.9063,137.2344 Q2002.4063,137.2344 2001.0781,135.5938 Q1999.7656,133.9375 1999.7656,130.8125 Q1999.7656,127.6875 2001.0781,126.0313 Q2002.4063,124.375 2004.9063,124.375 Q2005.6094,124.375 2006.25,124.5313 Q2006.9063,124.6875 2007.4688,124.9844 L2007.4688,127.7031 Q2006.8438,127.125 2006.25,126.8594 Q2005.6563,126.5781 2005.0313,126.5781 Q2003.6875,126.5781 2003,127.6563 Q2002.3125,128.7188 2002.3125,130.8125 Q2002.3125,132.9063 2003,133.9844 Q2003.6875,135.0469 2005.0313,135.0469 Q2005.6563,135.0469 2006.25,134.7813 Q2006.8438,134.5 2007.4688,133.9219 L2007.4688,136.6406 Z " fill="#000000"/><text fill="#000000" font-family="sans-serif" font-size="14" lengthAdjust="spacing" textLength="59.2881" x="2018.5" y="135.8467">Platform</text><line style="stroke:#181818;stroke-width:0.5;" x1="1990.5" x2="2079.7881" y1="147" y2="147"/><line style="stroke:#181818;stroke-width:0.5;" x1="1990.5" x2="2079.7881" y1="155" y2="155"/></g><!--class System--><g class="entity" data-qualified-name="System" data-source-line="10" id="ent0024"><rect fill="#F1F1F1" height="48" rx="2.5" ry="2.5" style="stroke:#181818;stroke-width:0.5;" width="84.2061" x="2116" y="115"/><ellipse cx="2131" cy="131" fill="#ADD1B2" rx="11" ry="11" style="stroke:#181818;stroke-width:1;"/><path d="M2133.9688,136.6406 Q2133.3906,136.9375 2132.75,137.0781 Q2132.1094,137.2344 2131.4063,137.2344 Q2128.9063,137.2344 2127.5781,135.5938 Q2126.2656,133.9375 2126.2656,130.8125 Q2126.2656,127.6875 2127.5781,126.0313 Q2128.9063,124.375 2131.4063,124.375 Q2132.1094,124.375 2132.75,124.5313 Q2133.4063,124.6875 2133.9688,124.9844 L2133.9688,127.7031 Q2133.3438,127.125 2132.75,126.8594 Q2132.1563,126.5781 2131.5313,126.5781 Q2130.1875,126.5781 2129.5,127.6563 Q2128.8125,128.7188 2128.8125,130.8125 Q2128.8125,132.9063 2129.5,133.9844 Q2130.1875,135.0469 2131.5313,135.0469 Q2132.1563,135.0469 2132.75,134.7813 Q2133.3438,134.5 2133.9688,133.9219 L2133.9688,136.6406 Z " fill="#000000"/><text fill="#000000" font-family="sans-serif" font-size="14" lengthAdjust="spacing" textLength="52.2061" x="2145" y="135.8467">System</text><line style="stroke:#181818;stroke-width:0.5;" x1="2117" x2="2199.2061" y1="147" y2="147"/><line style="stroke:#181818;stroke-width:0.5;" x1="2117" x2="2199.2061" y1="155" y2="155"/></g><!--class Sampler--><g class="entity" data-qualified-name="Sampler" data-source-line="10" id="ent0025"><rect fill="#F1F1F1" height="48" rx="2.5" ry="2.5" style="stroke:#181818;stroke-width:0.5;" width="90.249" x="1987" y="223"/><ellipse cx="2002" cy="239" fill="#ADD1B2" rx="11" ry="11" style="stroke:#181818;stroke-width:1;"/><path d="M2004.9688,244.6406 Q2004.3906,244.9375 2003.75,245.0781 Q2003.1094,245.2344 2002.4063,245.2344 Q1999.9063,245.2344 1998.5781,243.5938 Q1997.2656,241.9375 1997.2656,238.8125 Q1997.2656,235.6875 1998.5781,234.0313 Q1999.9063,232.375 2002.4063,232.375 Q2003.1094,232.375 2003.75,232.5313 Q2004.4063,232.6875 2004.9688,232.9844 L2004.9688,235.7031 Q2004.3438,235.125 2003.75,234.8594 Q2003.1563,234.5781 2002.5313,234.5781 Q2001.1875,234.5781 2000.5,235.6563 Q1999.8125,236.7188 1999.8125,238.8125 Q1999.8125,240.9063 2000.5,241.9844 Q2001.1875,243.0469 2002.5313,243.0469 Q2003.1563,243.0469 2003.75,242.7813 Q2004.3438,242.5 2004.9688,241.9219 L2004.9688,244.6406 Z " fill="#000000"/><text fill="#000000" font-family="sans-serif" font-size="14" lengthAdjust="spacing" textLength="58.249" x="2016" y="243.8467">Sampler</text><line style="stroke:#181818;stroke-width:0.5;" x1="1988" x2="2076.249" y1="255" y2="255"/><line style="stroke:#181818;stroke-width:0.5;" x1="1988" x2="2076.249" y1="263" y2="263"/></g><!--class Actuator--><g class="entity" data-qualified-name="Actuator" data-source-line="11" id="ent0027"><rect fill="#F1F1F1" height="48" rx="2.5" ry="2.5" style="stroke:#181818;stroke-width:0.5;" width="92.0264" x="2112" y="223"/><ellipse cx="2127" cy="239" fill="#ADD1B2" rx="11" ry="11" style="stroke:#181818;stroke-width:1;"/><path d="M2129.9688,244.6406 Q2129.3906,244.9375 2128.75,245.0781 Q2128.1094,245.2344 2127.4063,245.2344 Q2124.9063,245.2344 2123.5781,243.5938 Q2122.2656,241.9375 2122.2656,238.8125 Q2122.2656,235.6875 2123.5781,234.0313 Q2124.9063,232.375 2127.4063,232.375 Q2128.1094,232.375 2128.75,232.5313 Q2129.4063,232.6875 2129.9688,232.9844 L2129.9688,235.7031 Q2129.3438,235.125 2128.75,234.8594 Q2128.1563,234.5781 2127.5313,234.5781 Q2126.1875,234.5781 2125.5,235.6563 Q2124.8125,236.7188 2124.8125,238.8125 Q2124.8125,240.9063 2125.5,241.9844 Q2126.1875,243.0469 2127.5313,243.0469 Q2128.1563,243.0469 2128.75,242.7813 Q2129.3438,242.5 2129.9688,241.9219 L2129.9688,244.6406 Z " fill="#000000"/><text fill="#000000" font-family="sans-serif" font-size="14" lengthAdjust="spacing" textLength="60.0264" x="2141" y="243.8467">Actuator</text><line style="stroke:#181818;stroke-width:0.5;" x1="2113" x2="2203.0264" y1="255" y2="255"/><line style="stroke:#181818;stroke-width:0.5;" x1="2113" x2="2203.0264" y1="263" y2="263"/></g><!--class Execution--><g class="entity" data-qualified-name="Execution" data-source-line="13" id="ent0030"><rect fill="#F1F1F1" height="48" rx="2.5" ry="2.5" style="stroke:#181818;stroke-width:0.5;" width="101.1318" x="2367.5" y="7"/><ellipse cx="2382.5" cy="23" fill="#ADD1B2" rx="11" ry="11" style="stroke:#181818;stroke-width:1;"/><path d="M2385.4688,28.6406 Q2384.8906,28.9375 2384.25,29.0781 Q2383.6094,29.2344 2382.9063,29.2344 Q2380.4063,29.2344 2379.0781,27.5938 Q2377.7656,25.9375 2377.7656,22.8125 Q2377.7656,19.6875 2379.0781,18.0313 Q2380.4063,16.375 2382.9063,16.375 Q2383.6094,16.375 2384.25,16.5313 Q2384.9063,16.6875 2385.4688,16.9844 L2385.4688,19.7031 Q2384.8438,19.125 2384.25,18.8594 Q2383.6563,18.5781 2383.0313,18.5781 Q2381.6875,18.5781 2381,19.6563 Q2380.3125,20.7188 2380.3125,22.8125 Q2380.3125,24.9063 2381,25.9844 Q2381.6875,27.0469 2383.0313,27.0469 Q2383.6563,27.0469 2384.25,26.7813 Q2384.8438,26.5 2385.4688,25.9219 L2385.4688,28.6406 Z " fill="#000000"/><text fill="#000000" font-family="sans-serif" font-size="14" lengthAdjust="spacing" textLength="69.1318" x="2396.5" y="27.8467">Execution</text><line style="stroke:#181818;stroke-width:0.5;" x1="2368.5" x2="2467.6318" y1="39" y2="39"/><line style="stroke:#181818;stroke-width:0.5;" x1="2368.5" x2="2467.6318" y1="47" y2="47"/></g><!--class Sampling--><g class="entity" data-qualified-name="Sampling" data-source-line="13" id="ent0031"><rect fill="#F1F1F1" height="48" rx="2.5" ry="2.5" style="stroke:#181818;stroke-width:0.5;" width="97.5293" x="2235" y="115"/><ellipse cx="2250" cy="131" fill="#ADD1B2" rx="11" ry="11" style="stroke:#181818;stroke-width:1;"/><path d="M2252.9688,136.6406 Q2252.3906,136.9375 2251.75,137.0781 Q2251.1094,137.2344 2250.4063,137.2344 Q2247.9063,137.2344 2246.5781,135.5938 Q2245.2656,133.9375 2245.2656,130.8125 Q2245.2656,127.6875 2246.5781,126.0313 Q2247.9063,124.375 2250.4063,124.375 Q2251.1094,124.375 2251.75,124.5313 Q2252.4063,124.6875 2252.9688,124.9844 L2252.9688,127.7031 Q2252.3438,127.125 2251.75,126.8594 Q2251.1563,126.5781 2250.5313,126.5781 Q2249.1875,126.5781 2248.5,127.6563 Q2247.8125,128.7188 2247.8125,130.8125 Q2247.8125,132.9063 2248.5,133.9844 Q2249.1875,135.0469 2250.5313,135.0469 Q2251.1563,135.0469 2251.75,134.7813 Q2252.3438,134.5 2252.9688,133.9219 L2252.9688,136.6406 Z " fill="#000000"/><text fill="#000000" font-family="sans-serif" font-size="14" lengthAdjust="spacing" textLength="65.5293" x="2264" y="135.8467">Sampling</text><line style="stroke:#181818;stroke-width:0.5;" x1="2236" x2="2331.5293" y1="147" y2="147"/><line style="stroke:#181818;stroke-width:0.5;" x1="2236" x2="2331.5293" y1="155" y2="155"/></g><!--class ExecutionCollection--><g class="entity" data-qualified-name="ExecutionCollection" data-source-line="14" id="ent0033"><rect fill="#F1F1F1" height="48" rx="2.5" ry="2.5" style="stroke:#181818;stroke-width:0.5;" width="170.3799" x="2855" y="7"/><ellipse cx="2870" cy="23" fill="#ADD1B2" rx="11" ry="11" style="stroke:#181818;stroke-width:1;"/><path d="M2872.9688,28.6406 Q2872.3906,28.9375 2871.75,29.0781 Q2871.1094,29.2344 2870.4063,29.2344 Q2867.9063,29.2344 2866.5781,27.5938 Q2865.2656,25.9375 2865.2656,22.8125 Q2865.2656,19.6875 2866.5781,18.0313 Q2867.9063,16.375 2870.4063,16.375 Q2871.1094,16.375 2871.75,16.5313 Q2872.4063,16.6875 2872.9688,16.9844 L2872.9688,19.7031 Q2872.3438,19.125 2871.75,18.8594 Q2871.1563,18.5781 2870.5313,18.5781 Q2869.1875,18.5781 2868.5,19.6563 Q2867.8125,20.7188 2867.8125,22.8125 Q2867.8125,24.9063 2868.5,25.9844 Q2869.1875,27.0469 2870.5313,27.0469 Q2871.1563,27.0469 2871.75,26.7813 Q2872.3438,26.5 2872.9688,25.9219 L2872.9688,28.6406 Z " fill="#000000"/><text fill="#000000" font-family="sans-serif" font-size="14" lengthAdjust="spacing" textLength="138.3799" x="2884" y="27.8467">ExecutionCollection</text><line style="stroke:#181818;stroke-width:0.5;" x1="2856" x2="3024.3799" y1="39" y2="39"/><line style="stroke:#181818;stroke-width:0.5;" x1="2856" x2="3024.3799" y1="47" y2="47"/></g><!--class SamplingCollection--><g class="entity" data-qualified-name="SamplingCollection" data-source-line="14" id="ent0034"><rect fill="#F1F1F1" height="48" rx="2.5" ry="2.5" style="stroke:#181818;stroke-width:0.5;" width="166.7773" x="2654.5" y="115"/><ellipse cx="2669.5" cy="131" fill="#ADD1B2" rx="11" ry="11" style="stroke:#181818;stroke-width:1;"/><path d="M2672.4688,136.6406 Q2671.8906,136.9375 2671.25,137.0781 Q2670.6094,137.2344 2669.9063,137.2344 Q2667.4063,137.2344 2666.0781,135.5938 Q2664.7656,133.9375 2664.7656,130.8125 Q2664.7656,127.6875 2666.0781,126.0313 Q2667.4063,124.375 2669.9063,124.375 Q2670.6094,124.375 2671.25,124.5313 Q2671.9063,124.6875 2672.4688,124.9844 L2672.4688,127.7031 Q2671.8438,127.125 2671.25,126.8594 Q2670.6563,126.5781 2670.0313,126.5781 Q2668.6875,126.5781 2668,127.6563 Q2667.3125,128.7188 2667.3125,130.8125 Q2667.3125,132.9063 2668,133.9844 Q2668.6875,135.0469 2670.0313,135.0469 Q2670.6563,135.0469 2671.25,134.7813 Q2671.8438,134.5 2672.4688,133.9219 L2672.4688,136.6406 Z " fill="#000000"/><text fill="#000000" font-family="sans-serif" font-size="14" lengthAdjust="spacing" textLength="134.7773" x="2683.5" y="135.8467">SamplingCollection</text><line style="stroke:#181818;stroke-width:0.5;" x1="2655.5" x2="2820.2773" y1="147" y2="147"/><line style="stroke:#181818;stroke-width:0.5;" x1="2655.5" x2="2820.2773" y1="155" y2="155"/></g><!--class Actuation--><g class="entity" data-qualified-name="Actuation" data-source-line="15" id="ent0036"><rect fill="#F1F1F1" height="48" rx="2.5" ry="2.5" style="stroke:#181818;stroke-width:0.5;" width="99.0332" x="2368.5" y="115"/><ellipse cx="2383.5" cy="131" fill="#ADD1B2" rx="11" ry="11" style="stroke:#181818;stroke-width:1;"/><path d="M2386.4688,136.6406 Q2385.8906,136.9375 2385.25,137.0781 Q2384.6094,137.2344 2383.9063,137.2344 Q2381.4063,137.2344 2380.0781,135.5938 Q2378.7656,133.9375 2378.7656,130.8125 Q2378.7656,127.6875 2380.0781,126.0313 Q2381.4063,124.375 2383.9063,124.375 Q2384.6094,124.375 2385.25,124.5313 Q2385.9063,124.6875 2386.4688,124.9844 L2386.4688,127.7031 Q2385.8438,127.125 2385.25,126.8594 Q2384.6563,126.5781 2384.0313,126.5781 Q2382.6875,126.5781 2382,127.6563 Q2381.3125,128.7188 2381.3125,130.8125 Q2381.3125,132.9063 2382,133.9844 Q2382.6875,135.0469 2384.0313,135.0469 Q2384.6563,135.0469 2385.25,134.7813 Q2385.8438,134.5 2386.4688,133.9219 L2386.4688,136.6406 Z " fill="#000000"/><text fill="#000000" font-family="sans-serif" font-size="14" lengthAdjust="spacing" textLength="67.0332" x="2397.5" y="135.8467">Actuation</text><line style="stroke:#181818;stroke-width:0.5;" x1="2369.5" x2="2466.5332" y1="147" y2="147"/><line style="stroke:#181818;stroke-width:0.5;" x1="2369.5" x2="2466.5332" y1="155" y2="155"/></g><!--class Sensor--><g class="entity" data-qualified-name="Sensor" data-source-line="16" id="ent0038"><rect fill="#F1F1F1" height="48" rx="2.5" ry="2.5" style="stroke:#181818;stroke-width:0.5;" width="79.9883" x="2239" y="223"/><ellipse cx="2254" cy="239" fill="#ADD1B2" rx="11" ry="11" style="stroke:#181818;stroke-width:1;"/><path d="M2256.9688,244.6406 Q2256.3906,244.9375 2255.75,245.0781 Q2255.1094,245.2344 2254.4063,245.2344 Q2251.9063,245.2344 2250.5781,243.5938 Q2249.2656,241.9375 2249.2656,238.8125 Q2249.2656,235.6875 2250.5781,234.0313 Q2251.9063,232.375 2254.4063,232.375 Q2255.1094,232.375 2255.75,232.5313 Q2256.4063,232.6875 2256.9688,232.9844 L2256.9688,235.7031 Q2256.3438,235.125 2255.75,234.8594 Q2255.1563,234.5781 2254.5313,234.5781 Q2253.1875,234.5781 2252.5,235.6563 Q2251.8125,236.7188 2251.8125,238.8125 Q2251.8125,240.9063 2252.5,241.9844 Q2253.1875,243.0469 2254.5313,243.0469 Q2255.1563,243.0469 2255.75,242.7813 Q2256.3438,242.5 2256.9688,241.9219 L2256.9688,244.6406 Z " fill="#000000"/><text fill="#000000" font-family="sans-serif" font-size="14" lengthAdjust="spacing" textLength="47.9883" x="2268" y="243.8467">Sensor</text><line style="stroke:#181818;stroke-width:0.5;" x1="2240" x2="2317.9883" y1="255" y2="255"/><line style="stroke:#181818;stroke-width:0.5;" x1="2240" x2="2317.9883" y1="263" y2="263"/></g><!--class ActuationCollection--><g class="entity" data-qualified-name="ActuationCollection" data-source-line="17" id="ent0040"><rect fill="#F1F1F1" height="48" rx="2.5" ry="2.5" style="stroke:#181818;stroke-width:0.5;" width="168.2813" x="2856" y="115"/><ellipse cx="2871" cy="131" fill="#ADD1B2" rx="11" ry="11" style="stroke:#181818;stroke-width:1;"/><path d="M2873.9688,136.6406 Q2873.3906,136.9375 2872.75,137.0781 Q2872.1094,137.2344 2871.4063,137.2344 Q2868.9063,137.2344 2867.5781,135.5938 Q2866.2656,133.9375 2866.2656,130.8125 Q2866.2656,127.6875 2867.5781,126.0313 Q2868.9063,124.375 2871.4063,124.375 Q2872.1094,124.375 2872.75,124.5313 Q2873.4063,124.6875 2873.9688,124.9844 L2873.9688,127.7031 Q2873.3438,127.125 2872.75,126.8594 Q2872.1563,126.5781 2871.5313,126.5781 Q2870.1875,126.5781 2869.5,127.6563 Q2868.8125,128.7188 2868.8125,130.8125 Q2868.8125,132.9063 2869.5,133.9844 Q2870.1875,135.0469 2871.5313,135.0469 Q2872.1563,135.0469 2872.75,134.7813 Q2873.3438,134.5 2873.9688,133.9219 L2873.9688,136.6406 Z " fill="#000000"/><text fill="#000000" font-family="sans-serif" font-size="14" lengthAdjust="spacing" textLength="136.2813" x="2885" y="135.8467">ActuationCollection</text><line style="stroke:#181818;stroke-width:0.5;" x1="2857" x2="3023.2813" y1="147" y2="147"/><line style="stroke:#181818;stroke-width:0.5;" x1="2857" x2="3023.2813" y1="155" y2="155"/></g><!--class ObservationCollection--><g class="entity" data-qualified-name="ObservationCollection" data-source-line="18" id="ent0042"><rect fill="#F1F1F1" height="48" rx="2.5" ry="2.5" style="stroke:#181818;stroke-width:0.5;" width="186.499" x="3059" y="115"/><ellipse cx="3074" cy="131" fill="#ADD1B2" rx="11" ry="11" style="stroke:#181818;stroke-width:1;"/><path d="M3076.9688,136.6406 Q3076.3906,136.9375 3075.75,137.0781 Q3075.1094,137.2344 3074.4063,137.2344 Q3071.9063,137.2344 3070.5781,135.5938 Q3069.2656,133.9375 3069.2656,130.8125 Q3069.2656,127.6875 3070.5781,126.0313 Q3071.9063,124.375 3074.4063,124.375 Q3075.1094,124.375 3075.75,124.5313 Q3076.4063,124.6875 3076.9688,124.9844 L3076.9688,127.7031 Q3076.3438,127.125 3075.75,126.8594 Q3075.1563,126.5781 3074.5313,126.5781 Q3073.1875,126.5781 3072.5,127.6563 Q3071.8125,128.7188 3071.8125,130.8125 Q3071.8125,132.9063 3072.5,133.9844 Q3073.1875,135.0469 3074.5313,135.0469 Q3075.1563,135.0469 3075.75,134.7813 Q3076.3438,134.5 3076.9688,133.9219 L3076.9688,136.6406 Z " fill="#000000"/><text fill="#000000" font-family="sans-serif" font-size="14" lengthAdjust="spacing" textLength="154.499" x="3088" y="135.8467">ObservationCollection</text><line style="stroke:#181818;stroke-width:0.5;" x1="3060" x2="3244.499" y1="147" y2="147"/><line style="stroke:#181818;stroke-width:0.5;" x1="3060" x2="3244.499" y1="155" y2="155"/></g><!--class Observation--><g class="entity" data-qualified-name="Observation" data-source-line="19" id="ent0044"><rect fill="#F1F1F1" height="48" rx="2.5" ry="2.5" style="stroke:#181818;stroke-width:0.5;" width="117.251" x="2502.5" y="115"/><ellipse cx="2517.5" cy="131" fill="#ADD1B2" rx="11" ry="11" style="stroke:#181818;stroke-width:1;"/><path d="M2520.4688,136.6406 Q2519.8906,136.9375 2519.25,137.0781 Q2518.6094,137.2344 2517.9063,137.2344 Q2515.4063,137.2344 2514.0781,135.5938 Q2512.7656,133.9375 2512.7656,130.8125 Q2512.7656,127.6875 2514.0781,126.0313 Q2515.4063,124.375 2517.9063,124.375 Q2518.6094,124.375 2519.25,124.5313 Q2519.9063,124.6875 2520.4688,124.9844 L2520.4688,127.7031 Q2519.8438,127.125 2519.25,126.8594 Q2518.6563,126.5781 2518.0313,126.5781 Q2516.6875,126.5781 2516,127.6563 Q2515.3125,128.7188 2515.3125,130.8125 Q2515.3125,132.9063 2516,133.9844 Q2516.6875,135.0469 2518.0313,135.0469 Q2518.6563,135.0469 2519.25,134.7813 Q2519.8438,134.5 2520.4688,133.9219 L2520.4688,136.6406 Z " fill="#000000"/><text fill="#000000" font-family="sans-serif" font-size="14" lengthAdjust="spacing" textLength="85.251" x="2531.5" y="135.8467">Observation</text><line style="stroke:#181818;stroke-width:0.5;" x1="2503.5" x2="2618.751" y1="147" y2="147"/><line style="stroke:#181818;stroke-width:0.5;" x1="2503.5" x2="2618.751" y1="155" y2="155"/></g><!--class FeatureOfInterest--><g class="entity" data-qualified-name="FeatureOfInterest" data-source-line="20" id="ent0046"><rect fill="#F1F1F1" height="48" rx="2.5" ry="2.5" style="stroke:#181818;stroke-width:0.5;" width="156.1816" x="7" y="7"/><ellipse cx="22" cy="23" fill="#ADD1B2" rx="11" ry="11" style="stroke:#181818;stroke-width:1;"/><path d="M24.9688,28.6406 Q24.3906,28.9375 23.75,29.0781 Q23.1094,29.2344 22.4063,29.2344 Q19.9063,29.2344 18.5781,27.5938 Q17.2656,25.9375 17.2656,22.8125 Q17.2656,19.6875 18.5781,18.0313 Q19.9063,16.375 22.4063,16.375 Q23.1094,16.375 23.75,16.5313 Q24.4063,16.6875 24.9688,16.9844 L24.9688,19.7031 Q24.3438,19.125 23.75,18.8594 Q23.1563,18.5781 22.5313,18.5781 Q21.1875,18.5781 20.5,19.6563 Q19.8125,20.7188 19.8125,22.8125 Q19.8125,24.9063 20.5,25.9844 Q21.1875,27.0469 22.5313,27.0469 Q23.1563,27.0469 23.75,26.7813 Q24.3438,26.5 24.9688,25.9219 L24.9688,28.6406 Z " fill="#000000"/><text fill="#000000" font-family="sans-serif" font-size="14" lengthAdjust="spacing" textLength="124.1816" x="36" y="27.8467">FeatureOfInterest</text><line style="stroke:#181818;stroke-width:0.5;" x1="8" x2="162.1816" y1="39" y2="39"/><line style="stroke:#181818;stroke-width:0.5;" x1="8" x2="162.1816" y1="47" y2="47"/></g><!--class Deployment--><g class="entity" data-qualified-name="Deployment" data-source-line="21" id="ent0047"><rect fill="#F1F1F1" height="48" rx="2.5" ry="2.5" style="stroke:#181818;stroke-width:0.5;" width="117.6338" x="198" y="7"/><ellipse cx="213" cy="23" fill="#ADD1B2" rx="11" ry="11" style="stroke:#181818;stroke-width:1;"/><path d="M215.9688,28.6406 Q215.3906,28.9375 214.75,29.0781 Q214.1094,29.2344 213.4063,29.2344 Q210.9063,29.2344 209.5781,27.5938 Q208.2656,25.9375 208.2656,22.8125 Q208.2656,19.6875 209.5781,18.0313 Q210.9063,16.375 213.4063,16.375 Q214.1094,16.375 214.75,16.5313 Q215.4063,16.6875 215.9688,16.9844 L215.9688,19.7031 Q215.3438,19.125 214.75,18.8594 Q214.1563,18.5781 213.5313,18.5781 Q212.1875,18.5781 211.5,19.6563 Q210.8125,20.7188 210.8125,22.8125 Q210.8125,24.9063 211.5,25.9844 Q212.1875,27.0469 213.5313,27.0469 Q214.1563,27.0469 214.75,26.7813 Q215.3438,26.5 215.9688,25.9219 L215.9688,28.6406 Z " fill="#000000"/><text fill="#000000" font-family="sans-serif" font-size="14" lengthAdjust="spacing" textLength="85.6338" x="227" y="27.8467">Deployment</text><line style="stroke:#181818;stroke-width:0.5;" x1="199" x2="314.6338" y1="39" y2="39"/><line style="stroke:#181818;stroke-width:0.5;" x1="199" x2="314.6338" y1="47" y2="47"/></g><!--class Stimulus--><g class="entity" data-qualified-name="Stimulus" data-source-line="22" id="ent0048"><rect fill="#F1F1F1" height="48" rx="2.5" ry="2.5" style="stroke:#181818;stroke-width:0.5;" width="92.833" x="351.5" y="7"/><ellipse cx="366.5" cy="23" fill="#ADD1B2" rx="11" ry="11" style="stroke:#181818;stroke-width:1;"/><path d="M369.4688,28.6406 Q368.8906,28.9375 368.25,29.0781 Q367.6094,29.2344 366.9063,29.2344 Q364.4063,29.2344 363.0781,27.5938 Q361.7656,25.9375 361.7656,22.8125 Q361.7656,19.6875 363.0781,18.0313 Q364.4063,16.375 366.9063,16.375 Q367.6094,16.375 368.25,16.5313 Q368.9063,16.6875 369.4688,16.9844 L369.4688,19.7031 Q368.8438,19.125 368.25,18.8594 Q367.6563,18.5781 367.0313,18.5781 Q365.6875,18.5781 365,19.6563 Q364.3125,20.7188 364.3125,22.8125 Q364.3125,24.9063 365,25.9844 Q365.6875,27.0469 367.0313,27.0469 Q367.6563,27.0469 368.25,26.7813 Q368.8438,26.5 369.4688,25.9219 L369.4688,28.6406 Z " fill="#000000"/><text fill="#000000" font-family="sans-serif" font-size="14" lengthAdjust="spacing" textLength="60.833" x="380.5" y="27.8467">Stimulus</text><line style="stroke:#181818;stroke-width:0.5;" x1="352.5" x2="443.333" y1="39" y2="39"/><line style="stroke:#181818;stroke-width:0.5;" x1="352.5" x2="443.333" y1="47" y2="47"/></g><!--class SampleCollection--><g class="entity" data-qualified-name="SampleCollection" data-source-line="23" id="ent0049"><rect fill="#F1F1F1" height="48" rx="2.5" ry="2.5" style="stroke:#181818;stroke-width:0.5;" width="153.7412" x="8" y="115"/><ellipse cx="23" cy="131" fill="#ADD1B2" rx="11" ry="11" style="stroke:#181818;stroke-width:1;"/><path d="M25.9688,136.6406 Q25.3906,136.9375 24.75,137.0781 Q24.1094,137.2344 23.4063,137.2344 Q20.9063,137.2344 19.5781,135.5938 Q18.2656,133.9375 18.2656,130.8125 Q18.2656,127.6875 19.5781,126.0313 Q20.9063,124.375 23.4063,124.375 Q24.1094,124.375 24.75,124.5313 Q25.4063,124.6875 25.9688,124.9844 L25.9688,127.7031 Q25.3438,127.125 24.75,126.8594 Q24.1563,126.5781 23.5313,126.5781 Q22.1875,126.5781 21.5,127.6563 Q20.8125,128.7188 20.8125,130.8125 Q20.8125,132.9063 21.5,133.9844 Q22.1875,135.0469 23.5313,135.0469 Q24.1563,135.0469 24.75,134.7813 Q25.3438,134.5 25.9688,133.9219 L25.9688,136.6406 Z " fill="#000000"/><text fill="#000000" font-family="sans-serif" font-size="14" lengthAdjust="spacing" textLength="121.7412" x="37" y="135.8467">SampleCollection</text><line style="stroke:#181818;stroke-width:0.5;" x1="9" x2="160.7412" y1="147" y2="147"/><line style="stroke:#181818;stroke-width:0.5;" x1="9" x2="160.7412" y1="155" y2="155"/></g><!--class Output--><g class="entity" data-qualified-name="Output" data-source-line="27" id="ent0050"><rect fill="#F1F1F1" height="48" rx="2.5" ry="2.5" style="stroke:#181818;stroke-width:0.5;" width="80.6309" x="197.5" y="115"/><ellipse cx="212.5" cy="131" fill="#ADD1B2" rx="11" ry="11" style="stroke:#181818;stroke-width:1;"/><path d="M215.4688,136.6406 Q214.8906,136.9375 214.25,137.0781 Q213.6094,137.2344 212.9063,137.2344 Q210.4063,137.2344 209.0781,135.5938 Q207.7656,133.9375 207.7656,130.8125 Q207.7656,127.6875 209.0781,126.0313 Q210.4063,124.375 212.9063,124.375 Q213.6094,124.375 214.25,124.5313 Q214.9063,124.6875 215.4688,124.9844 L215.4688,127.7031 Q214.8438,127.125 214.25,126.8594 Q213.6563,126.5781 213.0313,126.5781 Q211.6875,126.5781 211,127.6563 Q210.3125,128.7188 210.3125,130.8125 Q210.3125,132.9063 211,133.9844 Q211.6875,135.0469 213.0313,135.0469 Q213.6563,135.0469 214.25,134.7813 Q214.8438,134.5 215.4688,133.9219 L215.4688,136.6406 Z " fill="#000000"/><text fill="#000000" font-family="sans-serif" font-size="14" lengthAdjust="spacing" textLength="48.6309" x="226.5" y="135.8467">Output</text><line style="stroke:#181818;stroke-width:0.5;" x1="198.5" x2="277.1309" y1="147" y2="147"/><line style="stroke:#181818;stroke-width:0.5;" x1="198.5" x2="277.1309" y1="155" y2="155"/></g><!--class Result--><g class="entity" data-qualified-name="Result" data-source-line="28" id="ent0051"><rect fill="#F1F1F1" height="48" rx="2.5" ry="2.5" style="stroke:#181818;stroke-width:0.5;" width="75.8867" x="314" y="115"/><ellipse cx="329" cy="131" fill="#ADD1B2" rx="11" ry="11" style="stroke:#181818;stroke-width:1;"/><path d="M331.9688,136.6406 Q331.3906,136.9375 330.75,137.0781 Q330.1094,137.2344 329.4063,137.2344 Q326.9063,137.2344 325.5781,135.5938 Q324.2656,133.9375 324.2656,130.8125 Q324.2656,127.6875 325.5781,126.0313 Q326.9063,124.375 329.4063,124.375 Q330.1094,124.375 330.75,124.5313 Q331.4063,124.6875 331.9688,124.9844 L331.9688,127.7031 Q331.3438,127.125 330.75,126.8594 Q330.1563,126.5781 329.5313,126.5781 Q328.1875,126.5781 327.5,127.6563 Q326.8125,128.7188 326.8125,130.8125 Q326.8125,132.9063 327.5,133.9844 Q328.1875,135.0469 329.5313,135.0469 Q330.1563,135.0469 330.75,134.7813 Q331.3438,134.5 331.9688,133.9219 L331.9688,136.6406 Z " fill="#000000"/><text fill="#000000" font-family="sans-serif" font-size="14" lengthAdjust="spacing" textLength="43.8867" x="343" y="135.8467">Result</text><line style="stroke:#181818;stroke-width:0.5;" x1="315" x2="388.8867" y1="147" y2="147"/><line style="stroke:#181818;stroke-width:0.5;" x1="315" x2="388.8867" y1="155" y2="155"/></g><!--class Input--><g class="entity" data-qualified-name="Input" data-source-line="29" id="ent0052"><rect fill="#F1F1F1" height="48" rx="2.5" ry="2.5" style="stroke:#181818;stroke-width:0.5;" width="68.251" x="51" y="223"/><ellipse cx="66" cy="239" fill="#ADD1B2" rx="11" ry="11" style="stroke:#181818;stroke-width:1;"/><path d="M68.9688,244.6406 Q68.3906,244.9375 67.75,245.0781 Q67.1094,245.2344 66.4063,245.2344 Q63.9063,245.2344 62.5781,243.5938 Q61.2656,241.9375 61.2656,238.8125 Q61.2656,235.6875 62.5781,234.0313 Q63.9063,232.375 66.4063,232.375 Q67.1094,232.375 67.75,232.5313 Q68.4063,232.6875 68.9688,232.9844 L68.9688,235.7031 Q68.3438,235.125 67.75,234.8594 Q67.1563,234.5781 66.5313,234.5781 Q65.1875,234.5781 64.5,235.6563 Q63.8125,236.7188 63.8125,238.8125 Q63.8125,240.9063 64.5,241.9844 Q65.1875,243.0469 66.5313,243.0469 Q67.1563,243.0469 67.75,242.7813 Q68.3438,242.5 68.9688,241.9219 L68.9688,244.6406 Z " fill="#000000"/><text fill="#000000" font-family="sans-serif" font-size="14" lengthAdjust="spacing" textLength="36.251" x="80" y="243.8467">Input</text><line style="stroke:#181818;stroke-width:0.5;" x1="52" x2="118.251" y1="255" y2="255"/><line style="stroke:#181818;stroke-width:0.5;" x1="52" x2="118.251" y1="263" y2="263"/></g><!--reverse link Property to ActuatableProperty--><g class="link" data-entity-1="ent0002" data-entity-2="ent0003" data-link-type="extension" data-source-line="1" id="lnk4"><path codeLine="1" d="M582.8933,67.4324 C564.4033,85.0924 552,96.94 533.42,114.68" fill="none" id="Property-backto-ActuatableProperty" style="stroke:#181818;stroke-width:1;"/><polygon fill="none" points="595.91,55,578.7491,63.0935,587.0374,71.7713,595.91,55" style="stroke:#181818;stroke-width:1;"/></g><!--reverse link Sample to MaterialSample--><g class="link" data-entity-1="ent0005" data-entity-2="ent0006" data-link-type="extension" data-source-line="2" id="lnk7"><path codeLine="2" d="M1025.3567,64.4445 C996.6067,82.1645 972.35,97.11 943.55,114.86" fill="none" id="Sample-backto-MaterialSample" style="stroke:#181818;stroke-width:1;"/><polygon fill="none" points="1040.68,55,1022.2086,59.3367,1028.5049,69.5522,1040.68,55" style="stroke:#181818;stroke-width:1;"/></g><!--reverse link Sample to SpatialSample--><g class="link" data-entity-1="ent0005" data-entity-2="ent0008" data-link-type="extension" data-source-line="3" id="lnk9"><path codeLine="3" d="M1078,73 C1078,90.66 1078,96.94 1078,114.68" fill="none" id="Sample-backto-SpatialSample" style="stroke:#181818;stroke-width:1;"/><polygon fill="none" points="1078,55,1072,73,1084,73,1078,55" style="stroke:#181818;stroke-width:1;"/></g><!--reverse link Sample to StatisticalSample--><g class="link" data-entity-1="ent0005" data-entity-2="ent0010" data-link-type="extension" data-source-line="4" id="lnk11"><path codeLine="4" d="M1132.3276,64.1725 C1162.2476,81.8925 1187.95,97.11 1217.93,114.86" fill="none" id="Sample-backto-StatisticalSample" style="stroke:#181818;stroke-width:1;"/><polygon fill="none" points="1116.84,55,1129.2701,69.335,1135.3851,59.0099,1116.84,55" style="stroke:#181818;stroke-width:1;"/></g><!--reverse link Property to ObservableProperty--><g class="link" data-entity-1="ent0002" data-entity-2="ent0012" data-link-type="extension" data-source-line="5" id="lnk13"><path codeLine="5" d="M652.3424,68.4677 C668.0024,86.1277 677.59,96.94 693.32,114.68" fill="none" id="Property-backto-ObservableProperty" style="stroke:#181818;stroke-width:1;"/><polygon fill="none" points="640.4,55,647.8532,72.4485,656.8317,64.4868,640.4,55" style="stroke:#181818;stroke-width:1;"/></g><!--reverse link Procedure to ActuatingProcedure--><g class="link" data-entity-1="ent0014" data-entity-2="ent0015" data-link-type="extension" data-source-line="6" id="lnk16"><path codeLine="6" d="M1601.8326,63.1732 C1567.0626,80.8932 1535.24,97.11 1500.4,114.86" fill="none" id="Procedure-backto-ActuatingProcedure" style="stroke:#181818;stroke-width:1;"/><polygon fill="none" points="1617.87,55,1599.1082,57.8274,1604.557,68.519,1617.87,55" style="stroke:#181818;stroke-width:1;"/></g><!--reverse link Procedure to ObservingProcedure--><g class="link" data-entity-1="ent0014" data-entity-2="ent0017" data-link-type="extension" data-source-line="7" id="lnk18"><path codeLine="7" d="M1663,73 C1663,90.66 1663,96.94 1663,114.68" fill="none" id="Procedure-backto-ObservingProcedure" style="stroke:#181818;stroke-width:1;"/><polygon fill="none" points="1663,55,1657,73,1669,73,1663,55" style="stroke:#181818;stroke-width:1;"/></g><!--reverse link Procedure to SamplingProcedure--><g class="link" data-entity-1="ent0014" data-entity-2="ent0019" data-link-type="extension" data-source-line="8" id="lnk20"><path codeLine="8" d="M1723.9411,63.205 C1758.5411,80.925 1790.15,97.11 1824.81,114.86" fill="none" id="Procedure-backto-SamplingProcedure" style="stroke:#181818;stroke-width:1;"/><polygon fill="none" points="1707.92,55,1721.2061,68.5454,1726.6762,57.8647,1707.92,55" style="stroke:#181818;stroke-width:1;"/></g><!--reverse link Asset to Platform--><g class="link" data-entity-1="ent0021" data-entity-2="ent0022" data-link-type="extension" data-source-line="9" id="lnk23"><path codeLine="9" d="M2073.7839,70.6022 C2063.6239,88.2622 2058.63,96.94 2048.42,114.68" fill="none" id="Asset-backto-Platform" style="stroke:#181818;stroke-width:1;"/><polygon fill="none" points="2082.76,55,2068.5831,67.6102,2078.9846,73.5943,2082.76,55" style="stroke:#181818;stroke-width:1;"/></g><!--reverse link System to Sampler--><g class="link" data-entity-1="ent0024" data-entity-2="ent0025" data-link-type="extension" data-source-line="10" id="lnk26"><path codeLine="10" d="M2116.8865,174.5884 C2095.8965,192.2484 2080.81,204.94 2059.72,222.68" fill="none" id="System-backto-Sampler" style="stroke:#181818;stroke-width:1;"/><polygon fill="none" points="2130.66,163,2113.0237,169.9972,2120.7493,179.1795,2130.66,163" style="stroke:#181818;stroke-width:1;"/></g><!--reverse link System to Actuator--><g class="link" data-entity-1="ent0024" data-entity-2="ent0027" data-link-type="extension" data-source-line="11" id="lnk28"><path codeLine="11" d="M2158,181 C2158,198.66 2158,204.94 2158,222.68" fill="none" id="System-backto-Actuator" style="stroke:#181818;stroke-width:1;"/><polygon fill="none" points="2158,163,2152,181,2164,181,2158,163" style="stroke:#181818;stroke-width:1;"/></g><!--reverse link Asset to System--><g class="link" data-entity-1="ent0021" data-entity-2="ent0024" data-link-type="extension" data-source-line="12" id="lnk29"><path codeLine="12" d="M2118.5383,70.5372 C2128.8683,88.1972 2133.98,96.94 2144.36,114.68" fill="none" id="Asset-backto-System" style="stroke:#181818;stroke-width:1;"/><polygon fill="none" points="2109.45,55,2113.3592,73.5666,2123.7173,67.5077,2109.45,55" style="stroke:#181818;stroke-width:1;"/></g><!--reverse link Execution to Sampling--><g class="link" data-entity-1="ent0030" data-entity-2="ent0031" data-link-type="extension" data-source-line="13" id="lnk32"><path codeLine="13" d="M2374.8041,66.1688 C2352.4841,83.8288 2335.91,96.94 2313.48,114.68" fill="none" id="Execution-backto-Sampling" style="stroke:#181818;stroke-width:1;"/><polygon fill="none" points="2388.92,55,2371.0812,61.4635,2378.527,70.8741,2388.92,55" style="stroke:#181818;stroke-width:1;"/></g><!--reverse link ExecutionCollection to SamplingCollection--><g class="link" data-entity-1="ent0033" data-entity-2="ent0034" data-link-type="extension" data-source-line="14" id="lnk35"><path codeLine="14" d="M2880.231,63.3636 C2846.461,81.0836 2815.93,97.11 2782.09,114.86" fill="none" id="ExecutionCollection-backto-SamplingCollection" style="stroke:#181818;stroke-width:1;"/><polygon fill="none" points="2896.17,55,2877.4432,58.0506,2883.0189,68.6766,2896.17,55" style="stroke:#181818;stroke-width:1;"/></g><!--reverse link Execution to Actuation--><g class="link" data-entity-1="ent0030" data-entity-2="ent0036" data-link-type="extension" data-source-line="15" id="lnk37"><path codeLine="15" d="M2418,73 C2418,90.66 2418,96.94 2418,114.68" fill="none" id="Execution-backto-Actuation" style="stroke:#181818;stroke-width:1;"/><polygon fill="none" points="2418,55,2412,73,2424,73,2418,55" style="stroke:#181818;stroke-width:1;"/></g><!--reverse link System to Sensor--><g class="link" data-entity-1="ent0024" data-entity-2="ent0038" data-link-type="extension" data-source-line="16" id="lnk39"><path codeLine="16" d="M2197.7968,174.864 C2217.9468,192.524 2232.13,204.94 2252.38,222.68" fill="none" id="System-backto-Sensor" style="stroke:#181818;stroke-width:1;"/><polygon fill="none" points="2184.26,163,2193.8421,179.3763,2201.7515,170.3518,2184.26,163" style="stroke:#181818;stroke-width:1;"/></g><!--reverse link ExecutionCollection to ActuationCollection--><g class="link" data-entity-1="ent0033" data-entity-2="ent0040" data-link-type="extension" data-source-line="17" id="lnk41"><path codeLine="17" d="M2940,73 C2940,90.66 2940,96.94 2940,114.68" fill="none" id="ExecutionCollection-backto-ActuationCollection" style="stroke:#181818;stroke-width:1;"/><polygon fill="none" points="2940,55,2934,73,2946,73,2940,55" style="stroke:#181818;stroke-width:1;"/></g><!--reverse link ExecutionCollection to ObservationCollection--><g class="link" data-entity-1="ent0033" data-entity-2="ent0042" data-link-type="extension" data-source-line="18" id="lnk43"><path codeLine="18" d="M3002.0997,63.0498 C3037.5397,80.7698 3070.22,97.11 3105.72,114.86" fill="none" id="ExecutionCollection-backto-ObservationCollection" style="stroke:#181818;stroke-width:1;"/><polygon fill="none" points="2986,55,2999.4164,68.4164,3004.783,57.6833,2986,55" style="stroke:#181818;stroke-width:1;"/></g><!--reverse link Execution to Observation--><g class="link" data-entity-1="ent0030" data-entity-2="ent0044" data-link-type="extension" data-source-line="19" id="lnk45"><path codeLine="19" d="M2463.4895,65.7202 C2487.3095,83.3802 2505.61,96.94 2529.54,114.68" fill="none" id="Execution-backto-Observation" style="stroke:#181818;stroke-width:1;"/><polygon fill="none" points="2449.03,55,2459.9161,70.54,2467.0629,60.9004,2449.03,55" style="stroke:#181818;stroke-width:1;"/></g><?plantuml-src VL99RiCm3Bpx5Vv0Vj1Bq0N8eR1Hlu1Hc480jK2aYXheuoD4bcqvSM_Yp7268jW7vp78sBxy7GxjKKa4WJDXF-7D0COJPleJ18C6obX53HvaXv74i6WritsLsPqPmq-LcHuABp7WUYfjlsTygyWU_odkqPNWo8oIoPv0hYwOPXXPqAmwC5HOdiI5TNFcc_TVL56qitNUWhyw8bIFYWNVUap_JaGr5rfE4-pwpbtFZBVYQVbxyWTHemYOsmy4IJlihYURBW9P9lmDFRdHe2t08Df4YbpA-qvNINjjUQTFFReeFXRX5tAaKfpiGfHRkW40?></g></svg>